<svg width="26" height="26" viewBox="0 0 26 26" fill="none" xmlns="http://www.w3.org/2000/svg">
<path d="M25.6973 7.86361C25.6973 6.98161 24.9799 6.26411 24.0978 6.26411H15.8308C15.5295 6.26411 15.2854 6.50825 15.2854 6.80955V9.38545C15.2854 9.57315 15.3818 9.74776 15.5409 9.84754C15.6999 9.94724 15.8993 9.9583 16.068 9.87655C16.3084 9.76049 16.5667 9.70165 16.8361 9.70165C17.8112 9.70165 18.6046 10.495 18.6046 11.4702C18.6046 12.4453 17.8112 13.2386 16.8361 13.2386C16.5668 13.2386 16.3084 13.1797 16.068 13.0637C15.8992 12.982 15.6998 12.9932 15.5409 13.0927C15.3818 13.1925 15.2854 13.367 15.2854 13.5548V15.5881H13.9939C14.0182 15.4374 14.0304 15.2838 14.0304 15.1282C14.0304 13.5516 12.7476 12.269 11.171 12.269C9.59424 12.269 8.31167 13.5517 8.31167 15.1282C8.31167 15.2838 8.32389 15.4373 8.34818 15.5881H6.51043C6.20913 15.5881 5.965 15.8322 5.965 16.1335V24.4005C5.965 25.2825 6.68242 26 7.5645 26H24.098C24.9799 26 25.6973 25.2825 25.6973 24.4005V7.86361ZM7.05586 24.4005V16.6789H9.08633C9.27396 16.6789 9.4485 16.5824 9.54827 16.4234C9.64813 16.2644 9.65903 16.0653 9.57751 15.8963C9.4613 15.6557 9.40253 15.3973 9.40253 15.1281C9.40253 14.153 10.1958 13.3597 11.171 13.3597C12.1461 13.3597 12.9396 14.153 12.9396 15.1281C12.9396 15.3974 12.8806 15.6558 12.7646 15.8962C12.6829 16.0653 12.694 16.2644 12.7937 16.4234C12.8935 16.5824 13.0679 16.6789 13.2558 16.6789H15.2854V17.9711C15.1348 17.9469 14.9817 17.9347 14.8263 17.9347H14.826H14.8254C13.2487 17.9347 11.9661 19.2174 11.9661 20.7939C11.9661 22.3707 13.2488 23.6533 14.8254 23.6533H14.826H14.8263C14.9817 23.6533 15.1347 23.6411 15.2854 23.617V24.9091H7.5645C7.284 24.9091 7.05586 24.681 7.05586 24.4005ZM24.6064 24.4005C24.6064 24.681 24.3783 24.9091 24.098 24.9091H16.3771V22.8787C16.3771 22.691 16.2805 22.5165 16.1215 22.4166C16.022 22.3542 15.9069 22.3265 15.7933 22.3345C15.7249 22.3391 15.6571 22.3568 15.5936 22.3875C15.3532 22.5035 15.095 22.5624 14.8258 22.5625C13.8509 22.5622 13.0577 21.769 13.0577 20.7939C13.0577 19.819 13.8508 19.0258 14.8258 19.0256C15.095 19.0256 15.3532 19.0846 15.5936 19.2006C15.6781 19.2415 15.7703 19.2591 15.8612 19.2539C15.9521 19.249 16.0418 19.2213 16.1215 19.1713C16.2805 19.0715 16.3771 18.8971 16.3771 18.7093V16.6788H17.6681C17.6441 16.8287 17.632 16.9811 17.632 17.1358V17.1371V17.1386C17.632 18.7153 18.9147 19.998 20.4913 19.998C22.0679 19.998 23.3506 18.7153 23.3506 17.1386V17.1358C23.3506 16.9811 23.3386 16.8286 23.3146 16.6788H24.6064V24.4005ZM24.6063 15.5852H22.576C22.3884 15.5852 22.2138 15.6817 22.114 15.8408C22.0636 15.921 22.0361 16.0115 22.0313 16.1032C22.0264 16.194 22.044 16.2862 22.0847 16.3707C22.2008 16.6111 22.2597 16.8694 22.2597 17.1387C22.2581 18.1126 21.4654 18.9044 20.4912 18.9044C19.5167 18.9044 18.7236 18.1119 18.7228 17.1374C18.723 16.8686 18.7819 16.6106 18.8977 16.3708C18.9386 16.2862 18.9562 16.1941 18.9512 16.1032C18.9465 16.0115 18.919 15.921 18.8686 15.8408C18.7688 15.6817 18.5942 15.5852 18.4065 15.5852H16.3761V14.2929C16.5268 14.3172 16.6802 14.3294 16.8358 14.3294C18.4125 14.3294 19.6952 13.0467 19.6952 11.4701C19.6952 9.89335 18.4124 8.61071 16.8358 8.61071C16.6801 8.61071 16.5268 8.62293 16.3761 8.64722V7.35491H24.0977C24.3782 7.35491 24.6063 7.58312 24.6063 7.86354V15.5852Z" fill="#FFD15C"/>
<path d="M25.6973 7.86361C25.6973 6.98161 24.9799 6.26411 24.0978 6.26411H15.8308C15.5295 6.26411 15.2854 6.50825 15.2854 6.80955V9.38545C15.2854 9.57315 15.3818 9.74776 15.5409 9.84754C15.6999 9.94724 15.8993 9.9583 16.068 9.87655C16.3084 9.76049 16.5667 9.70165 16.8361 9.70165C17.8112 9.70165 18.6046 10.495 18.6046 11.4702C18.6046 12.4453 17.8112 13.2386 16.8361 13.2386C16.5668 13.2386 16.3084 13.1797 16.068 13.0637C15.8992 12.982 15.6998 12.9932 15.5409 13.0927C15.3818 13.1925 15.2854 13.367 15.2854 13.5548V15.5881H13.9939C14.0182 15.4374 14.0304 15.2838 14.0304 15.1282C14.0304 13.5516 12.7476 12.269 11.171 12.269C9.59424 12.269 8.31167 13.5517 8.31167 15.1282C8.31167 15.2838 8.32389 15.4373 8.34818 15.5881H6.51043C6.20913 15.5881 5.965 15.8322 5.965 16.1335V24.4005C5.965 25.2825 6.68242 26 7.5645 26H24.098C24.9799 26 25.6973 25.2825 25.6973 24.4005V7.86361ZM7.05586 24.4005V16.6789H9.08633C9.27396 16.6789 9.4485 16.5824 9.54827 16.4234C9.64813 16.2644 9.65903 16.0653 9.57751 15.8963C9.4613 15.6557 9.40253 15.3973 9.40253 15.1281C9.40253 14.153 10.1958 13.3597 11.171 13.3597C12.1461 13.3597 12.9396 14.153 12.9396 15.1281C12.9396 15.3974 12.8806 15.6558 12.7646 15.8962C12.6829 16.0653 12.694 16.2644 12.7937 16.4234C12.8935 16.5824 13.0679 16.6789 13.2558 16.6789H15.2854V17.9711C15.1348 17.9469 14.9817 17.9347 14.8263 17.9347H14.826H14.8254C13.2487 17.9347 11.9661 19.2174 11.9661 20.7939C11.9661 22.3707 13.2488 23.6533 14.8254 23.6533H14.826H14.8263C14.9817 23.6533 15.1347 23.6411 15.2854 23.617V24.9091H7.5645C7.284 24.9091 7.05586 24.681 7.05586 24.4005ZM24.6064 24.4005C24.6064 24.681 24.3783 24.9091 24.098 24.9091H16.3771V22.8787C16.3771 22.691 16.2805 22.5165 16.1215 22.4166C16.022 22.3542 15.9069 22.3265 15.7933 22.3345C15.7249 22.3391 15.6571 22.3568 15.5936 22.3875C15.3532 22.5035 15.095 22.5624 14.8258 22.5625C13.8509 22.5622 13.0577 21.769 13.0577 20.7939C13.0577 19.819 13.8508 19.0258 14.8258 19.0256C15.095 19.0256 15.3532 19.0846 15.5936 19.2006C15.6781 19.2415 15.7703 19.2591 15.8612 19.2539C15.9521 19.249 16.0418 19.2213 16.1215 19.1713C16.2805 19.0715 16.3771 18.8971 16.3771 18.7093V16.6788H17.6681C17.6441 16.8287 17.632 16.9811 17.632 17.1358V17.1371V17.1386C17.632 18.7153 18.9147 19.998 20.4913 19.998C22.0679 19.998 23.3506 18.7153 23.3506 17.1386V17.1358C23.3506 16.9811 23.3386 16.8286 23.3146 16.6788H24.6064V24.4005ZM24.6063 15.5852H22.576C22.3884 15.5852 22.2138 15.6817 22.114 15.8408C22.0636 15.921 22.0361 16.0115 22.0313 16.1032C22.0264 16.194 22.044 16.2862 22.0847 16.3707C22.2008 16.6111 22.2597 16.8694 22.2597 17.1387C22.2581 18.1126 21.4654 18.9044 20.4912 18.9044C19.5167 18.9044 18.7236 18.1119 18.7228 17.1374C18.723 16.8686 18.7819 16.6106 18.8977 16.3708C18.9386 16.2862 18.9562 16.1941 18.9512 16.1032C18.9465 16.0115 18.919 15.921 18.8686 15.8408C18.7688 15.6817 18.5942 15.5852 18.4065 15.5852H16.3761V14.2929C16.5268 14.3172 16.6802 14.3294 16.8358 14.3294C18.4125 14.3294 19.6952 13.0467 19.6952 11.4701C19.6952 9.89335 18.4124 8.61071 16.8358 8.61071C16.6801 8.61071 16.5268 8.62293 16.3761 8.64722V7.35491H24.0977C24.3782 7.35491 24.6063 7.58312 24.6063 7.86354V15.5852Z" stroke="#FFD15C"/>
<path d="M4.69988 13.619C4.64279 13.619 4.58541 13.61 4.53014 13.5919C4.39262 13.5469 4.27873 13.4491 4.21328 13.3201L0.476188 5.94573C0.283177 5.56466 0.249942 5.13115 0.382882 4.72505C0.515823 4.31896 0.798939 3.98901 1.18001 3.79593L8.55427 0.0588371C8.82284 -0.0769394 9.15112 0.0301837 9.28733 0.298828L10.118 1.93804C10.2416 1.84822 10.3728 1.76793 10.5116 1.69754C10.9167 1.49238 11.3507 1.38831 11.8021 1.38831C12.8866 1.38831 13.8647 1.98894 14.3546 2.95567C15.0674 4.36201 14.5031 6.08602 13.0967 6.79872C12.958 6.86912 12.8155 6.92751 12.67 6.97398L13.5008 8.61327C13.6371 8.88198 13.5296 9.21019 13.2609 9.34633L10.9633 10.5108C10.7958 10.5957 10.5965 10.5884 10.4357 10.4918C10.2748 10.3951 10.1749 10.2225 10.1712 10.0349C10.1661 9.76798 10.1018 9.51076 9.98003 9.27033C9.67706 8.67239 9.07185 8.30091 8.40082 8.30091C8.12229 8.30091 7.85394 8.36535 7.60311 8.49247C7.18182 8.70599 6.86874 9.07078 6.72191 9.51978C6.57493 9.9687 6.61151 10.448 6.82503 10.8693C6.94692 11.1097 7.11622 11.3135 7.32843 11.4754C7.47759 11.5892 7.5578 11.7718 7.54064 11.9587C7.52362 12.1456 7.41155 12.3107 7.24407 12.3955L4.94641 13.5601C4.86932 13.5992 4.78467 13.619 4.69988 13.619ZM8.56082 1.2785L1.67301 4.76905C1.55185 4.83043 1.46182 4.9353 1.41964 5.06446C1.37732 5.19354 1.38779 5.3315 1.44931 5.45266L4.9398 12.3405L6.09262 11.7563C6.00288 11.6328 5.92259 11.5014 5.85212 11.3625C5.50683 10.6813 5.44756 9.90638 5.68522 9.18044C5.92288 8.45465 6.42883 7.86471 7.11018 7.51942C7.50944 7.3171 7.95589 7.21012 8.4009 7.21012C9.48522 7.21012 10.4633 7.81068 10.9532 8.7774C11.0236 8.91631 11.082 9.0587 11.1285 9.20415L12.2813 8.61996L11.3633 6.80875C11.2785 6.64127 11.2857 6.44193 11.3825 6.28107C11.4792 6.1202 11.6519 6.02035 11.8395 6.01679C12.1063 6.01177 12.3634 5.94748 12.6037 5.82574C13.4734 5.38496 13.8224 4.31867 13.3816 3.44889C13.0785 2.8508 12.4733 2.47925 11.8021 2.47925C11.5238 2.47925 11.2554 2.54369 11.0047 2.67073C10.7647 2.79233 10.5608 2.96171 10.3988 3.17406C10.2849 3.32329 10.1024 3.403 9.91531 3.38627C9.72855 3.36918 9.56347 3.25711 9.47867 3.0897L8.56082 1.2785Z" fill="#FFD15C"/>
<path d="M4.69988 13.619C4.64279 13.619 4.58541 13.61 4.53014 13.5919C4.39262 13.5469 4.27873 13.4491 4.21328 13.3201L0.476188 5.94573C0.283177 5.56466 0.249942 5.13115 0.382882 4.72505C0.515823 4.31896 0.798939 3.98901 1.18001 3.79593L8.55427 0.0588371C8.82284 -0.0769394 9.15112 0.0301837 9.28733 0.298828L10.118 1.93804C10.2416 1.84822 10.3728 1.76793 10.5116 1.69754C10.9167 1.49238 11.3507 1.38831 11.8021 1.38831C12.8866 1.38831 13.8647 1.98894 14.3546 2.95567C15.0674 4.36201 14.5031 6.08602 13.0967 6.79872C12.958 6.86912 12.8155 6.92751 12.67 6.97398L13.5008 8.61327C13.6371 8.88198 13.5296 9.21019 13.2609 9.34633L10.9633 10.5108C10.7958 10.5957 10.5965 10.5884 10.4357 10.4918C10.2748 10.3951 10.1749 10.2225 10.1712 10.0349C10.1661 9.76798 10.1018 9.51076 9.98003 9.27033C9.67706 8.67239 9.07185 8.30091 8.40082 8.30091C8.12229 8.30091 7.85394 8.36535 7.60311 8.49247C7.18182 8.70599 6.86874 9.07078 6.72191 9.51978C6.57493 9.9687 6.61151 10.448 6.82503 10.8693C6.94692 11.1097 7.11622 11.3135 7.32843 11.4754C7.47759 11.5892 7.5578 11.7718 7.54064 11.9587C7.52362 12.1456 7.41155 12.3107 7.24407 12.3955L4.94641 13.5601C4.86932 13.5992 4.78467 13.619 4.69988 13.619ZM8.56082 1.2785L1.67301 4.76905C1.55185 4.83043 1.46182 4.9353 1.41964 5.06446C1.37732 5.19354 1.38779 5.3315 1.44931 5.45266L4.9398 12.3405L6.09262 11.7563C6.00288 11.6328 5.92259 11.5014 5.85212 11.3625C5.50683 10.6813 5.44756 9.90638 5.68522 9.18044C5.92288 8.45465 6.42883 7.86471 7.11018 7.51942C7.50944 7.3171 7.95589 7.21012 8.4009 7.21012C9.48522 7.21012 10.4633 7.81068 10.9532 8.7774C11.0236 8.91631 11.082 9.0587 11.1285 9.20415L12.2813 8.61996L11.3633 6.80875C11.2785 6.64127 11.2857 6.44193 11.3825 6.28107C11.4792 6.1202 11.6519 6.02035 11.8395 6.01679C12.1063 6.01177 12.3634 5.94748 12.6037 5.82574C13.4734 5.38496 13.8224 4.31867 13.3816 3.44889C13.0785 2.8508 12.4733 2.47925 11.8021 2.47925C11.5238 2.47925 11.2554 2.54369 11.0047 2.67073C10.7647 2.79233 10.5608 2.96171 10.3988 3.17406C10.2849 3.32329 10.1024 3.403 9.91531 3.38627C9.72855 3.36918 9.56347 3.25711 9.47867 3.0897L8.56082 1.2785Z" stroke="#FFD15C"/>
</svg>
