<svg width="26" height="26" viewBox="0 0 26 26" fill="none" xmlns="http://www.w3.org/2000/svg">
<path d="M23.2689 10.5983L21.6629 10.3259C21.4956 9.78577 21.2806 9.26479 21.0177 8.76771L21.964 7.44376C22.3655 6.87977 22.3034 6.11025 21.8111 5.62273L20.3868 4.1984C20.1191 3.93075 19.7654 3.78258 19.3878 3.78258C19.0915 3.78258 18.8095 3.87339 18.5705 4.04546L17.2418 4.99182C16.7256 4.71938 16.1855 4.49474 15.6263 4.32745L15.3587 2.74062C15.2439 2.05714 14.6561 1.56006 13.963 1.56006H11.9508C11.2578 1.56006 10.6699 2.05714 10.5552 2.74062L10.278 4.36569C9.74264 4.53298 9.22167 4.75284 8.72459 5.0205L7.41021 4.07413C7.17123 3.90207 6.88445 3.81126 6.58812 3.81126C6.21053 3.81126 5.85206 3.95942 5.58919 4.22708L4.16009 5.65141C3.67257 6.13893 3.60566 6.90844 4.00714 7.47244L4.96306 8.81551C4.70018 9.31737 4.48988 9.83835 4.32738 10.3784L2.74055 10.6461C2.05707 10.7608 1.56 11.3487 1.56 12.0417V14.054C1.56 14.747 2.05707 15.3349 2.74055 15.4496L4.36561 15.7268C4.5329 16.2621 4.75276 16.7831 5.02042 17.2802L4.07884 18.5898C3.67735 19.1538 3.73949 19.9233 4.23178 20.4108L5.6561 21.8352C5.92376 22.1028 6.27745 22.251 6.65503 22.251C6.95137 22.251 7.23336 22.1602 7.47234 21.9881L8.81541 21.0322C9.29814 21.2855 9.80478 21.491 10.3258 21.6535L10.5934 23.2595C10.7081 23.943 11.296 24.4401 11.989 24.4401H14.006C14.6991 24.4401 15.287 23.943 15.4017 23.2595L15.6741 21.6535C16.2142 21.4863 16.7352 21.2712 17.2323 21.0083L18.5562 21.9547C18.7952 22.1267 19.0819 22.2175 19.3783 22.2175C19.7559 22.2175 20.1096 22.0694 20.3772 21.8017L21.8015 20.3774C22.289 19.8899 22.356 19.1204 21.9545 18.5564L21.0081 17.2276C21.271 16.7258 21.4909 16.2048 21.6534 15.6695L23.2593 15.4018C23.9428 15.2871 24.4399 14.6992 24.4399 14.0062V11.994C24.4494 11.3009 23.9523 10.713 23.2689 10.5983ZM23.1589 14.0062C23.1589 14.0683 23.1159 14.1209 23.0538 14.1304L21.0464 14.465C20.793 14.508 20.5923 14.6944 20.5302 14.9382C20.3485 15.6408 20.0713 16.3147 19.6985 16.9408C19.5695 17.1607 19.579 17.4331 19.7272 17.6435L20.9077 19.3068C20.9412 19.3546 20.9364 19.4262 20.8934 19.4693L19.4691 20.8936C19.4356 20.927 19.4022 20.9318 19.3783 20.9318C19.3496 20.9318 19.3257 20.9223 19.3066 20.9079L17.6481 19.7274C17.4426 19.5792 17.1653 19.5696 16.9455 19.6987C16.3194 20.0715 15.6454 20.3487 14.9428 20.5303C14.6943 20.5925 14.5079 20.798 14.4697 21.0465L14.1303 23.054C14.1207 23.1161 14.0682 23.1591 14.006 23.1591H11.9938C11.9317 23.1591 11.8791 23.1161 11.8696 23.054L11.535 21.0465C11.492 20.7932 11.3056 20.5925 11.0618 20.5303C10.3783 20.3535 9.71875 20.0811 9.10218 19.7274C9.00181 19.67 8.8871 19.6413 8.77717 19.6413C8.64812 19.6413 8.51429 19.6796 8.40436 19.7608L6.73151 20.9509C6.70761 20.9653 6.68371 20.9748 6.65981 20.9748C6.64069 20.9748 6.60246 20.9701 6.569 20.9366L5.14468 19.5123C5.10167 19.4693 5.09689 19.4023 5.13035 19.3498L6.30612 17.7008C6.45429 17.4905 6.46385 17.2133 6.3348 16.9934C5.96199 16.3721 5.67522 15.6982 5.49359 14.9955C5.42668 14.7518 5.22594 14.5654 4.9774 14.5224L2.95564 14.1782C2.8935 14.1687 2.85049 14.1161 2.85049 14.054V12.0417C2.85049 11.9796 2.8935 11.927 2.95564 11.9175L4.94872 11.5829C5.20204 11.5399 5.40756 11.3535 5.4697 11.1049C5.64654 10.4023 5.91898 9.72364 6.28701 9.09751C6.41605 8.87764 6.40172 8.60521 6.25355 8.39968L5.06343 6.72682C5.02998 6.67902 5.03475 6.60733 5.07777 6.56431L6.50209 5.13999C6.53554 5.10653 6.569 5.10175 6.5929 5.10175C6.62158 5.10175 6.64547 5.11131 6.66459 5.12565L8.31355 6.30143C8.52385 6.4496 8.80107 6.45916 9.02093 6.33011C9.64227 5.9573 10.3162 5.67052 11.0188 5.4889C11.2626 5.42198 11.449 5.22124 11.492 4.9727L11.8361 2.95093C11.8457 2.88879 11.8982 2.84577 11.9604 2.84577H13.9726C14.0347 2.84577 14.0873 2.88879 14.0968 2.95093L14.4314 4.94402C14.4744 5.19734 14.6608 5.40287 14.9094 5.465C15.6311 5.64663 16.3194 5.92862 16.9598 6.30621C17.1797 6.43526 17.4521 6.4257 17.6624 6.27754L19.3114 5.09219C19.3353 5.07785 19.3592 5.06829 19.3831 5.06829C19.4022 5.06829 19.4404 5.07307 19.4739 5.10653L20.8982 6.53085C20.9412 6.57387 20.946 6.64079 20.9125 6.69336L19.732 8.35189C19.5838 8.55741 19.5742 8.83463 19.7033 9.05449C20.0761 9.68062 20.3533 10.3545 20.5349 11.0571C20.5971 11.3057 20.8026 11.4921 21.0511 11.5303L23.0586 11.8697C23.1207 11.8792 23.1637 11.9318 23.1637 11.994V14.0062H23.1589V14.0062Z" fill="#5FC9E1"/>
<path d="M13 8.31982C10.4176 8.31982 8.31999 10.4174 8.31999 12.9998C8.31999 15.5822 10.4176 17.6798 13 17.6798C15.5824 17.6798 17.68 15.5822 17.68 12.9998C17.68 10.4174 15.5824 8.31982 13 8.31982ZM13 16.4566C11.0927 16.4566 9.54323 14.9072 9.54323 12.9998C9.54323 11.0925 11.0927 9.54306 13 9.54306C14.9073 9.54306 16.4568 11.0925 16.4568 12.9998C16.4568 14.9072 14.9073 16.4566 13 16.4566Z" fill="#5FC9E1"/>
</svg>
