<svg width="26" height="26" viewBox="0 0 26 26" fill="none" xmlns="http://www.w3.org/2000/svg">
<g clip-path="url(#clip0_96_37)">
<path d="M7.07778 13.578H18.9222V15.8024H20.0778V12.4224H13.5778V10.1113H12.4222V12.4224H5.92223V15.8024H7.07778V13.578Z" fill="#FF4D61"/>
<path d="M10.1111 16.6113H2.88889C2.5058 16.6113 2.1384 16.7635 1.86751 17.0344C1.59662 17.3053 1.44444 17.6727 1.44444 18.0558V22.3891C1.44444 22.7722 1.59662 23.1396 1.86751 23.4105C2.1384 23.6814 2.5058 23.8336 2.88889 23.8336H10.1111C10.4942 23.8336 10.8616 23.6814 11.1325 23.4105C11.4034 23.1396 11.5556 22.7722 11.5556 22.3891V18.0558C11.5556 17.6727 11.4034 17.3053 11.1325 17.0344C10.8616 16.7635 10.4942 16.6113 10.1111 16.6113ZM2.88889 22.3891V18.0558H10.1111V22.3891H2.88889Z" fill="#FF4D61"/>
<path d="M23.1111 16.6113H15.8889C15.5058 16.6113 15.1384 16.7635 14.8675 17.0344C14.5966 17.3053 14.4444 17.6727 14.4444 18.0558V22.3891C14.4444 22.7722 14.5966 23.1396 14.8675 23.4105C15.1384 23.6814 15.5058 23.8336 15.8889 23.8336H23.1111C23.4942 23.8336 23.8616 23.6814 24.1325 23.4105C24.4034 23.1396 24.5556 22.7722 24.5556 22.3891V18.0558C24.5556 17.6727 24.4034 17.3053 24.1325 17.0344C23.8616 16.7635 23.4942 16.6113 23.1111 16.6113ZM15.8889 22.3891V18.0558H23.1111V22.3891H15.8889Z" fill="#FF4D61"/>
<path d="M9.38889 9.38873H16.6111C16.9942 9.38873 17.3616 9.23654 17.6325 8.96566C17.9034 8.69477 18.0556 8.32737 18.0556 7.94428V3.61095C18.0556 3.22786 17.9034 2.86046 17.6325 2.58957C17.3616 2.31869 16.9942 2.1665 16.6111 2.1665H9.38889C9.0058 2.1665 8.6384 2.31869 8.36751 2.58957C8.09663 2.86046 7.94444 3.22786 7.94444 3.61095V7.94428C7.94444 8.32737 8.09663 8.69477 8.36751 8.96566C8.6384 9.23654 9.0058 9.38873 9.38889 9.38873ZM9.38889 3.61095H16.6111V7.94428H9.38889V3.61095Z" fill="#FF4D61"/>
</g>
<defs>
<clipPath id="clip0_96_37">
<rect width="26" height="26" fill="white"/>
</clipPath>
</defs>
</svg>
