<svg width="26" height="26" viewBox="0 0 26 26" fill="none" xmlns="http://www.w3.org/2000/svg">
<g clip-path="url(#clip0_96_4)">
<path d="M18.6875 22.7499C18.5806 22.7505 18.4746 22.73 18.3756 22.6895C18.2766 22.6491 18.1865 22.5895 18.1106 22.5142L13.13 17.5255L10.4244 21.588C10.3382 21.72 10.2155 21.824 10.0713 21.8875C9.927 21.951 9.76739 21.9711 9.61188 21.9455C9.45955 21.9228 9.31682 21.8573 9.2003 21.7566C9.08378 21.6559 8.99827 21.5242 8.95375 21.3767L4.07875 5.12673C4.02081 4.98119 4.00617 4.82201 4.03659 4.66835C4.06702 4.51468 4.14122 4.37309 4.25026 4.26062C4.35929 4.14815 4.49851 4.0696 4.65116 4.03442C4.80381 3.99925 4.96337 4.00894 5.11063 4.06235L21.3606 8.93735C21.5081 8.98187 21.6398 9.06738 21.7405 9.1839C21.8412 9.30042 21.9067 9.44315 21.9294 9.59548C21.955 9.75099 21.9349 9.9106 21.8714 10.0549C21.8079 10.1991 21.7039 10.3218 21.5719 10.408L17.5094 13.1136L22.4981 18.0942C22.5743 18.1698 22.6347 18.2596 22.676 18.3586C22.7172 18.4576 22.7385 18.5638 22.7385 18.6711C22.7385 18.7784 22.7172 18.8846 22.676 18.9836C22.6347 19.0826 22.5743 19.1724 22.4981 19.248L19.2481 22.498C19.1014 22.6521 18.9001 22.7425 18.6875 22.7499ZM18.6875 20.7917L20.7919 18.6874L14.9744 12.878L19.24 10.0342L6.08563 6.08548L10.0344 19.2399L12.8781 14.9742L18.6875 20.7917Z" fill="#5FC9E1"/>
</g>
<defs>
<clipPath id="clip0_96_4">
<rect width="26" height="26" fill="white"/>
</clipPath>
</defs>
</svg>
