<svg width="27" height="26" viewBox="0 0 27 26" fill="none" xmlns="http://www.w3.org/2000/svg">
<path d="M7.17402 12.3956C9.17492 13.0776 11.2858 13.4059 13.4063 13.3649C15.5268 13.4056 17.6376 13.077 19.6385 12.3948C21.2003 11.8041 21.7542 11.1476 21.7542 10.7698V7.88135C21.2081 8.23594 20.6223 8.52923 20.008 8.7556C17.891 9.49067 15.6546 9.84904 13.4063 9.81347C11.1581 9.84837 8.92191 9.49058 6.80451 8.75722C6.18989 8.53084 5.60402 8.23697 5.05835 7.88135V10.7657C5.05835 11.1508 5.61387 11.8041 7.17402 12.3956Z" fill="#FFD15C"/>
<path d="M7.17402 17.8431C7.88087 18.1045 8.60978 18.3059 9.35254 18.4451C10.6882 18.6957 12.0459 18.819 13.4063 18.8132C14.7666 18.8192 16.1243 18.6962 17.46 18.4459C18.2027 18.3067 18.9316 18.1053 19.6385 17.8439C21.2003 17.2532 21.7542 16.5967 21.7542 16.2189V13.4645C21.3028 13.7279 20.8284 13.9522 20.3364 14.1348C18.1125 14.8984 15.7651 15.268 13.4063 15.226C11.0472 15.2667 8.69975 14.8957 6.47606 14.1308C5.98432 13.9477 5.50996 13.7234 5.05835 13.4604V16.2173C5.05835 16.5959 5.61387 17.25 7.17402 17.8431Z" fill="#FFD15C"/>
<path d="M13.4063 24.3752C18.0147 24.3752 21.7542 22.9582 21.7542 21.2113V18.9062C21.3436 19.1463 20.9134 19.3533 20.468 19.5254L20.3364 19.5766C18.1129 20.3424 15.7655 20.7142 13.4063 20.6743C11.0469 20.7153 8.69928 20.3435 6.47606 19.5766C6.43081 19.5603 6.38724 19.5416 6.34451 19.5254C5.89911 19.3533 5.46896 19.1463 5.05835 18.9062V21.2113C5.05835 22.9582 8.79786 24.3752 13.4063 24.3752Z" fill="#FFD15C"/>
<path d="M13.4063 7.95275C18.0167 7.95275 21.7542 6.53623 21.7542 4.78887C21.7542 3.04151 18.0167 1.625 13.4063 1.625C8.79583 1.625 5.05835 3.04151 5.05835 4.78887C5.05835 6.53623 8.79583 7.95275 13.4063 7.95275Z" fill="#FFD15C"/>
</svg>
