<svg width="26" height="26" viewBox="0 0 26 26" fill="none" xmlns="http://www.w3.org/2000/svg">
<path d="M25.3859 10.3639H21.9092V7.78705C21.9092 7.44825 21.6345 7.17351 21.2957 7.17351H12.9803L11.5099 4.04444C11.4088 3.82931 11.1924 3.69189 10.9546 3.69189H0.613542C0.274745 3.69189 0 3.96664 0 4.30544V21.694C0 22.0287 0.27283 22.3076 0.61389 22.3076C0.614238 22.3076 0.614587 22.3075 0.614935 22.3075H21.2957C21.55 22.3075 21.778 22.1505 21.8689 21.9128L25.9592 11.1963C26.1124 10.795 25.8153 10.3639 25.3859 10.3639ZM1.22708 4.91907H10.565L12.0354 8.04813C12.1366 8.26326 12.3529 8.40068 12.5908 8.40068H20.6821V10.364H4.70382C4.44944 10.364 4.22134 10.5211 4.13057 10.7588L1.22708 18.366V4.91907ZM20.8731 21.0805H1.50444L5.12634 11.591C6.01036 11.591 23.6113 11.591 24.495 11.591L20.8731 21.0805Z" fill="#FF4D61"/>
</svg>
