<svg width="26" height="26" viewBox="0 0 26 26" fill="none" xmlns="http://www.w3.org/2000/svg">
<path d="M7.54914 6.93306C7.54914 6.39079 7.76456 5.87072 8.14801 5.48727C8.53145 5.10382 9.05152 4.88841 9.5938 4.88841C9.86494 4.88841 10.125 4.7807 10.3167 4.58897C10.5084 4.39725 10.6161 4.13722 10.6161 3.86608C10.6161 3.59494 10.5084 3.33491 10.3167 3.14318C10.125 2.95146 9.86494 2.84375 9.5938 2.84375C8.50924 2.84375 7.46911 3.27459 6.70222 4.04148C5.93532 4.80838 5.50448 5.84851 5.50448 6.93306V10C5.50448 10.5423 5.28907 11.0624 4.90562 11.4458C4.52217 11.8293 4.0021 12.0447 3.45983 12.0447C3.18869 12.0447 2.92866 12.1524 2.73693 12.3441C2.54521 12.5359 2.4375 12.7959 2.4375 13.067C2.4375 13.3382 2.54521 13.5982 2.73693 13.7899C2.92866 13.9817 3.18869 14.0894 3.45983 14.0894C4.0021 14.0894 4.52217 14.3048 4.90562 14.6882C5.28907 15.0717 5.50448 15.5917 5.50448 16.134V19.201C5.50448 20.2856 5.93532 21.3257 6.70222 22.0926C7.46911 22.8595 8.50924 23.2903 9.5938 23.2903C9.86494 23.2903 10.125 23.1826 10.3167 22.9909C10.5084 22.7992 10.6161 22.5391 10.6161 22.268C10.6161 21.9968 10.5084 21.7368 10.3167 21.5451C10.125 21.3534 9.86494 21.2457 9.5938 21.2457C9.05152 21.2457 8.53145 21.0302 8.14801 20.6468C7.76456 20.2633 7.54914 19.7433 7.54914 19.201V16.134C7.54586 15.5518 7.4183 14.9771 7.17499 14.4481C6.93169 13.9192 6.57826 13.4484 6.13833 13.067C6.57826 12.6857 6.93169 12.2148 7.17499 11.6859C7.4183 11.157 7.54586 10.5822 7.54914 10V6.93306ZM22.7563 12.0447C22.214 12.0447 21.6939 11.8293 21.3105 11.4458C20.927 11.0624 20.7116 10.5423 20.7116 10V6.93306C20.7116 5.84851 20.2808 4.80838 19.5139 4.04148C18.747 3.27459 17.7069 2.84375 16.6223 2.84375C16.3512 2.84375 16.0911 2.95146 15.8994 3.14318C15.7077 3.33491 15.6 3.59494 15.6 3.86608C15.6 4.13722 15.7077 4.39725 15.8994 4.58897C16.0911 4.7807 16.3512 4.88841 16.6223 4.88841C17.1646 4.88841 17.6846 5.10382 18.0681 5.48727C18.4515 5.87072 18.667 6.39079 18.667 6.93306V10C18.6702 10.5822 18.7978 11.157 19.0411 11.6859C19.2844 12.2148 19.6378 12.6857 20.0778 13.067C19.6378 13.4484 19.2844 13.9192 19.0411 14.4481C18.7978 14.9771 18.6702 15.5518 18.667 16.134V19.201C18.667 19.7433 18.4515 20.2633 18.0681 20.6468C17.6846 21.0302 17.1646 21.2457 16.6223 21.2457C16.3512 21.2457 16.0911 21.3534 15.8994 21.5451C15.7077 21.7368 15.6 21.9968 15.6 22.268C15.6 22.5391 15.7077 22.7992 15.8994 22.9909C16.0911 23.1826 16.3512 23.2903 16.6223 23.2903C17.7069 23.2903 18.747 22.8595 19.5139 22.0926C20.2808 21.3257 20.7116 20.2856 20.7116 19.201V16.134C20.7116 15.5917 20.927 15.0717 21.3105 14.6882C21.6939 14.3048 22.214 14.0894 22.7563 14.0894C23.0274 14.0894 23.2874 13.9817 23.4792 13.7899C23.6709 13.5982 23.7786 13.3382 23.7786 13.067C23.7786 12.7959 23.6709 12.5359 23.4792 12.3441C23.2874 12.1524 23.0274 12.0447 22.7563 12.0447Z" fill="#FFD15C"/>
</svg>
