<svg width="26" height="26" viewBox="0 0 26 26" fill="none" xmlns="http://www.w3.org/2000/svg">
<g clip-path="url(#clip0_98_55)">
<path d="M11.1197 13.0976L7.02493 15.5343L2.93272 13.0976L7.02493 10.6628L11.1197 13.0976Z" stroke="#5FC9E1" stroke-width="3"/>
<mask id="path-2-inside-1_98_55" fill="white">
<path d="M6.81718 5.6875V7.11852H6.09375L7.11115 8.125L8.125 7.11852H7.40508V5.6875H6.81718Z"/>
</mask>
<path d="M6.81718 5.6875V2.6875H3.81718V5.6875H6.81718ZM6.81718 7.11852V10.1185H9.81718V7.11852H6.81718ZM6.09375 7.11852V4.11852H-1.20451L3.98391 9.25125L6.09375 7.11852ZM7.11115 8.125L5.00131 10.2577L7.11484 12.3486L9.22472 10.254L7.11115 8.125ZM8.125 7.11852L10.2386 9.24756L15.4052 4.11852H8.125V7.11852ZM7.40508 7.11852H4.40508V10.1185H7.40508V7.11852ZM7.40508 5.6875H10.4051V2.6875H7.40508V5.6875ZM3.81718 5.6875V7.11852H9.81718V5.6875H3.81718ZM6.81718 4.11852H6.09375V10.1185H6.81718V4.11852ZM3.98391 9.25125L5.00131 10.2577L9.22099 5.99227L8.20359 4.98579L3.98391 9.25125ZM9.22472 10.254L10.2386 9.24756L6.01143 4.98948L4.99758 5.99596L9.22472 10.254ZM8.125 4.11852H7.40508V10.1185H8.125V4.11852ZM10.4051 7.11852V5.6875H4.40508V7.11852H10.4051ZM7.40508 2.6875H6.81718V8.6875H7.40508V2.6875Z" fill="#5FC9E1" mask="url(#path-2-inside-1_98_55)"/>
<mask id="path-4-inside-2_98_55" fill="white">
<path d="M6.81718 17.875V19.5463H6.09375L7.11115 20.7188L8.125 19.5463H7.40508V17.875H6.81718Z"/>
</mask>
<path d="M6.81718 17.875V14.875H3.81718V17.875H6.81718ZM6.81718 19.5463V22.5463H9.81718V19.5463H6.81718ZM6.09375 19.5463V16.5463H-0.481513L3.8279 21.5125L6.09375 19.5463ZM7.11115 20.7188L4.8453 22.6849L7.11511 25.3007L9.3804 22.681L7.11115 20.7188ZM8.125 19.5463L10.3943 21.5086L14.6852 16.5463H8.125V19.5463ZM7.40508 19.5463H4.40508V22.5463H7.40508V19.5463ZM7.40508 17.875H10.4051V14.875H7.40508V17.875ZM3.81718 17.875V19.5463H9.81718V17.875H3.81718ZM6.81718 16.5463H6.09375V22.5463H6.81718V16.5463ZM3.8279 21.5125L4.8453 22.6849L9.377 18.7526L8.3596 17.5801L3.8279 21.5125ZM9.3804 22.681L10.3943 21.5086L5.85575 17.584L4.8419 18.7565L9.3804 22.681ZM8.125 16.5463H7.40508V22.5463H8.125V16.5463ZM10.4051 19.5463V17.875H4.40508V19.5463H10.4051ZM7.40508 14.875H6.81718V20.875H7.40508V14.875Z" fill="#5FC9E1" mask="url(#path-4-inside-2_98_55)"/>
<mask id="path-6-inside-3_98_55" fill="white">
<path d="M17.0879 12.6443L14.625 12.6454V13.3535L17.0879 13.3514V14.2188L18.2812 12.9984L17.0879 11.7812V12.6443Z"/>
</mask>
<path d="M17.0879 12.6443L17.0893 15.6443L20.0879 15.643V12.6443H17.0879ZM14.625 12.6454L14.6237 9.64539L11.625 9.6467V12.6454H14.625ZM14.625 13.3535H11.625V16.3561L14.6276 16.3535L14.625 13.3535ZM17.0879 13.3514H20.0879V10.3489L17.0854 10.3514L17.0879 13.3514ZM17.0879 14.2188H14.0879V21.5777L19.2329 16.3162L17.0879 14.2188ZM18.2812 12.9984L20.4262 15.0958L22.4798 12.9957L20.4235 10.8982L18.2812 12.9984ZM17.0879 11.7812L19.2302 9.68103L14.0879 4.436V11.7812H17.0879ZM17.0866 9.64431L14.6237 9.64539L14.6263 15.6454L17.0893 15.6443L17.0866 9.64431ZM11.625 12.6454V13.3535H17.625V12.6454H11.625ZM14.6276 16.3535L17.0905 16.3514L17.0854 10.3514L14.6224 10.3535L14.6276 16.3535ZM14.0879 13.3514V14.2188H20.0879V13.3514H14.0879ZM19.2329 16.3162L20.4262 15.0958L16.1363 10.901L14.943 12.1213L19.2329 16.3162ZM20.4235 10.8982L19.2302 9.68103L14.9457 13.8815L16.139 15.0986L20.4235 10.8982ZM14.0879 11.7812V12.6443H20.0879V11.7812H14.0879Z" fill="#5FC9E1" mask="url(#path-6-inside-3_98_55)"/>
<path d="M9.15372 22.8247L8.64807 23.8202H4.0135L4.51831 22.8247H9.15372Z" stroke="#5FC9E1" stroke-width="3"/>
<path d="M20.7884 12.3267H23.7554C24.1666 12.3273 24.5 12.6619 24.5 13.0715C24.5 13.4873 24.1639 13.8197 23.7563 13.8197H20.7884C20.3805 13.8197 20.0436 13.4859 20.0436 13.0715C20.0436 12.6625 20.3797 12.3267 20.7884 12.3267Z" stroke="#5FC9E1" stroke-width="3"/>
<path d="M9.43576 3.67213H4.82556C4.41215 3.67213 4.07772 3.33528 4.07736 2.92794C4.07809 2.51517 4.4144 2.18018 4.82556 2.18018H9.43576C9.84998 2.18018 10.1851 2.51694 10.1851 2.92729C10.1851 3.33377 9.8505 3.67213 9.43576 3.67213Z" stroke="#5FC9E1" stroke-width="3"/>
</g>
<defs>
<clipPath id="clip0_98_55">
<rect width="26" height="26" fill="white"/>
</clipPath>
</defs>
</svg>
