<svg width="183" height="180" viewBox="0 0 183 180" fill="none" xmlns="http://www.w3.org/2000/svg">
<ellipse cx="91.5" cy="89.7857" rx="91.5" ry="89.7857" fill="#454360"/>
<path d="M149.93 126.817C148.265 124.356 121.769 113.931 121.769 113.931L112.069 110.167L108.015 60.3615H74.6421L70.6606 110.239L60.96 114.004C60.96 114.004 34.537 124.428 32.7996 126.89C31.1346 129.351 30.4106 137.676 30.4106 137.676V151.503H152.391V137.604C152.319 137.676 151.667 129.279 149.93 126.817V126.817Z" fill="#F4BAA3"/>
<path d="M72.1807 100.394C80.361 110.601 87.3106 110.384 87.3106 110.384C87.3106 110.384 94.2602 110.601 102.441 100.322C105.626 96.3402 108.232 91.9967 110.259 87.9428L108.015 60.3615H74.642L71.5292 99.5979C71.7464 99.8151 71.9635 100.105 72.1807 100.394Z" fill="#D58464"/>
<path d="M152.608 151.503C152.536 146.87 152.536 142.237 152.536 137.604L152.319 137.531C152.319 137.531 152.391 137.459 152.463 137.531C152.536 137.531 152.536 137.604 152.536 137.604V137.314L152.463 136.952L152.391 136.3L152.246 134.925C152.102 133.984 151.957 133.115 151.812 132.174C151.667 131.233 151.45 130.364 151.16 129.423C150.871 128.555 150.581 127.613 150.075 126.817C149.495 126.166 148.699 125.731 147.975 125.297C147.251 124.863 146.455 124.501 145.659 124.066C144.138 123.27 142.546 122.546 140.953 121.822C137.768 120.374 134.655 118.999 131.47 117.696C128.285 116.32 125.099 115.017 121.914 113.714L112.503 109.95L111.634 97.7156C111.345 93.5893 110.983 89.3905 110.693 85.2642L109.752 72.8128L108.666 60.289L108.594 59.7098H108.015C102.441 59.7098 96.8665 59.7822 91.2923 59.7822L74.5698 59.927H74.2078V60.289L73.3391 72.7404L72.398 85.1918C71.8189 93.4445 71.095 101.697 70.371 109.95C66.3171 111.47 62.2631 112.99 58.2816 114.583C54.2276 116.176 50.1737 117.841 46.1197 119.578C44.0928 120.447 42.0658 121.315 40.1112 122.184C38.0842 123.125 36.1296 123.994 34.1751 125.152C33.6683 125.442 33.234 125.731 32.7272 126.166C32.5824 126.238 32.4377 126.455 32.3653 126.6L32.1481 127.034C32.0033 127.324 31.8585 127.541 31.7861 127.831C31.3518 128.917 31.0622 130.002 30.845 131.088C30.4107 133.26 30.0487 135.432 29.8315 137.676L29.7592 151.503V152.154H30.4107L60.8877 152.227H91.4371C101.572 152.227 111.779 152.154 121.914 152.082L152.391 151.72H152.608V151.503ZM91.4371 150.779L60.9601 150.706L31.1346 150.779L31.0622 137.676C31.2794 135.504 31.4966 133.405 31.9309 131.233C32.1481 130.22 32.3653 129.134 32.7272 128.193C32.7996 127.975 32.9444 127.686 33.0168 127.541L33.1616 127.252L33.3788 127.034C33.7407 126.745 34.1751 126.455 34.6818 126.166C36.4916 125.08 38.5186 124.139 40.4732 123.198C42.4277 122.256 44.4547 121.388 46.4093 120.519C50.3909 118.782 54.4448 117.044 58.4988 115.379C62.5527 113.714 66.6067 112.122 70.733 110.529L70.8778 110.457V110.312C71.5293 101.987 72.1084 93.6616 72.8324 85.409L73.8458 72.9576L74.9317 60.8681L91.2923 61.0129C96.6493 61.0853 102.006 61.0853 107.436 61.0853L108.377 72.9576L109.463 85.409C109.825 89.5353 110.187 93.734 110.549 97.8604L111.707 110.312V110.529L111.924 110.601L121.625 114.221C124.81 115.452 128.067 116.682 131.253 117.985C134.438 119.288 137.623 120.664 140.808 122.039C142.401 122.763 143.921 123.487 145.514 124.211C146.31 124.573 147.034 125.007 147.83 125.369C148.554 125.804 149.351 126.238 149.93 126.817C150.437 127.613 150.726 128.482 150.943 129.351C151.16 130.22 151.378 131.161 151.522 132.029C151.667 132.97 151.812 133.839 151.957 134.78L152.102 136.156L152.174 136.807L152.246 137.169V137.459C152.246 142.019 152.246 146.58 152.174 151.141L121.914 150.779C111.779 150.851 101.572 150.779 91.4371 150.779V150.779Z" fill="#C66C49"/>
<path d="M109.607 96.0508C109.607 96.0508 108.304 112.701 103.02 119.868C103.02 119.868 108.739 101.77 109.607 96.0508ZM84.6322 107.633C84.6322 107.633 88.2518 113.352 92.9573 114.945C92.9573 114.945 86.08 116.538 84.6322 107.633ZM72.1808 94.3134C77.031 112.846 77.031 112.846 78.3341 116.538C78.3341 116.538 78.6237 107.416 72.1808 94.3134Z" fill="#D58464"/>
<path d="M69.647 101.625L68.3439 102.276C68.3439 102.276 67.3305 104.376 66.6065 105.968C65.8826 107.561 63.2041 110.24 63.2041 110.24C63.2041 110.24 62.7698 111.832 62.7698 112.339C62.7698 112.339 53.8656 115.379 51.2595 116.393C48.6533 117.406 37.3602 120.954 35.84 121.026C34.3197 121.098 32.148 122.329 32.148 122.329C32.148 122.329 29.9762 123.56 29.3247 125.587C28.6008 127.614 27.4425 150.489 27.4425 152.227H154.78C154.78 152.227 153.477 128.772 152.246 126.962C151.812 126.311 152.101 125.08 147.975 123.27C143.849 121.46 135.668 118.203 132.918 117.117C130.167 116.031 118.946 111.905 118.946 111.905C118.946 111.905 118.801 110.24 117.281 109.443C115.761 108.647 113.444 102.349 113.444 102.349L112.503 101.408C112.503 101.408 112.793 105.1 112.648 108.357C112.503 111.615 109.245 116.827 106.929 118.347C104.612 119.868 100.414 122.474 98.7486 123.125C97.0835 123.777 96.7216 125.587 95.9977 127.396C95.2737 129.206 94.1155 131.668 94.1155 131.668C94.1155 131.668 91.5094 128.41 90.2787 126.166C89.048 123.849 87.383 122.184 84.2702 122.474C81.2297 122.763 80.2886 121.822 79.2027 121.243C78.1169 120.592 71.5292 110.312 70.5881 107.706C69.7918 105.1 69.647 101.625 69.647 101.625V101.625Z" fill="#61AEC0"/>
<path d="M155.359 152.227C155.069 147.232 154.78 142.237 154.418 137.242C154.201 134.708 153.984 132.247 153.622 129.713C153.549 129.061 153.404 128.482 153.26 127.831C153.187 127.469 153.115 127.179 152.898 126.745L152.825 126.6L152.753 126.455L152.536 126.021C152.174 125.297 151.667 124.79 151.16 124.356C150.581 123.921 150.074 123.632 149.495 123.27C148.337 122.618 147.179 122.256 146.02 121.75L142.546 120.302L135.596 117.406C131.108 115.596 124.158 113.497 119.742 111.398C119.67 110.963 119.453 110.601 119.235 110.239C118.946 109.733 118.511 109.298 118.005 109.009L117.788 108.936C117.715 108.864 117.643 108.864 117.643 108.864C117.57 108.792 117.57 108.792 117.498 108.792C117.353 108.647 117.281 108.574 117.136 108.357C116.846 108.068 116.629 107.633 116.412 107.271C115.543 105.679 114.819 103.941 114.168 102.276L114.096 102.131L114.023 102.059L113.082 101.118L111.707 99.7426L111.851 101.77C111.996 103.435 112.069 105.1 112.069 106.765V108.647L111.996 109.226C111.851 109.95 111.634 110.746 111.345 111.47C110.766 112.99 109.897 114.438 108.956 115.741C108.449 116.393 107.942 117.044 107.363 117.551C107.074 117.841 106.784 118.058 106.494 118.275C106.205 118.492 105.843 118.709 105.481 118.854C102.513 120.374 101.934 121.605 98.8209 122.836C98.3865 122.98 97.8798 123.27 97.5178 123.632C97.1558 123.994 96.8663 124.428 96.6491 124.79C96.2147 125.586 95.9976 126.455 95.708 127.179L95.0565 128.699C94.6945 129.423 94.4049 130.147 94.043 130.871C93.1743 129.713 92.2332 128.555 91.4369 127.324C91.2197 126.962 91.0025 126.6 90.7854 126.166C90.5682 125.731 90.2786 125.369 89.989 124.935C89.4099 124.139 88.686 123.415 87.8173 122.98C86.9486 122.474 85.9351 122.329 84.9216 122.329C84.5596 122.401 82.3879 122.401 79.3474 121.098C78.9855 120.953 78.2615 119.723 77.6824 118.999C77.1757 118.275 76.5965 117.479 76.0898 116.755C75.0763 115.234 74.0628 113.714 73.1217 112.122C72.615 111.325 72.1806 110.529 71.7463 109.733C71.3119 108.936 70.95 108.212 70.7328 107.271C70.8052 106.113 71.0224 103.941 71.0947 103.145C71.0947 103.145 71.1671 101.552 71.1671 101.408C70.2984 101.335 68.8506 102.204 68.3439 102.421L67.258 104.593C66.896 105.317 66.6064 106.041 66.1721 106.692C65.7377 107.344 65.231 107.995 64.7243 108.574C64.2175 109.154 63.6384 109.733 63.0592 110.312L62.9869 110.384V110.457C62.9145 110.819 62.8421 111.18 62.6973 111.47C62.6249 111.76 62.5525 112.049 62.5525 112.411C60.236 113.425 55.7477 114.366 53.4311 115.379C51.1146 116.393 48.6532 117.117 46.1919 117.913C43.7306 118.637 41.2693 119.433 38.8803 120.085C38.2288 120.229 37.6497 120.447 37.0705 120.591L36.2018 120.809C36.0571 120.809 35.9847 120.881 35.7675 120.881C35.6227 120.881 35.4055 120.953 35.2607 120.953C34.6092 121.098 33.9577 121.315 33.3062 121.533L32.4375 121.967L32.0031 122.184C31.7859 122.256 31.7135 122.401 31.5688 122.474C30.4829 123.27 29.4694 124.283 28.9626 125.659C28.8179 126.021 28.7455 126.383 28.7455 126.672L28.6007 127.613L28.3835 129.568C28.1663 132.102 27.9492 134.708 27.8044 137.242L27.2976 144.915C27.1528 147.521 27.0081 149.983 26.9357 152.589V153.24H27.5872L43.5134 153.168L59.4396 153.023L75.3659 152.878L91.2921 152.806C96.5767 152.733 101.934 152.806 107.218 152.806C112.503 152.806 117.86 152.806 123.145 152.878L154.997 153.095H155.576L155.359 152.227V152.227ZM105.988 119.723C106.35 119.506 106.784 119.288 107.146 119.071C107.508 118.854 107.942 118.564 108.232 118.202C108.883 117.551 109.462 116.899 109.969 116.176C110.983 114.8 111.851 113.28 112.575 111.615C112.865 110.819 113.154 109.95 113.299 109.009L113.372 108.285V106.33C113.372 105.606 113.372 104.882 113.299 104.158C113.806 105.389 114.313 106.547 114.964 107.706C115.181 108.14 115.471 108.574 115.761 109.009C115.905 109.226 116.123 109.443 116.34 109.66C116.412 109.733 116.629 109.877 116.774 109.95L117.064 110.095C117.353 110.312 117.57 110.529 117.788 110.819C117.932 111.108 118.077 111.542 118.149 111.832L118.222 112.266V112.339C118.584 114.293 119.018 116.176 119.453 118.13C119.887 120.012 120.466 121.967 121.045 123.849L122.71 129.496L123.507 132.319C123.651 132.898 123.868 133.55 124.013 134.129C123 133.912 122.059 133.622 121.19 133.115C120.611 132.753 120.176 132.391 119.525 131.885C118.946 131.45 118.367 130.943 117.715 130.582C116.484 129.713 115.181 128.989 113.806 128.41L112.793 127.975C112.503 127.831 112.141 127.686 111.851 127.541C111.272 127.179 110.693 126.817 110.114 126.383C109.535 125.948 109.028 125.514 108.521 125.007C108.304 124.718 108.015 124.501 107.87 124.211C107.725 124.066 107.653 123.921 107.58 123.777L107.435 123.559L107.218 123.27C106.132 122.039 104.612 121.46 103.164 121.243C102.947 121.171 102.658 121.171 102.44 121.171C103.744 120.736 104.902 120.229 105.988 119.723V119.723ZM96.7215 127.251C97.373 125.659 97.0834 123.921 101.717 121.822C102.368 121.75 102.73 121.822 103.382 121.967C104.685 122.256 105.915 122.908 106.639 123.921L106.784 124.066L106.929 124.283C107.001 124.356 107.074 124.501 107.146 124.573C107.146 124.573 105.843 125.731 102.875 126.89C101.644 127.251 100.486 127.541 99.2552 127.903C98.1693 128.12 97.1558 128.41 96.07 128.555L96.7215 127.251V127.251ZM93.4639 131.667C92.5952 133.043 91.6541 134.491 90.5682 135.721L90.2786 136.011C89.0479 133.55 86.5866 129.568 85.7903 128.265C86.1523 128.337 86.4418 128.337 86.8038 128.337C88.1792 128.41 89.5547 128.41 90.9301 128.265C91.7988 129.423 92.5952 130.582 93.4639 131.667ZM84.9216 122.908C85.7903 122.908 86.5866 123.053 87.3105 123.487C88.0345 123.921 88.6136 124.501 89.1203 125.225C89.3375 125.586 89.6271 125.948 89.7719 126.383C89.989 126.817 90.2062 127.179 90.4958 127.613L90.9301 128.265C89.5547 128.193 88.1792 128.048 86.8762 127.831C85.4283 127.613 83.9805 127.396 82.5327 127.107C81.0848 126.817 77.7548 125.514 76.4518 125.152C76.8137 124.718 77.1757 124.356 77.5376 123.921C77.972 123.342 78.3339 122.908 78.8407 122.691C79.3474 122.474 79.999 122.474 80.5781 122.474C80.6505 122.474 84.4873 122.908 84.9216 122.908V122.908ZM63.4936 110.384C64.0727 109.805 64.5795 109.226 65.0862 108.647C65.593 107.995 66.0997 107.416 66.5341 106.692C66.9684 105.968 67.1856 105.244 67.5475 104.52L68.4886 102.349C68.8506 102.131 69.2126 101.914 69.6469 101.697V102.276L69.7193 102.928C69.7917 103.362 69.7917 103.869 69.8641 104.303C70.0089 105.244 70.1537 106.113 70.3708 107.054C70.588 107.923 71.0224 108.792 71.4567 109.66C71.8911 110.457 72.3254 111.253 72.7598 112.122C73.7009 113.714 74.642 115.307 75.583 116.827C76.0898 117.623 76.5965 118.347 77.1033 119.144C77.6824 119.94 78.1168 120.664 78.8407 121.388C79.0579 121.605 79.275 121.75 79.4922 121.822C79.4922 121.822 79.5646 121.822 79.5646 121.894C79.2026 121.894 78.9131 121.967 78.5511 122.039C78.1892 122.184 77.8996 122.401 77.61 122.618C77.3205 122.908 77.1757 123.125 76.9585 123.342L75.583 124.718C74.642 125.659 73.7009 126.528 72.7598 127.396C71.8187 128.265 70.8052 129.134 69.8641 130.002C68.923 130.799 67.8371 131.523 66.7512 132.247C64.9414 133.405 63.0592 134.491 61.1771 135.504C61.539 131.523 61.901 127.541 62.1905 123.559L62.6973 116.972C62.8421 115.524 62.9145 114.149 63.0592 112.701L63.204 112.628V112.484C63.204 112.194 63.2764 111.832 63.3488 111.47C63.3488 111.036 63.4212 110.674 63.4936 110.384V110.384ZM59.2949 151.792L43.3686 151.648L28.0939 151.575C28.3111 146.725 28.5283 141.802 28.8179 136.952C28.9626 134.418 29.1074 131.812 29.397 129.278C29.4694 128.627 29.5418 127.975 29.6142 127.396L29.759 126.455C29.759 126.31 29.8313 126.166 29.8313 126.021C29.9037 125.876 29.9037 125.731 29.9037 125.586C30.2657 124.573 31.1344 123.632 32.1479 122.98C32.2927 122.908 32.4375 122.836 32.5098 122.763L32.9442 122.546C33.2338 122.401 33.5233 122.256 33.8129 122.184C34.392 121.967 34.9712 121.75 35.5503 121.605C35.6951 121.605 35.8399 121.533 35.9847 121.533L36.4914 121.46C36.8534 121.388 37.1429 121.315 37.4325 121.243C38.084 121.098 38.6632 120.881 39.3147 120.736C41.776 120.012 44.2373 119.216 46.6263 118.42C49.0152 117.623 51.5489 116.827 53.8655 115.741C56.1096 114.728 60.5255 113.714 62.7697 112.701C62.5525 114.076 62.3353 115.379 62.1181 116.755C61.7562 118.926 61.3942 121.171 61.1771 123.342C60.5979 127.758 60.1636 132.174 59.6568 136.59L59.512 137.893L60.6703 137.314C63.0592 136.156 65.3034 134.853 67.5475 133.405C68.6334 132.681 69.7193 131.885 70.7328 130.943C71.6739 130.075 72.6874 129.134 73.5561 128.193C74.4972 127.251 75.4383 126.31 76.307 125.369L76.5241 125.152C79.1303 126.383 79.7094 127.179 82.4603 127.758C83.329 127.903 84.1977 128.048 84.994 128.193L84.9216 128.265C84.994 128.337 88.3964 133.839 89.7719 136.662C89.6995 136.735 89.6271 136.807 89.6271 136.952C89.3375 137.459 89.1927 138.038 89.1203 138.545C89.0479 139.558 89.1927 140.499 89.2651 141.368L89.6271 144.046L89.9167 146.725C90.0614 148.462 90.2786 150.272 90.5682 152.01L75.2211 151.937L59.2949 151.792V151.792ZM90.6406 152.01C90.7854 150.2 90.7854 148.462 90.7854 146.653C90.8577 144.843 90.7854 142.961 90.5682 141.151C90.4958 140.282 90.4234 139.341 90.4958 138.545C90.5682 138.183 90.6406 137.821 90.7854 137.531C90.8577 137.386 91.0025 137.242 91.0749 137.097L91.2921 136.88L91.5817 136.59C92.2332 135.866 92.8123 135.07 93.3191 134.346C93.8258 133.55 94.2602 132.753 94.7669 131.957V131.885L95.4184 130.147L96.07 128.699C97.1558 128.772 98.3141 128.627 99.4 128.482C99.9791 128.41 100.486 128.265 100.993 128.193C99.9067 130.075 96.2871 136.228 95.346 137.531C94.405 138.834 94.5497 139.92 94.6945 141.151C94.6945 141.44 94.7669 141.73 94.7669 142.092C94.8393 143.612 95.346 150.417 95.4908 151.937H91.0749L90.6406 152.01V152.01ZM107.074 152.01H96.2871C96.1424 150.562 95.6356 143.612 95.5632 142.092C95.5632 141.73 95.4908 141.44 95.4908 141.151C95.346 139.92 95.2737 139.051 96.07 137.965C97.1558 136.445 100.631 130.364 100.848 130.075L102.006 128.048C102.73 127.758 103.309 127.469 104.467 126.962C106.06 126.093 106.494 125.659 107.291 124.79C107.291 124.863 107.363 124.863 107.363 124.863C107.58 125.152 107.87 125.442 108.087 125.731C108.594 126.31 109.101 126.817 109.68 127.324C110.259 127.831 110.838 128.265 111.562 128.627C111.851 128.844 112.213 128.989 112.575 129.134L113.589 129.568C114.892 130.147 116.05 130.871 117.208 131.667C117.788 132.102 118.367 132.464 118.873 132.97C119.38 133.405 120.032 133.984 120.683 134.346C122.059 135.142 123.507 135.577 125.099 135.721L126.04 135.794L125.823 134.853C125.606 133.839 125.316 132.898 125.027 131.957L124.158 129.134L122.348 123.487C121.769 121.605 121.118 119.795 120.538 117.913C120.032 116.176 119.525 114.438 119.091 112.773C121.19 113.787 125.895 114.8 127.995 115.741C129.153 116.248 130.239 116.755 131.47 117.261L134.944 118.709L141.894 121.533L145.369 122.908C146.527 123.415 147.685 123.777 148.771 124.356C149.785 124.935 150.871 125.586 151.305 126.455C151.377 126.6 151.377 126.672 151.45 126.89C151.45 126.962 151.522 127.034 151.595 127.179C151.667 127.251 151.739 127.396 151.739 127.396C151.812 127.469 151.884 127.831 151.957 128.12C152.101 128.699 152.174 129.278 152.319 129.93C152.68 132.391 152.898 134.853 153.115 137.314C153.549 142.092 153.911 146.87 154.201 151.72L122.927 151.937C117.715 151.937 112.358 151.937 107.074 152.01V152.01ZM99.9067 124.718C100.486 124.718 100.993 125.225 100.993 125.804C100.993 126.383 100.486 126.89 99.9067 126.89C99.3276 126.89 98.8209 126.383 98.8209 125.804C98.8209 125.225 99.3276 124.718 99.9067 124.718ZM92.5952 138.038C93.1743 138.038 93.681 138.545 93.681 139.124C93.681 139.703 93.1743 140.21 92.5952 140.21C92.016 140.21 91.5093 139.703 91.5093 139.124C91.5093 138.545 92.016 138.038 92.5952 138.038ZM39.1699 134.78C39.0251 133.912 38.8079 132.898 38.5184 132.029C38.2288 131.161 37.8669 130.292 37.5773 129.423C36.8534 127.758 36.1294 126.093 35.3331 124.428L36.2018 127.034L37.0705 129.64L37.9392 132.247C38.2288 133.115 38.3736 133.984 38.5184 134.853C38.8079 136.662 38.9527 138.472 39.1699 140.282L39.4595 143.033C39.6043 143.902 39.6767 144.843 39.8214 145.784C39.8214 143.974 39.8214 142.092 39.6766 140.282C39.5319 138.4 39.3871 136.59 39.1699 134.78V134.78ZM148.12 128.12C147.758 128.555 147.468 129.061 147.179 129.496C146.6 130.437 146.093 131.45 145.586 132.464C144.573 134.491 143.704 136.59 142.98 138.689V138.834C142.835 140.644 142.763 142.454 142.69 144.336C142.618 146.146 142.546 147.956 142.546 149.838C142.835 148.028 143.052 146.218 143.197 144.408C143.414 142.599 143.559 140.789 143.704 138.979C144.5 136.88 145.296 134.853 146.165 132.753C146.6 131.74 147.034 130.726 147.541 129.713C148.047 128.699 148.554 127.686 149.35 126.962C148.916 127.251 148.482 127.686 148.12 128.12V128.12Z" fill="#318CA1"/>
<path d="M117.281 112.049C117.208 115.09 117.86 118.202 118.512 121.171C118.729 122.112 121.769 131.161 121.697 131.161C121.697 131.161 116.774 126.962 115.833 126.383C113.01 124.645 109.897 123.27 106.929 121.894C106.712 121.822 106.567 122.112 106.784 122.184C112.069 125.08 118.005 128.048 122.276 132.391C122.348 132.464 122.565 132.391 122.565 132.246C119.959 125.586 119.235 118.926 117.715 112.049C117.57 111.76 117.281 111.832 117.281 112.049V112.049ZM148.844 125.007C145.224 123.27 141.243 122.256 137.478 120.881C132.7 119.144 125.534 117.044 120.9 114.945C120.683 114.8 120.466 115.162 120.683 115.307C124.375 117.84 131.18 119.506 135.379 121.098C139.65 122.691 144.211 124.573 148.699 125.514C148.916 125.514 149.133 125.152 148.844 125.007V125.007ZM147.106 126.672C145.297 128.555 143.704 130.871 143.052 133.332C142.98 133.477 143.27 133.622 143.342 133.477C144.355 131.016 145.514 128.844 147.396 126.962C147.468 126.745 147.251 126.528 147.106 126.672V126.672ZM151.45 128.193C151.45 127.903 151.015 127.903 151.015 128.193C151.088 132.464 151.16 136.735 151.595 140.934C151.595 141.223 152.029 141.223 152.029 140.934C152.101 136.735 151.812 132.391 151.45 128.193ZM75.4383 121.46C70.95 125.731 66.0274 129.64 61.6115 133.912C61.4667 134.056 61.6838 134.418 61.901 134.273C67.1132 130.871 71.6739 126.383 76.0174 121.967C76.2346 121.677 75.7279 121.171 75.4383 121.46Z" fill="#7DC0CF"/>
<path d="M68.6553 51.1388C68.6553 51.1388 60.5836 44.0444 59.2878 43.9285C58.1729 43.8272 55.4076 49.7271 54.1841 53.4553C53.8584 54.4398 53.938 55.5402 54.3651 56.4958C55.5379 59.0802 58.1367 64.4878 60.4678 67.1953C60.4678 67.1953 62.4368 67.6224 63.0594 67.4342C63.682 67.2532 68.5467 63.3296 69.0462 61.8093C69.5457 60.2891 69.6471 53.6291 68.6553 51.1388V51.1388Z" fill="#F4BAA3"/>
<path d="M69.3502 53.9114C69.4805 54.8597 69.5529 55.8225 69.5891 56.7781C69.6253 57.7337 69.6325 58.6965 69.5818 59.6593C69.5588 60.1409 69.5177 60.6214 69.4588 61.0999C69.4226 61.346 69.3864 61.5849 69.314 61.8383C69.2416 62.0917 69.1113 62.3451 68.981 62.5333C68.4598 63.3368 67.8227 63.9449 67.1929 64.5602C66.5558 65.1683 65.9043 65.7402 65.2311 66.2977C64.8908 66.5727 64.5578 66.8406 64.2031 67.1012C64.0294 67.2315 63.8484 67.3546 63.6674 67.4776L63.3778 67.6514C63.262 67.7093 63.1245 67.7745 62.9942 67.7889C62.5091 67.8468 62.1037 67.7817 61.6766 67.7238C61.2568 67.6659 60.8441 67.5862 60.4242 67.4921L60.3301 67.4704L60.2722 67.398C59.2225 66.1384 58.3683 64.734 57.5648 63.3079C56.7684 61.8745 56.0445 60.3905 55.3496 58.892L54.3288 56.6406C53.9669 55.8805 53.8149 54.9828 53.9379 54.1358C53.9814 53.7087 54.1261 53.3105 54.2564 52.9269C54.3868 52.536 54.5243 52.1523 54.6618 51.7686C54.9514 51.0085 55.2337 50.2411 55.545 49.4883C56.1676 47.9897 56.8191 46.4985 57.6733 45.1303C57.8905 44.79 58.1222 44.457 58.3973 44.1457C58.5348 43.9937 58.6868 43.8417 58.8823 43.7186C58.9764 43.6607 59.0995 43.6028 59.2587 43.6028C59.3963 43.61 59.4904 43.6535 59.599 43.6897C60.3663 44.0299 60.9527 44.5149 61.5898 44.9638C62.8349 45.8976 64.0294 46.8894 65.2094 47.9246C66.3966 48.9453 67.5404 49.995 68.6914 51.0954C69.0461 52.0147 69.2126 52.9631 69.3502 53.9114V53.9114ZM61.3219 45.456C60.7066 45.0289 60.055 44.5439 59.447 44.2905C59.3818 44.276 59.3022 44.2326 59.2587 44.2326C59.2298 44.2326 59.1719 44.2471 59.1139 44.2833C58.9909 44.3557 58.8606 44.4643 58.7447 44.6018C58.4986 44.8624 58.2742 45.1809 58.0643 45.4995C57.2245 46.8025 56.4861 48.2286 55.8129 49.6765C55.4799 50.4076 55.1469 51.1388 54.8573 51.8917C54.7125 52.2681 54.5677 52.6445 54.4302 53.0282C54.2926 53.4119 54.1551 53.7883 54.1044 54.1865C53.9958 54.99 54.1479 55.8298 54.5026 56.5465C54.8428 57.2921 55.212 58.0305 55.5812 58.7544C56.3196 60.2167 57.1159 61.6429 57.9412 63.0328C58.7737 64.4155 59.6497 65.7764 60.6631 66.9564L60.5111 66.8623C61.3002 67.0071 62.1761 67.1736 62.8928 67.1012C62.9724 67.094 63.0231 67.0578 63.0955 67.0216L63.3489 66.8623L63.8556 66.5004C64.1959 66.2542 64.5289 65.9864 64.8619 65.7185C65.5279 65.1828 66.1722 64.6182 66.802 64.0246C67.4173 63.4309 68.0544 62.8228 68.5321 62.1351C68.6552 61.9541 68.7421 61.8021 68.8072 61.6139C68.8651 61.4184 68.9086 61.194 68.9448 60.9696C69.0099 60.5135 69.0678 60.0502 69.0968 59.5869C69.1692 58.6531 69.1981 57.7047 69.2054 56.7636C69.2126 55.8153 69.1764 54.867 69.0968 53.9259C69.0172 52.9848 68.9013 52.0292 68.619 51.146C66.2084 49.2494 63.7905 47.2731 61.3219 45.456V45.456Z" fill="#E59E82"/>
<path d="M68.8434 57.1475C68.8434 57.1475 61.0612 47.3166 59.5989 48.1347C58.1438 48.9455 55.8418 53.5858 55.849 55.135C55.8635 57.4081 58.2669 61.2014 59.4759 62.3452C60.6848 63.489 62.1399 64.1912 64.0727 63.7496C65.9984 63.308 68.8434 57.1475 68.8434 57.1475Z" fill="#E59E82"/>
<path d="M62.9218 57.133C62.596 56.2208 62.2341 55.3232 61.8721 54.4255C61.5071 53.5314 61.1062 52.6523 60.6704 51.7904C60.2288 50.9362 59.7872 50.082 59.2443 49.2929L59.1864 49.2061L59.1284 49.2929C58.5855 50.1471 58.0788 51.0159 57.5937 51.9135C57.3548 52.3623 57.1159 52.8184 56.8988 53.2817C56.6744 53.745 56.4861 54.2301 56.2907 54.7151L56.2617 54.7875L56.2907 54.8743C56.6237 55.8951 56.9856 56.8941 57.3548 57.9003C57.5358 58.3998 57.7458 58.8921 57.9557 59.3844C58.1729 59.8766 58.3828 60.3617 58.6724 60.8394L58.8099 61.0639L58.9909 60.8973C59.237 60.6729 59.4252 60.4268 59.6207 60.159C59.8089 59.8911 59.9754 59.6088 60.1202 59.312C60.4098 58.7184 60.5763 58.0234 60.5546 57.3284V57.285L60.5401 57.256C60.1781 56.5394 59.7944 55.8372 59.418 55.1277L59.3818 55.1494C59.6859 55.8806 59.9827 56.619 60.2939 57.3429C60.265 57.9655 60.0768 58.5591 59.8017 59.0875C59.5628 59.5364 59.2443 59.9345 58.904 60.282C58.7158 59.9273 58.5421 59.5436 58.3756 59.1527L57.7892 57.6832C57.4055 56.7276 57.0436 55.7575 56.6888 54.7947C57.0146 53.8536 57.3693 52.9198 57.7892 52.0293C58.2018 51.1389 58.6724 50.2847 59.2081 49.4884C59.6931 50.2413 60.0551 51.1027 60.4243 51.9425L61.5391 54.5993L62.6684 57.256C63.0448 58.1392 63.4285 59.0296 63.8267 59.9056L63.8701 59.8839C63.5733 58.9645 63.2548 58.0451 62.9218 57.133V57.133Z" fill="#C66C49"/>
<path d="M114.219 51.139C114.219 51.139 122.29 44.0446 123.586 43.9288C124.701 43.8274 127.466 49.7274 128.69 53.4556C129.015 54.4401 128.936 55.5404 128.509 56.496C127.336 59.0804 124.737 64.4881 122.406 67.1955C122.406 67.1955 120.437 67.6227 119.814 67.4344C119.192 67.2535 114.327 63.3298 113.828 61.8096C113.328 60.2894 113.227 53.6293 114.219 51.139V51.139Z" fill="#F4BAA3"/>
<path d="M114.197 51.1171C115.341 50.0167 116.492 48.967 117.679 47.9463C118.852 46.9183 120.053 45.9193 121.298 44.9855C121.936 44.5294 122.522 44.0516 123.289 43.7114C123.405 43.6824 123.492 43.6318 123.63 43.6245C123.782 43.6245 123.905 43.6824 124.006 43.7403C124.209 43.8634 124.361 44.0082 124.491 44.1675C124.766 44.4787 124.998 44.8117 125.215 45.152C126.069 46.5202 126.713 48.0187 127.343 49.51C127.655 50.2629 127.937 51.023 128.226 51.7903C128.364 52.174 128.501 52.5577 128.632 52.9486C128.762 53.3323 128.9 53.7304 128.95 54.1575C129.073 55.0045 128.921 55.9022 128.559 56.6623L127.539 58.9137C126.836 60.405 126.12 61.889 125.323 63.3296C124.52 64.763 123.666 66.1674 122.616 67.4197L122.558 67.4921L122.464 67.5139C122.044 67.608 121.631 67.6804 121.212 67.7455C120.785 67.7962 120.372 67.8613 119.894 67.8107C119.764 67.7962 119.626 67.731 119.51 67.6731L119.221 67.4994C119.04 67.3763 118.859 67.2532 118.685 67.1229C118.338 66.8623 117.997 66.5945 117.657 66.3194C116.984 65.7692 116.332 65.1901 115.695 64.582C115.066 63.9594 114.428 63.3586 113.907 62.555C113.761 62.3421 113.648 62.1077 113.574 61.86C113.502 61.6067 113.473 61.3605 113.429 61.1216C113.372 60.6366 113.328 60.1588 113.306 59.681C113.256 58.7182 113.256 57.7627 113.299 56.7998C113.343 55.8443 113.408 54.8815 113.538 53.9331C113.661 52.9631 113.828 52.0147 114.197 51.1171V51.1171ZM114.24 51.1605C113.951 52.0365 113.835 52.9993 113.762 53.9404C113.69 54.8815 113.654 55.8298 113.654 56.7781C113.661 57.7265 113.697 58.6676 113.762 59.6014C113.799 60.072 113.849 60.5353 113.915 60.9841C113.958 61.2085 113.994 61.4329 114.052 61.6284C114.117 61.8166 114.197 61.9686 114.327 62.1496C114.805 62.8301 115.442 63.4454 116.057 64.039C116.68 64.6254 117.331 65.1901 117.997 65.733C118.33 66.0009 118.663 66.2615 119.004 66.5148L119.51 66.8768L119.764 67.0361C119.836 67.0723 119.887 67.1085 119.966 67.1157C120.683 67.1881 121.559 67.0216 122.348 66.8768L122.196 66.9709C123.21 65.7909 124.086 64.43 124.918 63.0473C125.743 61.6573 126.54 60.2312 127.278 58.7689C127.647 58.0377 128.016 57.3066 128.357 56.5609C128.711 55.8443 128.863 55.0045 128.755 54.201C128.704 53.7956 128.567 53.4264 128.429 53.0427C128.292 52.659 128.154 52.2826 128.002 51.9061C127.712 51.1533 127.379 50.4149 127.046 49.691C126.373 48.2359 125.635 46.817 124.795 45.5139C124.585 45.1954 124.361 44.8769 124.115 44.6163C123.991 44.486 123.861 44.3701 123.745 44.2978C123.702 44.2691 123.652 44.2517 123.601 44.2471C123.557 44.2471 123.477 44.2905 123.412 44.305C122.804 44.5584 122.153 45.0434 121.537 45.4705C119.083 47.2731 116.665 49.2494 114.24 51.1605V51.1605Z" fill="#E59E82"/>
<path d="M114.031 57.1475C114.031 57.1475 121.813 47.3166 123.275 48.1347C124.73 48.9455 127.032 53.5858 127.025 55.135C127.01 57.4081 124.607 61.2014 123.398 62.3452C122.189 63.489 120.734 64.1912 118.801 63.7496C116.876 63.308 114.031 57.1475 114.031 57.1475V57.1475Z" fill="#E59E82"/>
<path d="M126.576 54.7222C126.388 54.2371 126.2 53.7521 125.968 53.2888C125.751 52.8255 125.519 52.3694 125.273 51.9206C124.788 51.0229 124.274 50.1542 123.738 49.3L123.68 49.2131L123.622 49.3C123.087 50.0963 122.638 50.9433 122.196 51.7975C121.762 52.6518 121.371 53.5349 120.995 54.4326C120.64 55.3303 120.271 56.2279 119.945 57.1401C119.612 58.0522 119.293 58.9716 119.018 59.8982L119.062 59.9199C119.46 59.044 119.836 58.1535 120.22 57.2704L121.349 54.6136L122.464 51.9568C122.833 51.117 123.195 50.2556 123.68 49.5027C124.216 50.299 124.687 51.1605 125.099 52.0437C125.519 52.9413 125.881 53.8679 126.2 54.809C125.838 55.7791 125.483 56.7419 125.099 57.6975L124.513 59.167C124.346 59.5507 124.173 59.9416 123.984 60.2963C123.644 59.9489 123.326 59.5507 123.087 59.1019C122.804 58.5734 122.623 57.9798 122.594 57.3572C122.906 56.6333 123.203 55.8949 123.507 55.1638L123.47 55.142C123.094 55.8515 122.71 56.5537 122.348 57.2704L122.334 57.2993V57.3428C122.312 58.0377 122.479 58.7327 122.768 59.3263C122.913 59.6231 123.079 59.9127 123.268 60.1733C123.456 60.4339 123.651 60.6873 123.898 60.9117L124.079 61.0782L124.216 60.8538C124.506 60.3687 124.716 59.8837 124.933 59.3987C125.143 58.9064 125.345 58.4142 125.534 57.9146C125.903 56.9156 126.265 55.9094 126.598 54.8887L126.627 54.8018L126.576 54.7222V54.7222Z" fill="#C66C49"/>
<path d="M120.683 32.7079C119.091 25.4687 116.123 21.1252 109.68 17.6504C102.947 14.0308 91.437 14.1756 91.437 14.1756C91.437 14.1756 79.9267 14.0308 73.1943 17.6504C66.8238 21.1252 63.7833 25.4687 62.1907 32.7079C61.5392 35.6036 62.1907 42.5532 62.1907 42.5532C62.1907 42.5532 63.0594 51.1679 63.0594 53.6292C63.0594 56.0905 62.625 60.5788 63.2042 65.5015C63.7833 70.4241 68.1268 82.5136 76.3071 92.7209C84.4874 102.928 91.437 102.711 91.437 102.711C91.437 102.711 98.3867 102.928 106.567 92.7209C114.747 82.5136 119.091 70.3517 119.67 65.5015C120.249 60.5788 119.815 56.0905 119.815 53.6292C119.815 51.1679 120.683 42.5532 120.683 42.5532C120.611 42.4809 121.335 35.6036 120.683 32.7079V32.7079Z" fill="#F4BAA3"/>
<path d="M120.683 32.7079C119.091 25.4687 116.123 21.1252 109.68 17.6504C102.947 14.0308 91.437 14.1756 91.437 14.1756C91.437 14.1756 79.9267 14.0308 73.1943 17.6504C66.8238 21.1252 63.7833 25.4687 62.1907 32.7079C61.5392 35.6036 62.1907 42.5532 62.1907 42.5532C62.1907 42.5532 63.0594 51.1679 63.0594 53.6292C63.0594 56.0905 62.625 60.5788 63.2042 65.5015C63.7833 70.4241 68.1268 82.5136 76.3071 92.7209C84.4874 102.928 91.437 102.711 91.437 102.711C91.437 102.711 98.3867 102.928 106.567 92.7209C114.747 82.5136 119.091 70.3517 119.67 65.5015C120.249 60.5788 119.815 56.0905 119.815 53.6292C119.815 51.1679 120.683 42.5532 120.683 42.5532C120.611 42.4809 121.335 35.6036 120.683 32.7079V32.7079ZM120.683 40.0195C120.611 40.8158 120.539 41.6121 120.466 42.4809L120.104 46.0281C119.959 47.1863 119.815 48.417 119.742 49.5753C119.597 50.8059 119.525 51.9642 119.453 53.1949C119.38 54.4255 119.453 55.5838 119.453 56.8145C119.453 59.2034 119.38 61.5923 119.163 63.9089C119.163 64.1984 119.091 64.488 119.091 64.7776L119.018 65.2119L118.946 65.6463C118.874 66.2254 118.729 66.8045 118.584 67.3113C118.294 68.4696 117.932 69.5554 117.571 70.7137C116.774 72.9579 115.905 75.1296 114.892 77.3014C113.879 79.4731 112.793 81.5725 111.562 83.5995C111.272 84.1062 110.983 84.613 110.621 85.1197C110.331 85.6264 110.042 86.1332 109.68 86.6399L108.666 88.0878L107.653 89.5356C107.291 90.0424 106.929 90.4767 106.567 90.9834L106.06 91.7074L105.771 92.0693L105.481 92.4313L104.323 93.8067C103.961 94.2411 103.526 94.6754 103.092 95.1098C101.427 96.7748 99.6897 98.295 97.7351 99.5257C96.7216 100.105 95.7805 100.684 94.6947 101.046C94.1879 101.263 93.6088 101.408 93.102 101.553C92.5953 101.697 92.0162 101.77 91.5094 101.842C91.0751 101.842 90.4959 101.77 89.9892 101.697C89.4824 101.553 88.9033 101.408 88.3966 101.263C87.3107 100.901 86.2972 100.394 85.2837 99.8153C83.2567 98.657 81.4469 97.1368 79.7819 95.5441C78.1169 93.8791 76.5967 92.0693 75.2212 90.1871C73.7734 88.305 72.4703 86.278 71.2397 84.3234C70.009 82.2964 68.8507 80.1971 67.8373 78.0253C66.8238 75.8535 65.8827 73.6818 65.0864 71.4376C64.8692 70.8585 64.7244 70.2794 64.5072 69.7726L64.2177 68.9039L64.0005 68.0352L63.7833 67.1665C63.7109 66.8769 63.6385 66.5874 63.6385 66.2978C63.5661 66.0082 63.5661 65.7187 63.4937 65.4291L63.4214 64.5604C63.2042 62.1715 63.1318 59.7825 63.2042 57.3936C63.2042 56.1629 63.2766 55.0047 63.2766 53.774C63.2766 52.5433 63.2042 51.3851 63.0594 50.1544C62.9146 47.7655 62.6974 45.3765 62.4803 42.9876C62.2631 40.5987 62.1907 38.2097 62.2631 35.8208C62.2631 35.2417 62.3355 34.6625 62.4079 34.0834C62.4803 33.5042 62.5527 32.9975 62.7698 32.4184C63.0594 31.2601 63.4214 30.1742 63.8557 29.0159C64.7244 26.8442 65.8827 24.8172 67.4029 23.0798C67.7649 22.6455 68.1992 22.2835 68.6336 21.8491C69.0679 21.4872 69.5023 21.1252 70.009 20.7633C70.4434 20.4013 70.9501 20.1117 71.4569 19.7498C71.9636 19.4602 72.4703 19.0983 72.9771 18.8811C73.2667 18.7363 73.4838 18.5915 73.7734 18.4467L74.5697 18.0848L74.9317 17.8676L75.366 17.7228L76.1623 17.4332C76.4519 17.3608 76.7415 17.2161 76.9586 17.1437C77.2482 17.0713 77.5378 16.9265 77.755 16.8541L78.6237 16.6369L79.4924 16.4198C81.8089 15.913 84.1254 15.551 86.442 15.3339C87.6003 15.2615 88.8309 15.1167 89.9892 15.1167C90.5683 15.1167 91.1475 15.0443 91.7266 15.0443H93.464C95.8529 15.1167 98.1695 15.2615 100.558 15.551C102.875 15.8406 105.264 16.3474 107.436 17.1437C107.725 17.2161 108.015 17.3608 108.232 17.4332L109.028 17.7952L109.463 18.0124L109.825 18.2295L110.621 18.6639C111.634 19.243 112.648 19.8946 113.589 20.6185C114.53 21.3424 115.399 22.2111 116.123 23.0798C116.919 24.0209 117.571 24.962 118.15 26.0479C119.308 28.1472 119.959 30.4638 120.539 32.7803C120.683 33.5766 120.756 34.373 120.756 35.2417V37.703C120.756 38.4269 120.756 39.2232 120.683 40.0195Z" fill="#C66C49"/>
<path d="M105.734 79.9796C104.236 80.6673 102.817 81.0221 101.905 81.1162C98.4444 81.4709 95.8745 81.746 92.6748 82.9477C91.3717 83.4544 90.7202 83.5992 89.4171 83.2373C88.4037 82.9477 87.3902 82.7305 86.3767 82.5857C84.8565 82.3541 83.3507 82.6798 81.8232 82.7305C80.9545 82.7595 80.0569 82.5206 79.0434 82.2817C78.5366 82.2817 78.1385 82.4409 79.1447 82.9839C81.3961 84.2001 82.8512 83.8526 85.3849 84.4317C87.1223 84.7937 89.8732 86.922 91.6106 86.3429C93.7824 85.619 96.3668 84.0046 98.5385 83.2807C100.927 82.5568 101.984 82.9115 105.343 80.8194C105.814 80.4936 106.06 79.8276 105.734 79.9796V79.9796Z" fill="#DA7C87"/>
<path d="M77.1035 46.6794C82.5329 46.6794 86.8764 50.8782 86.8764 56.0904C86.8764 61.3026 82.5329 65.5013 77.1035 65.5013C71.6741 65.5013 67.3306 61.3026 67.3306 56.0904C67.3306 50.8782 71.6741 46.6794 77.1035 46.6794Z" fill="white"/>
<path d="M77.1035 52.0365C79.3477 52.0365 81.1575 53.8463 81.1575 56.0904C81.1575 58.3346 79.3477 60.1444 77.1035 60.1444C74.8594 60.1444 73.0496 58.3346 73.0496 56.0904C73.0496 53.8463 74.8594 52.0365 77.1035 52.0365Z" fill="#232625"/>
<path d="M77.1035 53.9187C78.3342 53.9187 79.2753 54.8598 79.2753 56.0905C79.2753 57.3211 78.3342 58.2622 77.1035 58.2622C75.8729 58.2622 74.9318 57.3211 74.9318 56.0905C74.9318 54.8598 75.8729 53.9187 77.1035 53.9187Z" fill="black"/>
<path d="M76.5965 54.3531L76.1622 53.9187C76.0174 53.7739 75.8002 53.7015 75.5831 53.7015C75.3659 53.7015 75.1487 53.7739 75.0039 53.9187C74.8591 54.0635 74.7867 54.2807 74.7867 54.4978C74.7867 54.715 74.8591 54.9322 75.0039 55.077L75.4383 55.5113C75.5831 55.6561 75.8002 55.7285 75.945 55.7285C76.1622 55.7285 76.3794 55.6561 76.4518 55.5113C76.8861 55.077 76.8861 54.6426 76.5965 54.3531V54.3531ZM78.5511 58.0451C79.275 58.0451 79.275 56.9592 78.5511 56.9592C77.8996 56.9592 77.8996 58.0451 78.5511 58.0451Z" fill="white"/>
<path d="M77.1034 46.3175C71.4568 46.3175 66.8961 50.7334 66.8961 56.1628C66.8961 61.5922 71.4568 66.0081 77.1034 66.0081C82.75 66.0081 87.3106 61.5922 87.3106 56.1628C87.3106 50.7334 82.75 46.3175 77.1034 46.3175ZM73.5562 60.9407C70.0814 59.71 68.9231 56.0904 68.344 53.6291C67.6924 51.0954 78.334 51.0954 81.0125 53.3395C83.7634 55.5113 84.8493 58.6241 84.9941 60.2892C85.0665 60.2168 77.031 62.1713 73.5562 60.9407Z" fill="#F4BAA3"/>
<path d="M84.9942 59.9273C84.9218 59.5653 84.9218 59.2034 84.777 58.9138L84.5598 58.2623C84.1978 56.8868 83.4739 55.0047 82.388 53.774C81.5193 52.8329 79.42 50.5887 75.8728 50.5887C72.3256 50.5887 69.9366 51.747 69.5023 51.9642C69.3575 52.0366 69.1403 52.1814 68.9955 52.3262C68.706 52.4709 68.4164 52.6881 68.1992 53.0501C68.1268 53.1949 68.1268 53.2672 68.1268 53.412C68.0544 53.4844 68.0544 53.5568 68.0544 53.5568H68.1268C68.1268 53.6292 68.1268 53.774 68.1992 53.8464C68.2716 54.0636 68.344 54.2807 68.344 54.4979L68.7784 55.801C69.0679 56.6697 69.4299 57.466 69.9366 58.2623C70.4434 59.0586 71.0225 59.7101 71.7464 60.2893C72.4704 60.8684 73.3391 61.2304 74.2078 61.4475C76.0176 61.8095 77.8274 61.6647 79.6372 61.4475C81.447 61.2304 83.1844 60.8684 84.9218 60.3617C85.0665 60.2169 85.0665 60.0721 84.9942 59.9273ZM84.9942 60.2169C83.2568 60.5064 81.447 60.796 79.7095 61.0132C78.8408 61.0856 77.8997 61.158 77.031 61.158C76.1623 61.158 75.2212 61.158 74.3525 61.0132C72.6151 60.7236 71.0225 59.6377 70.1538 58.1175C69.6471 57.3936 69.2851 56.5249 68.9955 55.7286C68.8508 55.2942 68.706 54.8599 68.6336 54.4255C68.5612 54.2083 68.4888 53.9912 68.4888 53.774C68.4888 53.6292 68.4164 53.5568 68.4164 53.4844C69.4299 53.1949 73.1943 52.109 76.0176 52.109C79.2752 52.1814 81.7365 54.7151 82.75 55.801C83.6187 56.5973 84.9218 59.493 84.9942 60.2169V60.2169Z" fill="#1B1929"/>
<path d="M105.771 46.6794C111.2 46.6794 115.544 50.8782 115.544 56.0904C115.544 61.3026 111.2 65.5013 105.771 65.5013C100.341 65.5013 95.9978 61.3026 95.9978 56.0904C95.9978 50.8782 100.341 46.6794 105.771 46.6794V46.6794Z" fill="white"/>
<path d="M105.771 52.5432C107.725 52.5432 109.318 54.1358 109.318 56.0904C109.318 58.045 107.725 59.6376 105.771 59.6376C103.816 59.6376 102.224 58.045 102.224 56.0904C102.224 54.1358 103.816 52.5432 105.771 52.5432Z" fill="#232625"/>
<path d="M105.771 54.2084C106.784 54.2084 107.653 55.0771 107.653 56.0906C107.653 57.1041 106.784 57.9728 105.771 57.9728C104.757 57.9728 103.888 57.1041 103.888 56.0906C103.888 55.0771 104.757 54.2084 105.771 54.2084Z" fill="black"/>
<path d="M105.336 54.5702C105.191 54.4254 105.119 54.2807 104.974 54.2083C104.829 54.0635 104.685 53.9911 104.467 53.9911C104.323 53.9911 104.105 54.0635 103.961 54.2083C103.816 54.353 103.744 54.4978 103.744 54.715C103.744 54.8598 103.816 55.077 103.961 55.2217C104.105 55.3665 104.25 55.4389 104.323 55.5837C104.467 55.7285 104.612 55.8009 104.829 55.8009C104.974 55.8009 105.191 55.7285 105.336 55.5837C105.553 55.2217 105.553 54.7874 105.336 54.5702ZM107.074 57.8279C107.653 57.8279 107.725 56.8868 107.074 56.8868C106.494 56.8144 106.494 57.8279 107.074 57.8279Z" fill="white"/>
<path d="M105.771 46.3175C100.124 46.3175 95.5635 50.7334 95.5635 56.1628C95.5635 61.5922 100.124 66.0081 105.771 66.0081C111.417 66.0081 115.978 61.5922 115.978 56.1628C115.978 50.7334 111.417 46.3175 105.771 46.3175V46.3175ZM109.608 60.4339C106.422 61.737 98.7487 60.5063 98.7487 60.5063C98.8211 59.1309 99.6898 56.3076 102.151 54.2082C104.612 52.1089 114.603 51.4573 114.168 53.7015C113.661 55.9456 112.793 59.2033 109.608 60.4339V60.4339Z" fill="#F4BAA3"/>
<path d="M114.313 53.8463C114.313 53.8463 114.313 52.9052 113.661 52.6156C113.227 52.4708 110.476 51.8917 107.074 52.1088C105.191 52.2536 103.744 52.9052 102.658 53.6291C102.441 53.7739 102.223 53.8463 102.079 53.991C101.427 54.5702 100.848 55.1493 100.341 55.8732C99.4001 57.2487 98.6761 58.8413 98.6761 60.5063C98.6761 60.7235 98.7485 61.0854 98.7485 61.0854C98.7485 61.0854 98.8209 60.8683 98.8933 60.5787C100.486 60.8683 102.006 61.0854 103.671 61.1578C104.54 61.2302 105.336 61.2302 106.133 61.2302C107.001 61.2302 107.798 61.0854 108.594 60.9407C109.39 60.7959 110.186 60.3615 110.91 59.9272C111.562 59.4204 112.141 58.7689 112.648 58.1174C113.082 57.3935 113.444 56.6695 113.734 55.8732C113.878 55.5113 113.951 55.0769 114.096 54.6426L114.24 54.0634C114.24 53.991 114.24 53.991 114.313 53.9186V53.8463V53.8463ZM114.023 53.9186L113.878 54.4978C113.806 54.9321 113.661 55.2941 113.589 55.7284C113.299 56.5248 113.01 57.2487 112.575 57.9726C111.707 59.348 110.186 60.2891 108.594 60.5787C108.159 60.6511 107.798 60.7235 107.363 60.7959C106.929 60.7959 106.567 60.8683 106.133 60.8683C105.336 60.9407 104.468 60.9407 103.671 60.8683C102.079 60.7959 100.486 60.7235 98.8933 60.5787C99.1829 59.4928 99.9792 57.2487 100.631 56.4524C101.499 55.3665 103.671 53.1947 106.784 52.9052C109.39 52.688 113.01 53.4843 114.023 53.7739V53.9186V53.9186Z" fill="#1B1929"/>
<path d="M86.2248 43.2771C86.2248 43.2771 86.08 46.1004 85.5009 48.417C85.5009 48.417 73.8458 45.0869 72.4703 44.9422C71.0949 44.7974 66.3894 47.9102 66.3894 47.9102L71.0949 40.8158L73.8458 41.033L73.4114 40.3815L79.2028 41.7569L84.6322 42.6256L84.9941 44.6526L85.2837 42.6256L85.6457 44.6526L86.2248 43.2771V43.2771Z" fill="#2A232B"/>
<path d="M86.2247 43.277L86.1523 43.3494C86.0799 43.5666 86.0075 43.7114 85.8627 43.9286C85.7903 44.0734 85.718 44.2181 85.6456 44.4353L85.356 42.6255L85.2112 41.974L85.0664 42.6255L84.8492 43.7838L84.6321 42.6255L84.6321 42.4807L84.4873 42.4807L81.664 41.974L80.2886 41.7568C79.8542 41.6844 79.3475 41.612 78.9131 41.5396C77.0309 41.1053 75.2211 40.6709 73.3389 40.2366L72.7598 40.0918L73.1218 40.6709L73.3389 40.7433L71.0948 40.5985L70.95 40.5985L70.8776 40.6709C70.0813 41.9016 69.3574 43.0599 68.5611 44.2905L66.2445 47.9101L65.955 48.3445L66.3893 48.0549C67.7648 47.1138 69.2126 46.2451 70.7328 45.5936C71.0948 45.4488 71.5291 45.304 71.8911 45.1592C72.1083 45.0868 72.2531 45.0868 72.4702 45.0868L72.7598 45.1592L73.0494 45.2316C73.8457 45.4488 74.7144 45.666 75.5107 45.8832C77.1757 46.3899 78.7683 46.8242 80.4333 47.2586C82.0984 47.693 83.691 48.1273 85.356 48.5617L85.5008 48.634L85.5008 48.4893C85.718 47.6206 85.7903 46.7519 85.9351 45.8832C86.0075 45.4488 86.0075 45.0145 86.0799 44.5801C86.0799 44.3629 86.0799 44.1457 86.1523 43.9286L86.1523 43.3494L86.2247 43.277C86.2247 43.3494 86.2247 43.277 86.2247 43.277V43.277ZM86.1523 43.5666L86.0799 43.8562L86.0075 44.5077L85.7903 45.8108C85.6456 46.6071 85.5008 47.4034 85.2836 48.1997C83.691 47.693 82.0984 47.2586 80.5057 46.7519C78.8407 46.2451 77.2481 45.8108 75.5831 45.4488C74.7868 45.2316 73.9181 45.0868 73.1218 44.8697L72.8322 44.7973L72.5426 44.7249C72.3254 44.7249 72.1083 44.7249 71.8911 44.7973C71.4567 44.9421 71.0948 45.0868 70.7328 45.2316C69.3574 45.8832 68.0543 46.6071 66.7513 47.4758L68.8506 44.4353C69.6469 43.277 70.4433 42.1188 71.1672 41.0329L73.7733 41.2501L74.28 41.3225L73.9905 40.8157L73.9181 40.7433C75.5831 41.1777 77.2481 41.5396 78.9131 41.9016L81.7364 42.3359L84.4149 42.6979L84.7769 44.5077L84.9216 45.3764L85.0664 44.5077L85.2836 43.0599L85.5732 44.4353L85.6456 44.6525L85.718 44.4353L85.9351 43.7838C86.0075 43.5666 86.0799 43.3494 86.1523 43.2047L86.1523 43.5666V43.5666ZM84.0529 46.969C84.0529 46.3899 83.9805 45.7384 83.9082 45.1592C83.8358 44.8697 83.8358 44.5801 83.7634 44.2905C83.691 44.001 83.6186 43.7114 83.4738 43.4218C83.5462 43.7114 83.5462 44.001 83.5462 44.2905C83.5462 44.5801 83.6186 44.8697 83.691 45.1592C83.7634 45.7384 83.9082 46.3899 84.0529 46.969V46.969ZM83.1842 45.7384C83.0394 45.5212 82.9671 45.2316 82.8223 45.0145L82.4603 44.2905L81.7364 42.9151L81.5916 42.5531L81.5916 42.9875C81.5916 44.1457 81.5916 45.304 81.664 46.4623L81.8812 46.3899C81.664 46.1003 81.4468 45.7384 81.2297 45.4488L80.5781 44.5801C80.3609 44.2905 80.1438 44.001 79.8542 43.7114C79.637 43.4218 79.3475 43.1323 79.0579 42.9151C79.2751 43.2047 79.5646 43.4942 79.7818 43.7838L80.4333 44.6525C80.6505 44.9421 80.8677 45.2316 81.0849 45.5936C81.302 45.8832 81.5192 46.2451 81.664 46.5347L81.8812 46.8966L81.8812 46.4623C81.8812 45.304 81.8088 44.1457 81.8088 42.9875L81.664 43.0599L82.4603 44.4353L82.8947 45.0868C82.8947 45.304 83.0394 45.5212 83.1842 45.7384V45.7384Z" fill="#1B141C"/>
<path d="M96.6493 45.9556C96.6493 45.9556 97.3008 48.1997 98.3143 49.9371C98.3143 49.9371 109.101 45.5212 110.476 45.2316C111.852 44.9421 116.991 46.6795 116.991 46.6795L111.055 41.6844L108.449 42.2636L108.739 41.6844L103.309 43.639L98.1695 45.0869L98.1695 46.7519L97.518 45.1593L97.518 46.8243L96.6493 45.9556V45.9556Z" fill="#2A232B"/>
<path d="M117.064 46.607L114.168 44.0733C113.227 43.2046 112.213 42.4083 111.2 41.5396L111.128 41.4672L111.055 41.4672L108.883 41.9015L108.956 41.7567L109.245 41.25L108.666 41.4672C106.929 42.0463 105.191 42.6978 103.454 43.3494L102.151 43.7837L100.848 44.2181L98.1694 45.0144L98.0246 45.0144L98.0246 46.1003L97.5903 45.1592L97.3731 44.6524L97.3731 45.1592L97.4455 46.607C97.3731 46.4622 97.2283 46.3898 97.1559 46.245C97.0111 46.1003 96.9387 45.9555 96.7939 45.8107L96.7216 45.7383L96.7216 45.9555L96.7939 46.1003L96.8663 46.3898C96.9387 46.5346 97.0111 46.7518 97.0111 46.8966C97.1559 47.2585 97.2283 47.5481 97.3731 47.9101C97.5903 48.5616 97.9522 49.2855 98.2418 49.937L98.3142 50.0818L98.459 50.0094C99.9792 49.4303 101.499 48.8512 103.092 48.1996C104.612 47.6205 106.133 46.969 107.653 46.3898C108.449 46.1003 109.173 45.8107 109.969 45.5211L110.259 45.4487L110.548 45.3763C110.766 45.304 110.91 45.304 111.128 45.304C111.562 45.304 111.924 45.3763 112.358 45.4487C113.951 45.7383 115.543 46.245 117.136 46.7518L117.57 46.8966L117.064 46.607V46.607ZM111.055 45.0868C110.838 45.0868 110.621 45.0868 110.404 45.1592L110.114 45.2316L109.824 45.304C109.028 45.5211 108.232 45.8107 107.508 46.1003C105.915 46.6794 104.395 47.2585 102.875 47.8377C101.355 48.4168 99.9068 49.0683 98.459 49.7199C98.097 49.1407 97.8074 48.4892 97.5903 47.9101C97.4455 47.6205 97.3007 47.2585 97.1559 46.8966L96.9387 46.3898L96.8663 46.1727L96.7939 46.0279L96.7939 45.9555C96.9387 46.1003 97.0111 46.245 97.0835 46.3898C97.2283 46.5346 97.3007 46.6794 97.4455 46.8966L97.5903 47.0414L97.5903 45.6659L98.0246 46.7518L98.3142 47.4033L98.3142 45.1592L100.92 44.4352C101.789 44.2181 102.73 43.9285 103.599 43.7113C105.191 43.1322 106.712 42.6255 108.304 42.0463L108.304 42.1187L108.087 42.5531L108.594 42.4083L111.128 41.8291C112.069 42.6254 113.082 43.4218 114.023 44.2181L116.629 46.3174C115.182 45.8831 113.806 45.4487 112.286 45.1592C111.851 45.2316 111.49 45.1592 111.055 45.0868V45.0868ZM99.4724 48.4892C99.3277 47.9825 99.3277 47.5481 99.3277 47.0414L99.3277 46.3174C99.3277 46.1003 99.3277 45.8107 99.4724 45.5935C99.4724 45.8107 99.5448 46.1003 99.5448 46.3174C99.5448 46.5346 99.6172 46.8242 99.6172 47.0414C99.5448 47.5481 99.5448 48.0548 99.4724 48.4892V48.4892ZM100.124 47.4033C100.196 47.1861 100.269 46.969 100.341 46.8242L100.558 46.245L100.993 45.0144L101.137 44.7248L101.21 45.0144C101.427 45.9555 101.572 46.8966 101.789 47.7653L101.572 47.7653L102.006 46.8966C102.151 46.607 102.296 46.3174 102.513 46.1003C102.658 45.8107 102.875 45.5935 103.02 45.304C103.164 45.0144 103.382 44.7972 103.599 44.58C103.382 44.7972 103.237 45.0868 103.092 45.3763C102.947 45.6659 102.802 45.8831 102.585 46.1727L102.151 47.0414L101.717 47.9101L101.572 48.1996L101.499 47.9101C101.282 46.969 101.137 46.0279 100.92 45.1592L101.137 45.1592L100.631 46.3174L100.341 46.8966C100.341 47.0414 100.269 47.1861 100.124 47.4033V47.4033Z" fill="#1B141C"/>
<path d="M90.7855 77.3012C91.2705 77.3881 94.0648 74.9051 94.0648 74.9051C94.0648 74.9051 95.5561 76.0561 96.6854 75.9403C97.8147 75.8244 98.4518 75.1584 98.8572 74.5214C99.2626 73.8843 98.2129 72.2772 97.5686 71.3289C96.9171 70.3806 95.0059 67.55 94.6078 66.247C93.8332 63.7495 92.436 62.8011 91.0461 62.888C89.6562 62.9749 88.1215 63.9884 87.7161 65.3783C87.3107 66.7682 87.1948 68.4767 86.413 69.5481C85.6312 70.6195 84.0096 72.4437 83.8359 72.965C83.6621 73.4862 83.7562 74.9919 84.7335 75.5421C85.9859 76.2443 87.8464 75.1729 87.8464 75.1729C87.8464 75.1729 90.1484 77.1854 90.7855 77.3012V77.3012Z" fill="#F4BAA3"/>
<path d="M98.8789 73.2255C98.5748 72.4944 98.0971 71.879 97.5686 71.3361C97.9812 71.9731 98.3504 72.6391 98.5748 73.3341C98.6834 73.6816 98.7486 74.0363 98.6907 74.3621C98.6545 74.5286 98.6038 74.6589 98.5025 74.7964C98.4083 74.9412 98.2925 75.0787 98.1622 75.1873C97.6627 75.6651 96.9316 75.8461 96.2221 75.752C95.8674 75.7086 95.5054 75.6072 95.1652 75.4697C94.8394 75.3538 94.5426 75.1873 94.2313 75.0208C94.5064 74.6154 94.7526 74.1883 94.9697 73.7467C94.2675 74.4055 93.6015 75.0715 92.8921 75.6579C92.5374 75.9475 92.1826 76.237 91.799 76.447C91.4298 76.6641 91.0244 76.8451 90.7058 76.8234C90.619 76.8306 90.5538 76.8089 90.4814 76.7944C90.4163 76.7582 90.3584 76.751 90.2643 76.6786C90.0905 76.57 89.9095 76.418 89.7286 76.2804C89.3666 75.9981 89.0119 75.6868 88.6499 75.39C87.9332 74.7819 87.2093 74.1666 86.4275 73.5947C86.7977 74.1607 87.2039 74.7024 87.6437 75.2163C87.2817 75.3756 86.9125 75.5131 86.5361 75.5927C86.0728 75.6796 85.595 75.7013 85.2041 75.5203C84.415 75.1367 83.9589 74.1956 84.0892 73.392C84.1254 73.1893 84.1833 73.0301 84.3064 72.8563C84.4295 72.6681 84.567 72.4726 84.7118 72.2844C85.0014 71.908 85.3054 71.546 85.6239 71.1841L86.1017 70.6484C86.2899 70.4457 86.4347 70.243 86.5867 70.0403C86.8836 69.6276 87.1442 69.186 87.3613 68.7155C87.5785 68.2449 87.7088 67.702 87.7884 67.2242C87.8753 66.732 87.9477 66.2469 88.0056 65.7619C88.1142 64.7846 88.2011 63.8146 88.23 62.8373C88.3024 60.8827 88.2518 58.9136 87.8608 56.9952C87.897 58.9426 87.7595 60.8682 87.5713 62.7866C87.4627 63.7422 87.3613 64.705 87.2093 65.6533C87.1369 66.1311 87.0645 66.6017 86.9777 67.0722C86.8908 67.55 86.7822 67.9554 86.5867 68.368C86.4011 68.7883 86.1731 69.1885 85.9063 69.5625C85.776 69.7507 85.6384 69.9462 85.4936 70.0982C85.3271 70.2864 85.1679 70.4674 85.0158 70.6628C84.7046 71.0465 84.4005 71.4374 84.1182 71.8428C83.9734 72.0455 83.8358 72.2555 83.7055 72.4799C83.5608 72.7188 83.4594 73.0301 83.4377 73.3051C83.3436 74.4417 84.053 75.5131 85.0665 75.8751C85.595 76.0416 86.1307 75.9547 86.6012 75.7954C86.9921 75.6579 87.3469 75.4624 87.6799 75.238C87.8536 75.4407 88.0201 75.6506 88.1938 75.8461C88.5124 76.2081 88.8526 76.5411 89.2146 76.8741C89.3956 77.0406 89.5838 77.1926 89.8082 77.3446C89.9023 77.417 90.0688 77.5039 90.2208 77.5618C90.3801 77.6052 90.5393 77.6487 90.6986 77.6414C91.3357 77.6414 91.8207 77.3663 92.2478 77.0912C92.6677 76.7944 93.0441 76.4687 93.3699 76.0995C93.6884 75.752 93.978 75.3828 94.2458 74.9919C94.7887 75.4697 95.433 75.8968 96.1859 76.0416C96.5768 76.1284 96.9895 76.1284 97.3876 76.0416C97.7858 75.9402 98.1622 75.7448 98.4663 75.4624C98.6183 75.3249 98.7486 75.1584 98.8572 74.9919C98.9802 74.8254 99.0671 74.601 99.0888 74.3838C99.1323 73.9856 99.0309 73.5875 98.8789 73.2255V73.2255Z" fill="#C66C49"/>
<path d="M106.929 15.2613C106.929 15.2613 100.486 8.96324 92.4506 7.80497C84.4151 6.6467 77.0311 9.75955 74.5698 11.3522C74.5698 11.3522 76.5968 10.5559 80.6507 11.9313C80.6507 11.9313 70.2263 12.6552 64.5797 18.519C58.9331 24.3827 58.2816 32.563 58.2816 32.563C58.2816 32.563 58.8608 27.206 62.5527 24.4551C62.5527 24.4551 52.2007 42.9151 63.9282 63.402C63.9282 63.402 62.1184 57.1763 62.5527 52.9775C62.5527 52.9775 64.3625 63.3296 66.3895 66.4424C66.3895 66.4424 64.7245 53.2671 65.9552 47.9825C65.9552 47.9825 66.3895 53.3395 67.765 56.38C67.765 56.38 68.3441 43.4218 72.6152 38.6439C72.6152 38.6439 72.1809 41.974 72.9048 44.4353C72.9048 44.4353 77.4655 36.617 81.447 33.7213C81.447 33.7213 78.6961 37.4133 77.6103 40.8881C77.6103 40.8881 80.5059 37.0513 84.1979 35.3863C87.8899 33.7213 90.9304 32.4906 90.9304 32.4906C90.9304 32.4906 88.7586 36.617 85.7182 37.4133C85.7182 37.4133 93.8261 37.1237 100.703 31.3324C100.703 31.3324 98.3868 36.0378 95.3463 37.1237C95.3463 37.1237 100.269 36.0378 103.454 33.2869C106.639 30.536 108.666 26.4097 109.752 24.2379C109.752 24.2379 110.983 34.4452 117.064 39.947C117.064 39.947 118.584 44.3629 118.584 46.8242C118.584 49.2856 118.729 59.7824 116.123 65.429C116.123 65.429 120.539 58.2622 121.914 51.5297C121.914 51.5297 123.724 47.8377 124.665 44.0733C125.606 40.3813 124.375 30.0293 122.566 26.0477C122.566 26.0477 123.941 26.7717 124.737 28.3643C124.737 28.3643 123.217 22.5729 118.512 19.0257C113.806 15.4785 109.173 15.9853 109.173 15.9853C109.173 15.9853 112.214 14.7546 115.761 15.2613C115.761 15.2613 113.661 12.6552 106.929 15.2613V15.2613Z" fill="#2A232B"/>
<path d="M109.101 23.876C106.64 30.6809 101.934 35.0244 94.8396 36.9066C94.6224 36.979 94.6948 37.3409 94.912 37.2686C101.789 36.5446 108.232 30.7533 109.463 23.9484C109.535 23.7313 109.173 23.5865 109.101 23.876ZM103.671 28.5815C103.816 28.4367 103.527 28.2196 103.382 28.3643C98.1697 33.3594 92.6679 36.1103 85.5735 37.1238C85.2839 37.1238 85.3563 37.6305 85.6458 37.6305C92.5231 37.4857 99.4727 34.0833 103.671 28.5815V28.5815ZM97.9525 28.3643C91.2924 32.3459 81.3023 33.9385 77.1036 41.1053C76.9588 41.3225 77.2484 41.5397 77.4656 41.3949C83.1845 34.8072 91.5096 33.7937 98.242 28.8711C98.4592 28.5815 98.242 28.1472 97.9525 28.3643ZM92.9574 26.265C93.1746 26.1202 93.0298 25.7582 92.7403 25.8306C84.8495 28.8711 77.1036 35.4588 73.484 43.1323C73.3392 43.3495 73.7012 43.5667 73.846 43.3495C79.1306 35.8207 84.7048 30.4637 92.9574 26.265ZM79.7097 28.7263C72.1809 35.7483 66.9687 46.1004 67.4755 56.5972C67.4755 56.8868 67.9098 56.8868 67.9098 56.5972C68.8509 45.9556 72.3257 36.617 79.9269 28.9435C80.0717 28.7987 79.8545 28.5815 79.7097 28.7263ZM71.8914 32.4183C72.0362 32.2011 71.7466 32.0563 71.6018 32.2735C65.4485 41.0329 63.0596 53.3396 66.3172 63.6916C66.3896 63.9812 66.8239 63.8364 66.7516 63.5468C64.7246 52.4709 66.0276 42.2636 71.8914 32.4183V32.4183ZM62.9872 41.1777C62.9872 40.9605 62.6252 40.8882 62.5528 41.1053C61.105 49.6476 61.9737 58.9861 66.1 66.6597C66.2448 66.8769 66.6792 66.7321 66.5344 66.4425C63.3491 58.2622 61.7565 50.0819 62.9872 41.1777V41.1777ZM62.6252 24.238C62.6976 24.0208 62.408 23.8037 62.2633 24.0208C55.6756 35.9655 56.4719 51.8917 63.4215 63.4744C63.5663 63.764 64.0007 63.4744 63.8559 63.2573C57.2682 50.6611 57.051 37.2686 62.6252 24.238V24.238ZM58.2093 32.4907C60.0191 20.9804 68.0546 13.3068 79.7097 12.2933C79.9269 12.2933 79.9269 11.9314 79.7097 11.9314C68.4166 11.859 58.4265 21.0528 57.8473 32.4183C57.8473 32.6355 58.2093 32.7079 58.2093 32.4907V32.4907ZM74.7147 11.6418C80.2888 8.60135 86.2974 7.08112 92.5955 8.23939C97.8077 9.18048 101.934 11.859 106.133 14.9718C106.422 15.189 106.712 14.7547 106.495 14.5375C98.6764 5.63328 83.9808 4.98175 74.4975 11.3522C74.3527 11.497 74.5699 11.7866 74.7147 11.6418V11.6418ZM95.7083 6.3572C98.242 6.79155 100.559 7.66025 102.586 9.25287C104.685 10.9179 105.771 12.9449 107.074 15.2614C107.219 15.551 107.581 15.3338 107.508 15.0442C106.567 9.9044 100.703 6.06763 95.7807 5.99524C95.5635 5.92284 95.4912 6.2848 95.7083 6.3572ZM107.508 15.9853C110.476 14.7547 113.01 14.6823 116.05 15.4786C116.34 15.551 116.557 15.1166 116.268 14.9718C113.517 13.5964 109.897 13.9583 107.363 15.6234C107.146 15.6958 107.291 16.0577 107.508 15.9853V15.9853ZM117.498 57.6107C117.498 57.8279 117.715 57.9003 117.788 57.6831C120.394 48.996 118.946 38.7164 114.168 31.0428C114.023 30.8257 113.806 31.0428 113.879 31.1876C115.109 33.8661 116.05 36.4722 116.774 39.1507C112.286 33.9385 110.114 28.292 110.549 21.1975C110.549 20.9804 110.259 20.9804 110.187 21.1252C108.884 27.8576 111.49 35.6759 116.992 40.0194C118.295 45.7384 118.439 51.4574 117.498 57.6107ZM109.246 16.2025C116.919 16.7816 122.204 21.2699 124.593 28.5091C124.665 28.7987 125.027 28.6539 125.027 28.3643C123.796 20.908 116.702 15.4786 109.246 15.6958C108.956 15.7681 108.956 16.1301 109.246 16.2025V16.2025ZM120.828 22.2834C120.684 22.0662 120.322 22.2834 120.466 22.5006C125.027 31.1876 125.751 39.9471 122.566 49.2132C122.493 49.4304 122.855 49.5752 122.928 49.358C126.982 40.9605 126.113 30.0294 120.828 22.2834ZM122.421 43.0599C121.769 51.6022 119.38 58.769 115.327 66.2253C115.182 66.5149 115.616 66.7321 115.761 66.4425C120.539 59.8548 122.928 51.1678 122.783 43.0599C122.783 42.8427 122.493 42.8427 122.421 43.0599V43.0599ZM67.8374 27.568C67.765 27.7852 68.0546 27.93 68.127 27.7852C72.6153 20.1841 80.0717 15.189 89.0483 14.8271C89.2654 14.8271 89.2654 14.5375 89.0483 14.5375C80.2164 14.3927 71.6018 19.3877 67.8374 27.568ZM97.8801 17.4332C95.2016 18.881 92.4507 19.8945 89.6274 20.9804C89.4102 21.0528 89.4826 21.3423 89.6998 21.2699C92.5955 20.4736 95.3464 19.0982 97.9525 17.5779C98.1697 17.5779 98.0249 17.3608 97.8801 17.4332V17.4332Z" fill="#1B141C"/>
</svg>
