<svg width="37" height="39" viewBox="0 0 37 39" fill="none" xmlns="http://www.w3.org/2000/svg">
<path fill-rule="evenodd" clip-rule="evenodd" d="M20.9526 26.1096C23.0753 26.1096 24.8031 27.825 24.8031 29.9336V35.3566C24.8031 35.8097 25.1662 36.1729 25.6317 36.1834H28.992C31.64 36.1834 33.7926 34.0572 33.7926 31.4445V16.064C33.7803 15.1648 33.3519 14.3186 32.6167 13.7562L20.9932 4.4863C19.4329 3.25043 17.2503 3.25043 15.6848 4.48982L4.14059 13.7527C3.37721 14.3327 2.9488 15.1789 2.93998 16.0939V31.4445C2.93998 34.0572 5.09262 36.1834 7.74066 36.1834H11.1327C11.6105 36.1834 11.9983 35.8044 11.9983 35.3389C11.9983 35.2367 12.0107 35.1344 12.0318 35.0375V29.9336C12.0318 27.8373 13.749 26.1237 15.8558 26.1096H20.9526ZM28.992 38.8279H25.5999C23.6571 38.7821 22.1585 37.2571 22.1585 35.3566V29.9336C22.1585 29.283 21.6173 28.7541 20.9526 28.7541H15.8646C15.214 28.7576 14.6763 29.2883 14.6763 29.9336V35.3389C14.6763 35.4712 14.6587 35.5981 14.6217 35.718C14.4313 37.4634 12.9398 38.8279 11.1327 38.8279H7.74066C3.63461 38.8279 0.295471 35.5152 0.295471 31.4445V16.0816C0.313101 14.3292 1.12056 12.7248 2.5151 11.6688L14.0364 2.42181C16.5733 0.411985 20.1082 0.411985 22.6398 2.41829L34.244 11.6741C35.6068 12.7125 36.4142 14.3133 36.4371 16.0446V31.4445C36.4371 35.5152 33.098 38.8279 28.992 38.8279Z" fill="black"/>
</svg>
