<svg width="94" height="94" viewBox="0 0 94 94" fill="none" xmlns="http://www.w3.org/2000/svg">
<rect width="94" height="94" rx="10" fill="#5FC9E1"/>
<path d="M77.1828 26.3731L50.313 10.6782C48.7652 9.77393 46.232 9.77393 44.6842 10.6782L17.8144 26.3731C16.2664 27.2772 15 29.4966 15 31.305V62.695C15.1204 64.801 16.1837 66.5452 17.8144 67.6269L44.6842 83.3218C46.232 84.2261 48.7652 84.2261 50.313 83.3218L77.1828 67.6269C78.9325 66.4495 79.9284 64.6774 79.9972 62.695V31.305C79.9343 29.4023 78.8081 27.4832 77.1828 26.3731ZM25.8329 47.0001C25.7056 25.5966 54.0413 16.1457 66.2609 36.0334L56.8845 41.5228C51.2243 32.0511 37.1701 35.4378 36.6657 47.0001C36.8172 57.6563 50.6305 62.6063 56.8852 52.4768L66.2615 57.9659C55.4925 76.8797 26.376 70.0749 25.8329 47.0001ZM69.1643 48.2177H66.7569V50.6534H64.3499V48.2177H61.9424V45.7823H64.3499V43.3468H66.7569V45.7823H69.1643V48.2177ZM78.1917 48.2177H75.7843V50.6534H73.3773V48.2177H70.9698V45.7823H73.3773V43.3468H75.7843V45.7823H78.1917V48.2177Z" fill="#111827"/>
</svg>
