<svg width="94" height="94" viewBox="0 0 94 94" fill="none" xmlns="http://www.w3.org/2000/svg">
<rect width="94" height="94" rx="10" fill="#FF4D61"/>
<g clip-path="url(#clip0_146_27)">
<path d="M35.0053 18H41.88V20.8747H37.88V23.7493H41.88V26.624H35.0053V18ZM43.2533 18H50.1307V20.5013H46.1307V21H50.1307V26.7493H43.2533V24.1253H47.2533V23.624H43.2533V18ZM51.5067 18H58.3787V20.5013H54.3787V21H58.3787V26.7493H51.5067V24.1253H55.5067V23.624H51.5067V18Z" fill="#111827"/>
<path fill-rule="evenodd" clip-rule="evenodd" d="M46.976 82L28.4587 76.8587L23 30.5787H71L65.544 76.8533L46.976 82ZM33.792 51.528L34.3013 57.2027H53.9733L53.3147 64.5627L46.984 66.2747H46.9787L40.6587 64.568L40.2533 60.0427H34.5547L35.3493 68.9547L46.976 72.1813L58.6213 68.9547L60.04 53.0507L60.1787 51.528L61.2027 40.0373H32.7707L33.288 45.7147H54.984L54.4667 51.528H33.792Z" fill="#111827"/>
</g>
<defs>
<clipPath id="clip0_146_27">
<rect width="64" height="64" fill="white" transform="translate(15 18)"/>
</clipPath>
</defs>
</svg>
