<svg width="94" height="94" viewBox="0 0 94 94" fill="none" xmlns="http://www.w3.org/2000/svg">
<rect width="94" height="94" rx="10" fill="#FFD15C"/>
<path d="M67.6664 15H26.3337C24.8448 14.9981 23.3702 15.2975 21.9943 15.8811C20.6184 16.4646 19.3682 17.3209 18.3154 18.4008C17.2627 19.4807 16.4279 20.763 15.859 22.1743C15.2901 23.5856 14.9982 25.0982 15 26.6254V67.3746C14.9982 68.9018 15.2901 70.4144 15.859 71.8257C16.4279 73.237 17.2627 74.5193 18.3154 75.5992C19.3682 76.6791 20.6184 77.5353 21.9943 78.1189C23.3702 78.7025 24.8448 79.0019 26.3337 79H67.6664C69.1552 79.0019 70.6298 78.7025 72.0057 78.1189C73.3816 77.5353 74.6318 76.6791 75.6846 75.5992C76.7373 74.5193 77.5721 73.237 78.141 71.8257C78.7099 70.4144 79.0018 68.9018 79 67.3746V26.6254C79.0018 25.0982 78.7099 23.5856 78.141 22.1743C77.5721 20.763 76.7373 19.4807 75.6846 18.4008C74.6318 17.3209 73.3816 16.4646 72.0057 15.8811C70.6298 15.2975 69.1552 14.9981 67.6664 15V15ZM76.3021 66.3079C76.3095 67.6122 76.0654 68.9052 75.5841 70.1124C75.1027 71.3197 74.3934 72.4174 73.497 73.3426C72.6007 74.2678 71.5349 75.0021 70.3609 75.5033C69.187 76.0046 67.928 76.2629 66.6564 76.2634H27.3456C24.7801 76.2596 22.3207 75.2125 20.5065 73.3517C18.6924 71.4909 17.6716 68.9682 17.6679 66.3366V27.6613C17.6716 25.0297 18.6924 22.507 20.5065 20.6462C22.3207 18.7854 24.7801 17.7383 27.3456 17.7345H66.6244C69.1909 17.7351 71.6522 18.7811 73.467 20.6426C75.2818 22.5041 76.3015 25.0287 76.3021 27.6613V66.3079ZM40.3032 44.9486L47.773 59.6613C47.909 59.8849 47.827 60.0983 47.615 60.0983H42.9691C42.6791 60.0983 42.5431 60.0244 42.4171 59.7454C40.7112 56.1349 38.9693 52.5245 37.1873 48.6452H37.1373C35.4976 52.3807 33.8061 56.0921 32.0635 59.7782C31.9415 59.9916 31.8055 60.0757 31.5855 60.0757H27.1876C26.9176 60.0757 26.8976 59.8521 27.0336 59.6921L34.3354 45.4163L27.2736 30.9723C27.1056 30.7487 27.2736 30.5866 27.4276 30.5866H32.0115C32.2815 30.5866 32.3875 30.642 32.4915 30.8841C34.1933 34.5232 35.8567 38.1811 37.4813 41.8571H37.5313C39.0833 38.2466 40.7932 34.4966 42.4371 30.9169C42.5731 30.6933 42.6551 30.5538 42.9171 30.5538H47.207C47.425 30.5538 47.509 30.7261 47.375 30.9395L40.3032 44.9486ZM49.0829 49.4043C49.0829 43.0367 53.2088 38.0558 59.7706 38.0558C60.3326 38.0558 60.6246 38.0558 61.1566 38.1112V30.8677C61.1566 30.6954 61.2906 30.5887 61.4265 30.5887H65.6344C65.8524 30.5887 65.9064 30.6728 65.9064 30.802V55.9216C65.9064 56.658 65.9064 57.5873 66.0424 58.5905C66.0424 58.7628 65.9884 58.8141 65.8244 58.9023C63.6921 59.9415 61.3614 60.4818 59.0006 60.4839C53.2088 60.5147 49.0829 56.8509 49.0829 49.4043V49.4043ZM61.1586 42.4048C60.666 42.2117 60.1418 42.1177 59.6146 42.1279C56.2527 42.1279 53.9088 44.7865 53.9088 49.1909C53.9088 54.223 56.3027 56.2416 59.3246 56.2416C59.9586 56.2416 60.6586 56.1678 61.1586 55.9442V42.4048Z" fill="black"/>
</svg>
