<svg width="94" height="94" viewBox="0 0 94 94" fill="none" xmlns="http://www.w3.org/2000/svg">
<rect width="94" height="94" rx="10" fill="#5FC9E1"/>
<path d="M37.8381 52.8512C35.8197 51.2726 33.6658 49.7598 32.1942 47.6282C29.0969 43.8695 26.7129 39.5186 25.083 34.9454C24.0973 31.9715 23.7601 28.7833 22.4889 25.9248C21.1609 23.8481 22.7176 21.5794 25.0057 20.9197C26.0236 20.7247 27.8146 19.7693 25.6527 20.4528C23.714 21.8661 23.5272 19.1688 25.5148 18.9979C26.8713 18.8191 27.3707 17.7156 26.9063 16.7224C25.4497 15.7777 30.4371 14.7414 27.9273 13.3323C25.3145 10.5289 31.5836 9.98941 30.0365 13.1735C29.6667 15.6216 34.4185 12.7239 33.315 15.5513C34.4362 16.9094 37.512 15.8611 37.4347 17.7652C39.0674 17.8769 39.6278 19.2415 41.1589 19.3466C42.7483 20.0597 45.6266 20.621 46.1665 22.4001C44.591 23.6396 40.9437 19.8392 40.7677 23.271C41.2442 28.3417 41.1226 33.5649 42.9881 38.3934C43.8705 41.3166 46.0109 43.6177 47.9427 45.8949C49.792 48.1247 52.2966 49.6953 54.8498 51.0169C57.089 52.0667 59.5029 52.7623 61.9437 53.1998C62.9332 52.4474 64.6809 49.6495 66.2242 50.8285C66.2987 52.1556 63.1609 53.6008 66.0769 53.4541C67.7907 52.94 68.9781 54.7701 70.3886 53.1188C71.6882 54.6492 75.7902 52.1418 74.8656 55.2697C73.6148 56.0717 71.7912 55.587 70.539 56.6908C68.4745 55.6652 66.8307 57.6073 64.5444 57.3623C62.0061 57.8143 59.4228 57.9962 56.8495 58C52.6269 57.6689 48.3153 57.529 44.2985 56.0676C42.0351 55.4137 39.8271 54.1324 37.8381 52.8512ZM41.404 54.3881C43.6133 55.3369 45.7742 56.338 48.196 56.6409C52.0381 57.1711 56.006 57.9893 59.8616 57.2438C58.1166 56.4607 56.312 57.548 54.5736 56.6839C52.489 57.1294 50.2512 56.5696 48.1309 56.2936C45.7212 55.2266 43.1195 54.4931 40.8626 53.1068C38.0412 52.0829 42.3206 54.4204 43.0828 54.6103C44.8454 55.6046 41.144 54.1 40.6214 53.687C39.1447 52.8632 38.9565 53.0355 40.4755 53.8713C40.7812 54.049 41.0834 54.2361 41.404 54.3881ZM37.199 51.4341C39.3408 52.2227 37.1897 49.9375 36.2096 50.0695C35.775 49.3198 34.5485 48.8461 35.4135 48.4437C33.8581 48.9808 33.7836 46.4021 33.0527 46.7711C31.4065 46.2543 32.4122 44.4238 30.4506 43.299C30.2718 42.1145 28.5026 41.0879 27.9394 39.3019C27.6902 38.3868 25.9397 35.7612 27.0148 38.2049C27.9297 40.5573 29.5395 42.5734 30.8797 44.5854C31.9194 46.5016 33.1487 48.5057 35.0427 49.7009C35.6818 50.3103 36.2976 51.2429 37.199 51.4341ZM31.0315 44.7012C31.1057 44.3794 31.4228 45.3968 31.0315 44.7012V44.7012ZM39.7647 52.3788C40.2385 52.1676 39.0823 52.1125 39.7647 52.3788V52.3788ZM40.9261 52.8002C40.8058 52.2186 40.3955 53.1257 40.9261 52.8002V52.8002ZM42.3816 53.4031C43.0734 52.7475 41.3135 52.9896 42.3816 53.4031V53.4031ZM44.8752 54.7849C45.2963 54.1672 43.5281 54.5524 44.8752 54.7849V54.7849ZM40.087 51.4665C41.1617 50.7747 38.6966 51.4569 40.087 51.4665V51.4665ZM41.178 52.0074C41.1468 51.6426 40.7895 52.1714 41.178 52.0074V52.0074ZM46.6323 55.392C47.5095 55.9425 51.7539 56.5978 49.0964 55.618C48.6507 55.711 44.1686 54.357 46.6323 55.392ZM37.9736 48.6873C37.8884 48.3214 36.6116 48.2821 37.9736 48.6873V48.6873ZM40.5119 50.1598C41.1738 49.7009 39.1405 49.8056 40.5119 50.1598V50.1598ZM42.6482 51.461C43.5971 51.1058 41.1104 51.1044 42.6482 51.461V51.461ZM36.9391 47.569C37.9681 48.3534 41.09 47.6699 38.515 47.1008C37.3439 46.4803 34.7041 46.0551 36.5035 47.4749L36.9391 47.569ZM44.0954 51.9106C44.5245 51.1851 42.2974 51.4958 44.0954 51.9106V51.9106ZM41.921 50.1932C44.4364 50.8998 39.8052 48.6105 41.3 49.932L41.6317 50.0816L41.921 50.1932ZM46.2805 52.6978C48.6632 52.7206 44.128 52.3709 46.2805 52.6978V52.6978ZM36.0228 46.1988C35.9292 45.7575 35.4354 46.2353 36.0228 46.1988V46.1988ZM50.3108 54.9451C50.3742 54.1486 49.5334 55.5387 50.3108 54.9451V54.9451ZM40.0894 48.6738C39.9446 48.2539 39.345 48.6563 40.0894 48.6738V48.6738ZM36.2488 45.9218C37.6163 45.8398 34.3752 45.323 36.2488 45.9218V45.9218ZM31.6986 42.9986C31.5281 42.346 30.2108 41.8265 31.6986 42.9986V42.9986ZM43.6432 50.5339C43.3929 50.2497 43.5253 50.5956 43.6432 50.5339V50.5339ZM51.0767 55.0692C51.0538 54.6344 50.6719 55.2332 51.0767 55.0692V55.0692ZM42.9854 49.8583C43.1195 49.2985 41.8185 49.6885 42.9854 49.8583V49.8583ZM37.4468 46.3687C38.4651 46.2608 35.8155 45.6848 37.4468 46.3687V46.3687ZM46.8153 52.1556C48.4019 51.5309 45.2693 51.8514 46.8153 52.1556V52.1556ZM41.9429 48.8678C43.7703 49.1017 39.7675 47.631 41.5409 48.7359L41.9429 48.8678ZM48.2948 52.7502C50.002 51.737 49.4388 55.1257 51.1907 53.0368C52.918 51.7828 49.6988 54.5872 51.827 53.2604C53.3675 52.2362 55.6417 53.7462 57.0783 54.2375C58.111 54.1875 59.1157 55.1257 60.1755 54.5548C62.2144 54.0084 56.1876 53.7448 57.7672 52.7771C55.9017 53.3169 54.5237 52.1339 53.6056 50.9456C51.5127 50.465 49.0936 49.4018 48.0484 47.5597C47.6221 46.8693 48.6632 47.6579 47.6803 46.5275C46.4199 45.413 45.7905 44.1465 44.9442 42.7915C43.9329 42.2558 43.8137 40.6772 43.7121 42.7391C43.7204 41.4375 42.4912 40.5614 42.1907 40.9249C42.1851 39.6719 43.5066 40.3003 42.582 39.3732C42.383 38.0743 41.7277 36.7207 41.5312 35.2538C41.2255 34.5471 41.4878 33.0333 40.4863 34.6333C40.122 36.3249 40.3656 32.5555 40.933 33.7975C41.6774 32.53 40.6647 32.6792 40.6242 32.8542C41.109 31.7844 40.9316 30.2661 40.497 30.8449C40.7555 29.7104 40.9059 26.6704 40.1113 27.2099C40.593 26.023 41.0252 21.781 38.9319 23.3988C38.0845 23.4109 36.6158 23.7044 35.9226 24.0476C38.098 25.2399 35.7033 24.4782 34.8164 24.2884C34.7013 25.3919 33.8242 24.9154 32.7276 24.9261C34.4795 25.1414 31.8747 26.7066 30.8717 26.0985C29.5665 26.7176 31.9967 28.2652 30.8974 28.7441C31.0329 29.4641 28.8991 28.4832 29.0658 30.1493C27.7997 29.6188 28.8925 32.1248 29.526 31.277C31.6799 31.8571 31.0422 33.1773 31.0963 34.4328C30.7456 35.1635 29.3635 32.7143 30.7889 32.8273C29.6639 31.0117 29.5451 32.1706 28.6107 33.0144C28.3941 33.075 30.9934 34.2147 29.3621 34.7773C30.7972 34.9981 30.8392 36.247 31.1317 37.037C31.9939 37.9303 31.8165 36.0503 32.8496 37.1245C32.1956 36.1674 29.3891 34.4286 31.6487 34.9861C31.6366 34.0238 31.2398 33.2473 31.9329 33.2659C32.6195 32.0318 31.2141 36.3101 32.7602 34.7411C33.1879 34.5554 33.2949 33.5057 34.064 34.8407C35.1806 35.9335 34.4674 36.7245 32.8915 35.7233C33.1729 36.6749 34.9994 37.0139 34.6556 38.5012C35.0195 39.8093 35.5286 39.3274 35.9725 39.2519C36.3205 40.5225 36.5184 39.5885 36.5347 38.9828C38.1278 39.3222 37.7542 40.2586 38.2537 40.9128C39.3516 41.4052 36.682 37.5738 38.5666 39.7608C40.5497 41.5412 39.311 42.284 37.5311 41.9988C38.6574 41.9085 39.0199 43.5129 40.4294 43.4564C41.7141 44.0645 42.5847 46.3983 40.3698 45.4264C39.6022 44.7374 36.8823 43.8881 39.1041 45.1976C41.1537 46.1423 42.7837 46.7063 44.7615 47.8921C46.1762 48.8961 46.7879 50.0464 47.3241 50.2741C46.1343 50.8392 43.7395 49.8232 45.5181 49.5124C44.408 49.3119 43.16 48.7534 44.2226 50.1274C45.1268 50.8784 47.4242 50.7988 47.8373 50.8836C47.488 51.6481 46.8884 51.7087 47.8508 51.768C46.7772 52.3371 48.196 52.426 48.2948 52.7502ZM46.0989 46.5854C45.445 45.9056 45.2758 44.634 45.9825 45.7399C46.3454 45.8853 47.1428 47.8194 46.0989 46.5854ZM53.2511 51.1017C53.6587 51.0748 53.2632 51.4097 53.2511 51.1017V51.1017ZM45.0676 44.9193C45.0416 43.8923 45.3029 45.7117 45.0676 44.9193V44.9193ZM44.3567 43.9691C43.5336 42.3905 45.3923 44.4159 44.3567 43.9691V43.9691ZM35.741 38.0585C36.2245 37.9303 35.9795 38.8791 35.741 38.0585V38.0585ZM42.5982 41.7524C42.8946 40.6448 42.9462 42.6813 42.5982 41.7524V41.7524ZM37.7542 38.404C37.4132 37.7932 38.4678 38.9777 37.7542 38.404V38.404ZM41.9103 39.7284C41.1319 37.9951 42.4627 38.781 42.0836 40.0123L41.9103 39.7284ZM34.7422 34.9764C34.3943 34.4073 33.819 32.7384 34.0044 32.2285C34.1707 33.0588 35.7792 35.8002 34.7921 33.3644C33.7025 31.3228 36.0959 34.0262 36.3423 34.5365C36.4574 35.0426 35.6693 34.398 36.2027 35.5862C35.2295 34.2336 35.6287 36.3331 34.7422 34.9764ZM32.5273 33.4585C32.6181 32.1355 33.0336 34.3656 32.5273 33.4585V33.4585ZM33.5237 33.8002C33.9988 32.8018 34.3291 35.1917 33.5237 33.8002V33.8002ZM31.1261 31.9567C30.3016 31.1409 29.7045 30.3902 31.1653 31.4506C31.7271 31.472 29.9145 29.7428 31.3008 30.9014C32.7574 31.1653 32.0196 33.2769 31.1261 31.9567ZM32.3852 31.9243C32.8645 31.452 32.6396 32.3887 32.3852 31.9243V31.9243ZM33.1608 32.1706C32.4337 30.8181 34.0421 32.7384 33.1608 32.1706V32.1706ZM31.6203 30.7078C29.2228 28.5852 34.6324 31.8165 32.0116 31.1006L31.6203 30.7078ZM38.4907 34.675C37.4524 34.0572 38.2145 30.3216 38.5694 32.8759C39.5779 32.5513 38.5136 34.1961 39.2649 34.1799C39.1475 35.2172 38.8102 35.5904 38.4907 34.675ZM41.0318 36.1688C41.1333 35.0426 41.2456 36.9388 41.0318 36.1688V36.1688ZM40.5906 35.734C40.7042 35.2538 40.6013 36.3008 40.5906 35.734V35.734ZM32.0899 30.0105C30.5494 27.8976 36.5669 32.1476 33.077 30.5462C32.7127 30.4508 32.2729 30.417 32.0899 30.0105ZM36.9838 32.5892C36.8379 30.8101 37.3089 32.8838 36.9838 32.5892V32.5892ZM40.6987 34.9588C40.9857 33.9456 40.7205 35.6293 40.6987 34.9588V34.9588ZM32.327 29.2043C33.2423 29.0093 36.1202 30.8019 33.4776 29.7159C33.184 29.3928 32.5571 29.5395 32.327 29.2043ZM40.1882 33.0991C40.2859 31.2797 40.7354 32.0132 40.1924 33.3603L40.1882 33.0991ZM33.008 28.5708C33.3816 28.0268 32.0168 26.1119 33.2041 27.8841C33.7174 28.2893 34.6892 28.5625 33.8311 28.7334C35.1806 29.9165 33.5022 29.0538 33.008 28.5708ZM39.7997 32.5314C40.0572 30.4587 40.0274 33.7451 39.7997 32.5314V32.5314ZM32.2282 26.6569C32.5138 26.5357 32.3797 27.0349 32.2282 26.6569V26.6569ZM34.0002 27.7053C34.4563 26.7538 34.841 28.7658 34.0002 27.7053V27.7053ZM38.997 30.468C38.9929 30.1035 39.0917 30.9996 38.997 30.468V30.468ZM38.7073 29.8317C38.0142 28.1305 39.353 30.7319 38.7073 29.8317V29.8317ZM38.2821 28.7158C38.166 28.0133 38.6775 29.5988 38.2821 28.7158V28.7158ZM38.9752 27.5961C38.4987 26.7631 39.5765 23.9221 39.6971 25.684C39.1946 27.0566 39.5522 27.8238 39.9012 25.9827C40.5486 24.5347 39.7619 28.8426 38.9752 27.5961ZM39.6874 23.372C39.8947 23.1187 39.7335 23.6772 39.6874 23.372V23.372ZM38.4976 46.6715C38.2159 46.4265 38.534 46.8262 38.4976 46.6715V46.6715ZM40.9479 47.9028C42.3109 48.2515 42.3044 47.6927 41.0723 47.5259C40.4104 46.9137 38.3188 46.2636 40.191 47.4505C40.3144 47.7629 40.7056 47.7547 40.9479 47.9028ZM36.1094 44.7077C36.8594 45.2652 38.9374 46.2849 37.1789 44.9206C37.7719 44.2354 36.0443 43.8709 36.6172 43.412C35.1591 42.5249 35.4662 42.6044 36.4886 42.6327C34.7367 41.8534 36.7416 41.9126 36.647 41.513C35.9715 41.381 33.2908 40.3285 34.868 41.5991C33.2651 40.7874 34.4861 41.902 34.0016 41.7848C32.362 41.3407 35.461 43.0258 33.7417 42.6072C34.6812 43.3472 36.272 44.5048 34.1381 43.3903C33.8581 43.7927 35.6655 44.4025 36.1094 44.7077ZM38.672 46.1719C41.7873 47.1693 37.1436 44.9513 38.672 46.1719V46.1719ZM51.7903 54.0718C51.8309 53.4568 51.3651 54.5965 51.7903 54.0718V54.0718ZM53.1388 54.6358C53.8576 53.944 53.1686 55.7393 54.33 54.4663C54.3421 53.555 54.295 53.0169 52.9953 54.1242C52.6363 54.3223 52.4769 55.1605 53.1388 54.6358ZM31.7354 41.2736C31.5146 40.4109 30.1879 40.4147 31.7354 41.2736V41.2736ZM33.1743 42.2113C32.6396 41.3301 31.2668 41.4134 33.1743 42.2113V42.2113ZM41.3662 47.1221C42.1664 47.8287 45.0391 47.6403 42.3369 47.2096C41.9373 46.6215 39.7973 46.7628 41.3662 47.1221ZM52.6255 54.0356C53.8562 53.0086 51.433 54.4931 52.6255 54.0356V54.0356ZM55.1856 55.7837C55.1936 55.454 54.655 55.9277 55.1856 55.7837V55.7837ZM55.1898 55.322C56.5529 53.8875 53.8697 55.4068 55.1898 55.322V55.322ZM28.1938 38.3262C27.0324 36.679 27.4722 35.9387 26.3514 34.593C26.1386 33.5635 24.429 31.2298 25.4673 33.702C26.4176 35.1487 26.6994 37.3881 28.1938 38.3262ZM54.7618 54.8659C57.2706 53.2549 53.7332 54.1648 54.7618 54.8659V54.8659ZM56.6762 55.6114C57.9325 54.54 55.8815 55.3879 56.6762 55.6114V55.6114ZM31.3088 39.4524C31.6678 38.9208 30.3803 39.3839 31.3088 39.4524V39.4524ZM56.2766 55.1026C57.4924 54.3236 55.9966 54.4432 56.0562 55.1739L56.2766 55.1026ZM39.7768 44.7642C39.7349 44.2368 39.1339 44.8087 39.7768 44.7642V44.7642ZM40.7961 45.3472C40.4714 44.6957 40.2981 45.4495 40.7961 45.3472V45.3472ZM58.2275 55.629C59.7857 54.5117 57.2841 55.4147 57.9014 55.8416L58.2275 55.629ZM57.6307 55.3424C58.9005 54.2857 56.2915 55.8106 57.6307 55.3424V55.3424ZM60.6791 57.3595C61.531 56.7928 59.6436 57.1766 60.6791 57.3595V57.3595ZM32.0899 39.069C33.2312 39.3232 36.6535 41.8641 34.6351 39.2454C33.601 38.9412 34.221 36.4286 33.1664 36.8727C33.8744 38.0488 33.7483 38.5481 32.2618 37.808C30.3952 36.9009 31.2128 38.2563 31.5784 38.6304C31.08 38.7434 32.2362 39.0597 32.0899 39.069ZM26.8876 34.9847C27.0917 34.1434 25.0043 30.3605 25.9019 33.0884C26.2253 33.6604 26.1917 34.7435 26.8876 34.9847ZM36.4369 40.8374C35.8481 40.3489 36.4085 40.7675 36.4369 40.8374V40.8374ZM37.8842 41.1726C37.8842 40.2817 36.2841 40.8105 37.8842 41.1726V41.1726ZM50.4338 49.0359C50.1943 48.4275 49.4877 49.0225 50.4338 49.0359V49.0359ZM51.0362 49.4731C50.9468 49.1327 50.6882 49.5393 51.0362 49.4731V49.4731ZM56.0101 52.5886C56.488 52.2376 55.413 52.5432 56.0101 52.5886V52.5886ZM29.4855 35.6441C30.8541 35.1177 28.0191 35.2686 29.4855 35.6441V35.6441ZM49.329 48.0709C49.313 47.1907 48.456 48.2904 49.329 48.0709V48.0709ZM28.9452 34.3911C29.8237 34.0965 28.1314 34.1975 28.9452 34.3911V34.3911ZM31.4956 35.6196C31.4807 35.3306 31.2263 35.7302 31.4956 35.6196V35.6196ZM62.6126 54.5886C63.7428 54.3612 66.3192 55.1605 66.7347 54.2912C65.362 54.2575 61.9871 53.3276 61.8273 54.5117L62.1278 54.5589L62.6126 54.5886ZM32.3065 35.8229C32.327 34.9306 31.6068 35.7895 32.3065 35.8229V35.8229ZM25.6001 31.1977C25.2954 29.4979 24.4411 30.9404 25.6001 31.1977V31.1977ZM27.1988 31.5974C27.2192 31.051 25.7352 31.1061 27.1988 31.5974V31.5974ZM28.1127 32.0442C27.8486 31.8313 27.9068 32.3119 28.1127 32.0442V32.0442ZM33.8647 35.7113C34.1357 35.4636 33.2232 35.5283 33.8647 35.7113V35.7113ZM27.5048 31.0375C27.3492 29.7535 25.6514 30.8449 27.5048 31.0375V31.0375ZM24.2245 28.9218C24.1784 28.3296 23.905 29.1451 24.2245 28.9218V28.9218ZM24.7132 28.5559C24.6335 27.8531 24.2935 28.6445 24.7132 28.5559V28.5559ZM27.4074 30.1545C28.5473 29.7104 25.3318 29.234 27.1745 30.0711L27.4074 30.1545ZM63.4777 52.3034C64.2072 51.6388 62.5516 52.0977 63.4777 52.3034V52.3034ZM67.8354 54.5483C68.1279 53.6897 67.099 54.6613 67.8354 54.5483V54.5483ZM27.6833 28.7509C27.8039 27.9193 26.7791 28.9163 27.6833 28.7509V28.7509ZM23.8482 26.1967C23.6423 25.0232 23.6707 22.9627 25.6406 23.6586C23.0115 24.1781 27.4615 26.9084 26.8997 24.7524C28.0056 24.8065 29.063 24.1027 28.4821 25.1697C30.6617 24.9316 32.1714 23.0529 34.2764 23.3168C35.9157 23.1001 37.7082 22.9372 39.475 22.2805C40.9274 22.1768 42.3258 20.6223 41.5301 19.7004C39.5495 19.5337 37.4753 19.78 35.2863 20.2134C32.8603 20.714 30.6565 21.6666 28.2087 22.0759C25.8219 22.3949 28.688 22.9534 28.0042 23.0784C26.76 23.5077 29.4893 23.7971 27.8431 24.2505C26.8266 24.0582 25.7678 23.711 26.2024 22.645C23.9171 22.9413 21.9081 23.8832 23.714 26.1953L23.8482 26.1967ZM29.3569 23.4081C29.8916 21.4461 32.2268 25.0232 30.234 23.6693C29.997 23.4915 29.6043 23.3475 29.3569 23.4081ZM29.4608 22.4566C30.234 21.8847 29.8712 22.7783 29.4608 22.4566V22.4566ZM30.4423 22.4728C30.513 21.5698 32.6912 22.9506 30.8014 22.7973L30.4423 22.4728ZM31.7853 21.936C32.2767 21.3651 31.9277 22.4417 31.7853 21.936V21.936ZM32.1294 21.7072C32.947 20.7315 36.7551 21.084 33.9676 21.6115C33.2204 21.0516 32.6479 21.9412 32.1294 21.7072ZM37.1003 20.9455C36.9772 18.2793 39.571 21.8915 37.1003 20.9455V20.9455ZM38.5112 20.9372C39.0268 19.5943 40.5133 20.3977 38.7506 20.6668C38.7884 20.8108 38.698 21.3613 38.5112 20.9372ZM27.127 28.0619C28.6675 27.1238 25.4916 27.2478 27.127 28.0619V28.0619ZM28.2669 28.3754C28.8072 27.8049 27.0917 28.1439 28.2669 28.3754V28.3754ZM24.9097 26.0082C25.7896 25.3354 23.8672 25.7526 24.9097 26.0082V26.0082ZM70.4077 54.3033C70.4333 53.5226 69.7346 54.6544 70.4077 54.3033V54.3033ZM65.7844 51.1661C65.9158 50.2686 65.1901 51.2443 65.7844 51.1661V51.1661ZM71.6789 54.6061C72.9095 54.6103 75.4083 54.2251 72.7307 54.2265C72.3096 54.2912 70.2818 54.2778 71.6789 54.6061ZM29.2688 27.8249C30.2652 27.7577 30.827 26.7334 29.0751 26.7913C26.3608 26.5129 31.4699 27.716 28.7272 27.3715C28.3591 27.6137 29.247 27.8924 29.2688 27.8249ZM30.146 28.2665C30.0417 27.6313 29.8372 28.6042 30.146 28.2665V28.2665ZM31.1871 25.5076C31.6189 24.9747 30.5886 25.365 31.1871 25.5076V25.5076ZM27.8729 20.0019C29.6518 19.4017 32.0833 18.7261 32.9227 20.2981C32.0684 19.2766 32.5775 18.27 33.3844 19.7652C34.5256 21.2766 35.0968 19.0775 34.3547 18.57C35.2011 19.6143 36.1621 20.1083 34.9207 18.6362C36.2706 17.0224 32.2199 18.8474 31.2994 18.8284C30.8568 19.0262 26.7264 19.8754 27.8729 20.0019ZM28.9153 18.0185C29.9294 17.2581 32.423 18.4718 30.8229 17.2619C30.6659 17.1248 27.3194 18.1797 28.9153 18.0185ZM32.6125 18.1704C33.7985 18.2 32.101 16.5849 33.5143 17.317C33.2828 16.5635 31.8681 16.4223 31.1764 16.1208C30.7851 16.8099 31.9721 18.1797 32.6125 18.1704ZM29.5638 14.8341C29.9741 14.2811 28.8436 15.1155 29.5638 14.8341V14.8341ZM31.0748 15.1934C32.9875 14.9419 30.5872 14.3752 30.6887 15.1734L31.0748 15.1934ZM28.2534 12.9998C26.9063 11.2517 30.7865 13.2934 29.4175 11.4629C28.2655 10.552 27.1596 12.4899 28.2534 12.9998ZM45.5344 22.2523C46.152 21.1646 42.9854 20.7853 45.1188 21.8671C45.315 21.9319 45.2706 22.3274 45.5344 22.2523Z" fill="#111827"/>
<path d="M32.9232 63.0084C32.7876 63.5475 32.7034 64.4517 32.6718 65.721C32.6718 65.9705 32.5601 66.0952 32.3363 66.0952C32.1123 66.0952 31.9564 65.9864 31.8682 65.7695C31.6283 65.1826 31.4011 64.7732 31.1845 64.5396C30.9289 64.2668 30.5891 64.1017 30.1653 64.0456C29.7098 63.9729 28.5748 63.9369 26.7603 63.9369C26.3448 63.9369 26.0726 63.9813 25.9451 64.07C25.8652 64.126 25.8253 64.2466 25.8253 64.4316V69.893C25.8253 70.078 25.9411 70.1658 26.1724 70.1583C26.8844 70.15 27.9153 70.1013 29.2659 70.0134C29.5299 69.9809 29.7081 69.8947 29.7997 69.7539C29.8923 69.6133 29.9822 69.25 30.0696 68.6629C30.1253 68.3414 30.3135 68.2167 30.6332 68.2896C30.9048 68.3457 31.0214 68.4705 30.9814 68.6629C30.7573 69.7565 30.6848 71.179 30.7648 72.9311C30.7733 73.1397 30.6416 73.2526 30.3693 73.2687C30.1453 73.2929 30.0054 73.1723 29.9496 72.9069C29.7424 71.9023 29.3559 71.3657 28.7929 71.2969C28.2293 71.2291 27.3116 71.1948 26.0408 71.1948C25.8969 71.1948 25.8253 71.2467 25.8253 71.3513V76.7767C25.8253 77.1786 25.9726 77.4523 26.2683 77.5963C26.5007 77.717 27.0001 77.8256 27.7671 77.9221C28.1594 77.9622 28.3308 78.1355 28.2834 78.4403C28.235 78.7057 27.8837 78.8103 27.2276 78.7541C25.3331 78.6011 23.7701 78.6094 22.5394 78.7785C22.1954 78.8261 22.024 78.6855 22.024 78.3565C22.024 78.1471 22.1954 78.0267 22.5394 77.9947C23.3229 77.906 23.7143 77.2146 23.7143 75.9211V65.6004C23.7143 65.0705 23.6202 64.6627 23.4329 64.3772C23.2446 64.0917 22.8948 63.8321 22.3836 63.5994C22.0639 63.4547 21.9441 63.2579 22.024 63.0084C22.0639 62.856 22.128 62.7714 22.2154 62.7555C22.2954 62.7313 22.5077 62.7472 22.8507 62.804C23.3546 62.8843 24.542 62.9246 26.4122 62.9246C28.619 62.9246 30.525 62.876 32.1323 62.7797C32.6676 62.7472 32.9357 62.7915 32.9357 62.912C32.9357 62.9448 32.9317 62.9765 32.9232 63.0084Z" fill="#111827"/>
<path d="M40.6994 78.3129C40.6994 78.6344 40.5195 78.775 40.1599 78.7347C39.0573 78.6301 37.69 78.646 36.0595 78.7825C35.7314 78.8151 35.5299 78.8067 35.4534 78.7591C35.3775 78.7105 35.34 78.5782 35.34 78.3605C35.34 78.168 35.5574 78.0056 35.993 77.8725C36.4293 77.7402 36.6465 77.3441 36.6465 76.6853V65.7745C36.6465 65.1231 36.5525 64.645 36.3652 64.3393C36.1769 64.0339 35.8471 63.7969 35.3758 63.6286C35.1277 63.5399 35.0036 63.4151 35.0036 63.2544C35.0036 63.0133 35.1835 62.8324 35.5432 62.7119C36.087 62.5351 36.6508 62.2622 37.2345 61.8921C37.7141 61.6025 38.0181 61.4585 38.1454 61.4585C38.441 61.4585 38.5894 61.6628 38.5894 62.073C38.5894 62.0413 38.5734 62.4431 38.541 63.2786C38.5178 64.074 38.5095 64.8576 38.5178 65.6296L38.5651 76.3955C38.5651 76.8861 38.6851 77.2421 38.925 77.4631C39.1648 77.6841 39.5768 77.8307 40.1599 77.9027C40.5195 77.9428 40.6994 78.0793 40.6994 78.3129Z" fill="#111827"/>
<path d="M51.5447 77.6019C51.5447 77.771 51.239 78.0256 50.6278 78.3671C50.0158 78.7087 49.5261 78.8795 49.1588 78.8795C48.8465 78.8795 48.5711 78.7271 48.3313 78.4215C48.0915 78.1161 47.9231 77.9637 47.8273 77.9637C47.7557 77.9637 47.376 78.1285 46.6881 78.4575C46.0013 78.7874 45.3093 78.9524 44.614 78.9524C43.9587 78.9524 43.4106 78.7591 42.971 78.3739C42.4914 77.9476 42.2516 77.3691 42.2516 76.6374C42.2516 75.2468 43.8346 74.2504 47.0004 73.6477C47.5434 73.5431 47.8199 73.3219 47.8273 72.9846L47.8516 72.2127C47.8998 70.8948 47.3202 70.236 46.1128 70.236C45.7689 70.236 45.4434 70.5448 45.1352 71.1636C44.828 71.7832 44.3859 72.1163 43.8103 72.1649C43.155 72.2286 42.8269 71.9515 42.8269 71.3327C42.8269 70.9467 43.3149 70.4972 44.2899 69.9822C45.3134 69.444 46.297 69.1744 47.2403 69.1744C48.8625 69.1744 49.666 69.9505 49.6502 71.5018L49.6018 76.4683C49.5943 76.9908 49.8143 77.2519 50.2614 77.2519C50.3496 77.2519 50.5178 77.232 50.7651 77.1917C51.0134 77.1516 51.1573 77.1314 51.1974 77.1314C51.4289 77.1314 51.5447 77.2888 51.5447 77.6019ZM47.8516 74.8533C47.86 74.6523 47.8133 74.5192 47.7133 74.4555C47.6133 74.3912 47.456 74.3786 47.2403 74.4189C45.3134 74.7646 44.35 75.3958 44.35 76.3118C44.35 77.236 44.8495 77.6981 45.8489 77.6981C46.2486 77.6981 46.6608 77.6221 47.0838 77.4697C47.5801 77.2922 47.8273 77.0796 47.8273 76.8301L47.8516 74.8533Z" fill="#111827"/>
<path d="M60.4596 76.2147C60.4596 77.0669 60.133 77.7444 59.482 78.2466C58.8307 78.749 57.9414 79.0002 56.8139 79.0002C56.0629 79.0002 55.3108 78.9198 54.5598 78.7591C53.912 78.6142 53.5363 78.4819 53.4323 78.3613C53.3681 78.2483 53.3366 77.6984 53.3366 76.7094C53.3366 76.2833 53.4323 76.0624 53.6246 76.0465C53.8162 76.0221 53.9802 76.1269 54.116 76.3596C54.7154 77.4129 55.683 77.9395 57.0179 77.9395C58.1445 77.9395 58.7084 77.5451 58.7084 76.7572C58.7084 76.4124 58.5809 76.1226 58.3244 75.8898C58.0445 75.6245 57.5018 75.3148 56.6941 74.9613C55.5265 74.439 54.7472 73.981 54.3558 73.5866C53.9318 73.1689 53.7203 72.6063 53.7203 71.8987C53.7203 71.0305 54.0518 70.3558 54.7154 69.8735C55.3308 69.4071 56.1543 69.1744 57.1852 69.1744C57.8331 69.1744 58.4244 69.2262 58.9606 69.3311C59.5361 69.4356 59.8359 69.5638 59.8599 69.7169C59.9233 70.1665 60.0556 70.8179 60.2556 71.6703C60.2797 71.774 60.1671 71.8587 59.9198 71.923C59.6559 71.9791 59.4803 71.9348 59.392 71.7907C58.7608 70.7534 57.9614 70.2351 56.9938 70.2351C55.8987 70.2351 55.3509 70.5885 55.3509 71.296C55.3509 71.6902 55.499 72.0033 55.7947 72.2361C56.0586 72.4372 56.6781 72.7511 57.6534 73.1772C58.6766 73.6192 59.372 74.017 59.7401 74.3702C60.2198 74.8282 60.4596 75.4436 60.4596 76.2147Z" fill="#111827"/>
<path d="M74.5666 78.3247C74.5666 78.6059 74.3784 78.7551 74.0028 78.7709C73.4432 78.7793 72.7112 78.8194 71.8086 78.8914C71.3607 78.9801 71.0409 78.9242 70.8493 78.7231C69.586 77.3568 68.5144 75.9259 67.6351 74.4307C67.5634 74.3025 67.4718 74.238 67.3594 74.238C67.2236 74.238 66.9881 74.3587 66.6525 74.5998C66.2761 74.8084 66.0887 75.1063 66.0887 75.4914C66.0887 75.7651 66.0962 76.1587 66.1128 76.6737C66.1288 77.1877 66.256 77.525 66.4959 77.6858C66.6641 77.7989 67.0522 77.8868 67.6592 77.9513C68.0348 77.9998 68.223 78.1404 68.223 78.3731C68.223 78.5583 68.1929 78.673 68.133 78.7165C68.0731 78.7609 67.9147 78.7709 67.6592 78.7467C66.8597 78.6747 65.5091 78.7148 63.6065 78.8672C63.1269 78.9075 62.867 78.847 62.8269 78.6863C62.8111 78.6303 62.8028 78.55 62.8028 78.4451C62.8028 78.1965 63.0469 78.0073 63.5349 77.8793C63.9744 77.7661 64.1942 77.2479 64.1942 76.3237V65.7863C64.1942 65.1274 64.1303 64.6694 64.0019 64.4124C63.8263 64.0826 63.4581 63.8254 62.8985 63.6404C62.6355 63.5525 62.5031 63.4278 62.5031 63.267C62.5031 63.0334 62.6913 62.8525 63.0667 62.7246C63.6664 62.5235 64.2375 62.2464 64.7813 61.8923C65.2211 61.6034 65.4933 61.4585 65.5965 61.4585C65.9248 61.4585 66.0887 61.667 66.0887 62.0856C66.0887 62.0288 66.0846 62.4273 66.0761 63.2788C66.0687 63.8657 66.0646 64.6535 66.0646 65.6423L66.0887 73.1891C66.0887 73.3983 66.1446 73.5022 66.256 73.5022C66.3761 73.5022 66.56 73.3983 66.8082 73.1891C67.4718 72.6665 68.2872 71.9835 69.2539 71.1394C69.4462 70.9386 69.5419 70.7779 69.5419 70.6572C69.5419 70.4405 69.2181 70.2873 68.5711 70.1994C68.2912 70.1666 68.1588 70.0101 68.1746 69.7287C68.1987 69.4475 68.3388 69.3268 68.5943 69.3671C69.1706 69.4475 70.01 69.4919 71.1124 69.5002C71.8802 69.5077 72.6438 69.512 73.4033 69.512C73.6506 69.5204 73.7747 69.6685 73.7747 69.9583C73.7747 70.2311 73.579 70.3801 73.1876 70.4045C72.5713 70.4279 71.9917 70.5685 71.449 70.8263C70.6894 71.1714 69.8774 71.7784 69.0141 72.6466C68.9508 72.6951 68.9182 72.7553 68.9182 72.8273C68.9182 72.9396 69.054 73.2092 69.3264 73.6353C70.3255 75.1624 71.269 76.3153 72.1558 77.0955C72.7237 77.5855 73.255 77.8307 73.7504 77.8307C74.1185 77.8307 74.3466 77.8566 74.434 77.9093C74.5225 77.9614 74.5666 78.1003 74.5666 78.3247Z" fill="#111827"/>
</svg>
