<svg width="94" height="94" viewBox="0 0 94 94" fill="none" xmlns="http://www.w3.org/2000/svg">
<rect width="94" height="94" rx="10" fill="#FFD15C"/>
<path d="M47 24.6265L45.4928 24.4195L26.4475 57.505C27.2696 58.2295 27.8177 59.161 28.0575 60.196H65.9425C66.1823 59.161 66.7304 58.2295 67.5525 57.505L48.5072 24.4195L47 24.6265ZM28.5028 63.1285L43.1635 71.857C44.1569 70.9255 45.5271 70.3735 47 70.3735C48.4729 70.3735 49.8431 70.9255 50.8365 71.857L65.4972 63.1285H28.5028ZM47 82C45.4738 82 44.01 81.3894 42.9308 80.3024C41.8516 79.2154 41.2453 77.7412 41.2453 76.204L41.5536 74.272L26.8243 65.4745C25.7624 66.7165 24.221 67.4755 22.474 67.4755C20.9478 67.4755 19.4841 66.8649 18.4048 65.7779C17.3256 64.6909 16.7193 63.2167 16.7193 61.6795C16.7193 58.954 18.5348 56.677 21.0354 56.0215V38.392C18.1923 38.0125 16 35.563 16 32.596C16 31.0588 16.6063 29.5846 17.6855 28.4976C18.7647 27.4106 20.2285 26.8 21.7547 26.8C23.6387 26.8 25.2829 27.697 26.3448 29.077L41.4508 20.3485L41.2453 18.796C41.2453 15.5875 43.8144 13 47 13C50.1856 13 52.7547 15.5875 52.7547 18.796L52.5492 20.3485L67.6553 29.077C68.7171 27.697 70.3613 26.8 72.2453 26.8C73.7715 26.8 75.2353 27.4106 76.3145 28.4976C77.3937 29.5846 78 31.0588 78 32.596C78 35.563 75.8077 38.0125 72.9646 38.392V56.0215C75.4652 56.677 77.2807 58.954 77.2807 61.6795C77.2807 63.2167 76.6744 64.6909 75.5951 65.7779C74.5159 66.8649 73.0522 67.4755 71.526 67.4755C69.779 67.4755 68.2376 66.7165 67.1757 65.4745L52.4464 74.272L52.7547 76.204C52.7547 77.7412 52.1484 79.2154 51.0692 80.3024C49.99 81.3894 48.5262 82 47 82ZM42.8895 22.867L27.4751 31.768L27.5436 32.596C27.5436 35.0455 26.0365 37.15 23.9127 38.0125L24.0155 56.125L42.8895 22.867ZM51.1105 22.867L69.9845 56.125L70.0873 38.0125C67.9635 37.15 66.4564 35.0455 66.4564 32.596L66.5249 31.768L51.1105 22.867Z" fill="#111827"/>
</svg>
