<svg width="94" height="94" viewBox="0 0 94 94" fill="none" xmlns="http://www.w3.org/2000/svg">
<rect width="94" height="94" rx="10" fill="#FFD15C"/>
<g clip-path="url(#clip0_146_19)">
<path d="M28.5467 18H31.432V20.8507H34.072V18H36.9573V26.6293H34.072V23.7413H31.432V26.6293H28.5493V18H28.5467ZM40.7493 20.8613H38.2107V18H46.176V20.8613H43.6347V26.6293H40.7493V20.8613ZM47.44 18H50.448L52.2987 21.032L54.1467 18H57.1547V26.6293H54.2827V22.352L52.2987 25.4213H52.248L50.2613 22.3547V26.6293H47.44V18ZM58.5893 18H61.4773V23.7787H65.5307V26.632H58.5893V18Z" fill="#111827"/>
<path fill-rule="evenodd" clip-rule="evenodd" d="M28.456 76.8587L23 30.5787H71L65.5413 76.8533L46.9733 82L28.456 76.8587ZM39.488 51.5253L38.9707 45.712H60.6907L61.1973 40.0373H32.7707L34.3013 57.2027H53.9733L53.3147 64.5627L46.984 66.2747H46.9787L40.6587 64.568L40.2533 60.0427H34.552L35.3467 68.9547L46.9733 72.1813L58.6187 68.9547L60.0373 53.0507L60.176 51.528H39.488V51.5253Z" fill="#111827"/>
</g>
<defs>
<clipPath id="clip0_146_19">
<rect width="64" height="64" fill="white" transform="translate(15 18)"/>
</clipPath>
</defs>
</svg>
