<svg width="94" height="94" viewBox="0 0 94 94" fill="none" xmlns="http://www.w3.org/2000/svg">
<rect width="94" height="94" rx="10" fill="#FFD15C"/>
<path fill-rule="evenodd" clip-rule="evenodd" d="M47.0956 61.5979C47.0956 62.2493 47.0956 62.8402 47.0956 63.4951C52.0739 63.4951 57.0256 63.4951 61.9735 63.4951C61.9735 65.8077 61.9735 68.0565 61.9728 70.3051C61.9728 70.3253 61.9628 70.3452 61.9592 70.3657C61.6306 72.2723 60.5693 73.6959 59.0277 74.7964C57.1211 76.1575 54.932 76.8155 52.6871 77.3359C47.4467 78.5513 42.33 78.1279 37.3909 76.0289C36.2168 75.5301 35.1202 74.7494 34.1386 73.92C32.7328 72.732 32.0545 71.1163 32.0526 69.2538C32.0481 64.4513 32.0031 59.6484 32.0664 54.8469C32.1234 50.5278 35.4747 47.2903 39.7908 47.2776C44.5888 47.2637 49.3879 47.2108 54.1845 47.2918C59.0339 47.3739 63.154 43.6746 63.8229 39.0683C63.8999 38.5384 63.9076 37.9957 63.9106 37.4585C63.9206 35.5749 63.9145 33.6912 63.9145 31.8074C63.9145 31.5856 63.9145 31.3636 63.9145 31.079C64.6847 31.079 65.3823 31.079 66.0801 31.079C67.1968 31.0791 68.3137 31.0878 69.4304 31.0776C72.0877 31.0533 74.0688 32.2126 75.4251 34.4811C76.4156 36.1374 76.9095 37.9688 77.3291 39.8295C77.9738 42.6881 78.3646 45.5709 78.1517 48.5084C77.9015 51.9635 76.9028 55.2062 75.2518 58.2378C73.9867 60.5608 71.975 61.6145 69.3343 61.6057C62.1994 61.5823 55.0643 61.5978 47.9294 61.5979C47.664 61.5979 47.3985 61.5979 47.0956 61.5979ZM55.5327 67.3286C53.9492 67.3131 52.7016 68.5443 52.6885 70.1352C52.6754 71.7223 53.9077 73.0203 55.4521 73.0461C56.9921 73.0718 58.2832 71.7891 58.2998 70.2164C58.3166 68.6166 57.0972 67.3438 55.5327 67.3286Z" fill="#111827"/>
<path fill-rule="evenodd" clip-rule="evenodd" d="M47.0202 31.0789C47.0202 30.4298 47.0202 29.8431 47.0202 29.183C42.0325 29.183 37.0804 29.183 32.1156 29.183C32.0864 28.9938 32.0517 28.8746 32.0522 28.7555C32.0609 26.6442 32.0194 24.5308 32.0983 22.422C32.2239 19.0609 33.5708 17.2395 36.8093 16.3359C38.7677 15.7896 40.8023 15.433 42.8266 15.2244C46.8123 14.8137 50.8015 14.9671 54.7519 15.6814C57.0438 16.0958 58.9959 17.1587 60.4712 19.0002C61.5003 20.2846 62.0415 21.7542 62.0413 23.4123C62.0403 28.1943 62.0643 32.9764 62.0342 37.7583C62.0066 42.1406 58.7246 45.3695 54.3388 45.377C49.4991 45.3853 44.6593 45.3748 39.8196 45.3805C35.0948 45.3859 31.2076 48.5888 30.3189 53.2255C30.2031 53.8304 30.1821 54.4598 30.1766 55.0783C30.159 57.0034 30.1701 58.9287 30.1701 60.8539C30.1701 61.0765 30.1701 61.2988 30.1701 61.5978C29.7102 61.5978 29.3228 61.601 28.9355 61.5973C27.4056 61.5834 25.8727 61.6235 24.3466 61.5392C21.9452 61.4063 20.1437 60.1969 18.8125 58.2315C17.6996 56.5884 17.2132 54.714 16.7598 52.8163C15.5871 47.9093 15.8077 43.0502 17.1743 38.2195C18.446 33.7237 21.9027 31.0896 26.585 31.0818C33.1413 31.0709 39.6975 31.0789 46.2538 31.0789C46.4971 31.0789 46.7405 31.0789 47.0202 31.0789ZM38.5789 19.6398C37.0216 19.6507 35.7972 20.9236 35.8064 22.5225C35.8156 24.1028 37.0819 25.3709 38.636 25.3557C40.1833 25.3406 41.4307 24.0446 41.4174 22.466C41.404 20.8874 40.1401 19.6291 38.5789 19.6398Z" fill="#111827"/>
</svg>
