<svg width="94" height="94" viewBox="0 0 94 94" fill="none" xmlns="http://www.w3.org/2000/svg">
<rect width="94" height="94" rx="10" fill="#FFD15C"/>
<path d="M46.9659 40.5876C46.124 40.5876 45.2904 40.7534 44.5126 41.0756C43.7348 41.3978 43.028 41.87 42.4327 42.4653C41.8374 43.0607 41.3652 43.7674 41.043 44.5452C40.7208 45.323 40.555 46.1567 40.555 46.9986C40.555 47.8405 40.7208 48.6741 41.043 49.4519C41.3652 50.2297 41.8374 50.9365 42.4327 51.5318C43.028 52.1271 43.7348 52.5993 44.5126 52.9215C45.2904 53.2437 46.124 53.4095 46.9659 53.4095C47.8078 53.4095 48.6415 53.2437 49.4193 52.9215C50.1971 52.5993 50.9038 52.1271 51.4992 51.5318C52.0945 50.9365 52.5667 50.2297 52.8889 49.4519C53.211 48.6741 53.3769 47.8405 53.3769 46.9986C53.3769 46.1567 53.211 45.323 52.8889 44.5452C52.5667 43.7674 52.0945 43.0607 51.4992 42.4653C50.9038 41.87 50.1971 41.3978 49.4193 41.0756C48.6415 40.7534 47.8078 40.5876 46.9659 40.5876ZM29.0069 59.7515L27.5923 59.3918C17.0483 56.7273 11 52.2046 11 46.9866C11 41.7685 17.0483 37.2458 27.5923 34.5813L29.0069 34.2246L29.4056 35.6273C30.4737 39.307 31.8399 42.8935 33.4907 46.3512L33.7934 46.9896L33.4907 47.628C31.8372 51.0845 30.4709 54.6712 29.4056 58.3518L29.0069 59.7515ZM26.9359 37.8572C18.9215 40.1081 14.0032 43.5518 14.0032 46.9866C14.0032 50.4183 18.9215 53.8621 26.9359 56.1159C27.9161 52.9987 29.0995 49.949 30.4786 46.9866C29.0979 44.0248 27.9144 40.975 26.9359 37.8572ZM64.9249 59.7515L64.5263 58.3458C63.4592 54.6664 62.0919 51.0807 60.4382 47.625L60.1355 46.9866L60.4382 46.3482C62.0913 42.8911 63.4586 39.3045 64.5263 35.6243L64.9249 34.2217L66.3426 34.5783C76.8836 37.2428 82.9319 41.7655 82.9319 46.9866C82.9319 52.2076 76.8836 56.7273 66.3426 59.3918L64.9249 59.7515ZM63.4533 46.9866C64.892 50.1006 66.0818 53.1607 66.996 56.1159C75.0134 53.8621 79.9287 50.4183 79.9287 46.9866C79.9287 43.5518 75.0104 40.1111 66.996 37.8572C66.0172 40.9749 64.8337 44.0247 63.4533 46.9866ZM26.9149 37.8422L26.5163 36.4425C23.5521 25.9944 24.4513 18.5075 28.983 15.894C33.4278 13.3284 40.564 16.3586 48.0419 24.0343L49.061 25.0803L48.0419 26.1263C45.3848 28.8885 42.9571 31.8625 40.7828 35.0189L40.3782 35.5973L39.6738 35.6573C35.8492 35.9588 32.0553 36.5702 28.3296 37.4856L26.9149 37.8422ZM32.5975 17.971C31.7943 17.971 31.084 18.1449 30.4845 18.4896C27.5054 20.2069 26.9779 26.1773 29.0309 34.2336C32.2248 33.5231 35.4616 33.0215 38.7207 32.7321C40.6012 30.0582 42.6557 27.5111 44.8709 25.1073C40.1954 20.5546 35.7685 17.971 32.5975 17.971ZM61.3373 78.9992C61.3343 78.9992 61.3343 78.9992 61.3373 78.9992C57.0664 78.9992 51.5816 75.7833 45.89 69.9388L44.8709 68.8928L45.89 67.8468C48.5464 65.0837 50.9731 62.1087 53.1461 58.9512L53.5507 58.3728L54.252 58.3128C58.0787 58.013 61.8746 57.4026 65.6023 56.4876L67.017 56.1309L67.4186 57.5336C70.3768 67.9757 69.4806 75.4656 64.9489 78.0761C63.8482 78.6985 62.6017 79.0171 61.3373 78.9992ZM49.061 68.8658C53.7365 73.4185 58.1633 76.0021 61.3343 76.0021H61.3373C62.1376 76.0021 62.8509 75.8282 63.4473 75.4836C66.4265 73.7662 66.957 67.7929 64.901 59.7365C61.7062 60.448 58.4684 60.9496 55.2081 61.2381C53.3299 63.9137 51.2764 66.4619 49.061 68.8658ZM67.017 37.8422L65.6023 37.4856C61.8751 36.5676 58.079 35.9561 54.252 35.6573L53.5507 35.5973L53.1461 35.0189C50.9742 31.8616 48.5474 28.8874 45.89 26.1263L44.8709 25.0803L45.89 24.0343C53.3649 16.3616 60.4981 13.3314 64.9489 15.894C69.4806 18.5075 70.3798 25.9944 67.4186 36.4396L67.017 37.8422ZM55.2081 32.7321C58.6309 33.0438 61.8828 33.5503 64.901 34.2336C66.957 26.1773 66.4265 20.2069 63.4473 18.4896C60.4861 16.7782 54.9204 19.4007 49.061 25.1073C51.2751 27.5112 53.3286 30.0583 55.2081 32.7321ZM32.5975 78.9992C31.3321 79.0176 30.0846 78.699 28.983 78.0761C24.4513 75.4656 23.5521 67.9787 26.5163 57.5336L26.9119 56.1309L28.3266 56.4876C31.7883 57.3597 35.6067 57.9742 39.6708 58.3128L40.3752 58.3728L40.7768 58.9512C42.9514 62.1083 45.3791 65.0833 48.0359 67.8468L49.055 68.8928L48.0359 69.9388C42.3473 75.7833 36.8625 78.9992 32.5975 78.9992ZM29.0309 59.7365C26.9749 67.7929 27.5054 73.7662 30.4845 75.4836C33.4427 77.171 39.0055 74.5694 44.8709 68.8658C42.6566 66.4602 40.6022 63.9121 38.7207 61.2381C35.4615 60.9499 32.2246 60.4482 29.0309 59.7365ZM46.9659 61.6187C44.4993 61.6187 41.9637 61.5108 39.4251 61.301L38.7207 61.2411L38.3161 60.6626C36.8802 58.5994 35.5303 56.4776 34.27 54.3026C33.0133 52.126 31.8474 49.8982 30.7753 47.625L30.4756 46.9866L30.7753 46.3482C31.8473 44.0749 33.0132 41.8471 34.27 39.6705C35.5108 37.5245 36.8745 35.3846 38.3161 33.3105L38.7207 32.7321L39.4251 32.6721C44.4443 32.2465 49.4906 32.2465 54.5098 32.6721L55.2111 32.7321L55.6128 33.3105C58.4875 37.4378 61.011 41.799 63.1566 46.3482L63.4593 46.9866L63.1566 47.625C61.0161 52.1768 58.4924 56.5384 55.6128 60.6626L55.2111 61.2411L54.5098 61.301C51.9712 61.5108 49.4326 61.6187 46.9659 61.6187ZM40.3812 58.3698C44.817 58.7025 49.1149 58.7025 53.5537 58.3698C56.0318 54.747 58.2321 50.9417 60.1355 46.9866C58.2354 43.0291 56.034 39.2234 53.5507 35.6033C49.1672 35.2707 44.7647 35.2707 40.3812 35.6033C37.8968 39.2228 35.6953 43.0285 33.7964 46.9866C35.7019 50.9412 37.9031 54.7464 40.3812 58.3698Z" fill="#111827"/>
</svg>
