<svg width="94" height="94" viewBox="0 0 94 94" fill="none" xmlns="http://www.w3.org/2000/svg">
<rect width="94" height="94" rx="10" fill="#FF4D61"/>
<path d="M27.0543 68.4611H24.1566C24.0542 63.5701 23.772 58.972 23.3106 54.6634H23.2848L18.8732 68.4611H16.6671L12.2817 54.6634H12.2565C11.9312 58.8001 11.7263 63.3993 11.6412 68.4611H9C9.17022 62.3058 9.598 56.5352 10.2817 51.1487H13.873L18.0529 63.8697H18.0786L22.2842 51.1487H25.7205C26.4731 57.458 26.9176 63.2291 27.0543 68.4611ZM39.6207 55.688C38.4409 62.0902 36.8843 66.7421 34.9526 69.6459C33.4475 71.8811 31.7985 72.9998 30.0028 72.9998C29.5241 72.9998 28.9334 72.8554 28.2335 72.5687V71.025C28.5756 71.0742 28.977 71.1022 29.4384 71.1022C30.2772 71.1022 30.9513 70.8715 31.4654 70.409C32.0802 69.8458 32.3875 69.2125 32.3875 68.512C32.3875 68.0316 32.1479 67.0495 31.6697 65.5623L28.4899 55.6875H31.3366L33.6188 63.0729C34.1317 64.7499 34.3456 65.9207 34.2599 66.5876C35.508 63.2543 36.3798 59.6198 36.8765 55.6869H39.6207V55.688Z" fill="#111827"/>
<path d="M78.1912 68.4605H69.9603V51.1482H72.7291V66.3294H78.1912V68.4605ZM67.8057 68.8788L64.6231 67.3082C64.9053 67.0764 65.1752 66.8255 65.4182 66.5349C66.771 64.9459 67.4457 62.5958 67.4457 59.4832C67.4457 53.7557 65.1981 50.8906 60.7014 50.8906C58.4964 50.8906 56.7763 51.6174 55.5461 53.0715C54.1945 54.6617 53.5197 57.0033 53.5197 60.0991C53.5197 63.1423 54.1177 65.3748 55.3143 66.7908C56.409 68.0736 58.0591 68.7158 60.2657 68.7158C61.0888 68.7158 61.8442 68.615 62.5323 68.4118L66.6758 70.824L67.8057 68.8788ZM57.4958 64.9962C56.7948 63.8686 56.4442 62.0578 56.4442 59.561C56.4442 55.202 57.7685 53.02 60.4197 53.02C61.8055 53.02 62.8212 53.5418 63.4708 54.5833C64.1707 55.7127 64.5229 57.5072 64.5229 59.9692C64.5229 64.3641 63.1975 66.5618 60.5479 66.5618C59.1616 66.5624 58.1459 66.0422 57.4958 64.9962ZM52.3131 63.6619C52.3131 65.1301 51.7745 66.3345 50.6983 67.2779C49.621 68.2175 48.1764 68.6884 46.3661 68.6884C44.6729 68.6884 43.0312 68.1475 41.4421 67.0713L42.1863 65.5847C43.5536 66.2695 44.7916 66.61 45.9031 66.61C46.9462 66.61 47.7615 66.3787 48.3527 65.9201C48.9435 65.4599 49.2957 64.8143 49.2957 63.9979C49.2957 62.9693 48.5784 62.0902 47.2626 61.3539C46.0492 60.6876 43.6225 59.2945 43.6225 59.2945C42.3072 58.3359 41.6488 57.3068 41.6488 55.6113C41.6488 54.2082 42.1398 53.0754 43.1225 52.2137C44.1063 51.3486 45.3756 50.9175 46.9317 50.9175C48.5386 50.9175 49.9995 51.348 51.3153 52.2003L50.6479 53.6874C49.5224 53.2092 48.4115 52.9702 47.3158 52.9702C46.4283 52.9702 45.7429 53.1835 45.2664 53.6118C44.786 54.0385 44.4898 54.5844 44.4898 55.2541C44.4898 56.2776 45.2222 57.1679 46.5739 57.9188C47.8035 58.5862 50.2907 60.0034 50.2907 60.0034C51.6395 60.9603 52.3131 61.9799 52.3131 63.6619Z" fill="#111827"/>
<path d="M81.6672 45.3501C79.993 45.3075 78.6968 45.476 77.6089 45.9363C77.2947 46.0617 76.7953 46.0617 76.7516 46.4587C76.9213 46.6267 76.9409 46.8977 77.0881 47.1295C77.339 47.5478 77.7763 48.1105 78.1755 48.4039C78.6139 48.7398 79.054 49.0724 79.5154 49.3653C80.329 49.8687 81.2512 50.1615 82.044 50.6632C82.506 50.9549 82.9651 51.3323 83.4276 51.6464C83.6549 51.8138 83.8005 52.0854 84.0956 52.1901V52.1263C83.9478 51.9381 83.9058 51.666 83.7608 51.4566L83.1325 50.8508C82.5256 50.0355 81.7713 49.3238 80.9578 48.7393C80.2881 48.2779 78.8233 47.6508 78.5518 46.8792L78.5092 46.8367C78.9695 46.7935 79.5154 46.6267 79.9527 46.4985C80.6644 46.3109 81.3133 46.3534 82.0435 46.1659C82.3794 46.0819 82.7126 45.9766 83.0497 45.873V45.6843C82.6712 45.3075 82.4013 44.8069 82.0032 44.4508C80.9382 43.5309 79.7646 42.6311 78.5518 41.878C77.9023 41.4586 77.0669 41.1887 76.3753 40.832C76.1262 40.706 75.7062 40.6439 75.5595 40.4345C75.1844 39.9742 74.9733 39.3684 74.7012 38.8236C74.0964 37.674 73.5091 36.3985 72.9872 35.1829C72.6098 34.3677 72.3803 33.5535 71.92 32.7993C69.7643 29.2438 67.4232 27.0903 63.8252 24.9766C63.0519 24.5365 62.1319 24.3489 61.1493 24.1182L59.5798 24.0353C59.245 23.8886 58.9096 23.4905 58.6173 23.3024C57.4235 22.5499 54.3501 20.9188 53.4721 23.0723C52.9066 24.4335 54.3087 25.7717 54.7902 26.4621C55.1457 26.9414 55.6066 27.4867 55.8552 28.031C56.0024 28.3865 56.0439 28.7639 56.1911 29.1396C56.526 30.0602 56.839 31.0843 57.2791 31.9432C57.5086 32.381 57.7589 32.8413 58.0523 33.2377C58.2203 33.4695 58.5126 33.572 58.5764 33.95C58.2847 34.3665 58.2617 34.9953 58.0943 35.5183C57.3418 37.8818 57.6357 40.8096 58.7024 42.5465C59.0361 43.0695 59.8323 44.2207 60.8973 43.7795C61.8402 43.4032 61.6314 42.2111 61.9024 41.1657C61.9645 40.9132 61.9236 40.7475 62.0491 40.5817V40.6226C62.3408 41.2077 62.6353 41.7716 62.9058 42.3584C63.5547 43.3825 64.6846 44.4497 65.6259 45.1591C66.127 45.5376 66.524 46.1849 67.1517 46.4162V46.3534H67.1102C66.9831 46.1659 66.7972 46.0819 66.6304 45.9363C66.253 45.5595 65.8353 45.0992 65.5425 44.6815C64.6656 43.5096 63.8896 42.2122 63.2008 40.8734C62.8638 40.2239 62.5732 39.5139 62.3016 38.8655C62.1751 38.6153 62.1751 38.2379 61.9651 38.1119C61.6504 38.5716 61.1918 38.9697 60.9623 39.533C60.5641 40.4339 60.5227 41.542 60.3749 42.6943L60.2926 42.7346C59.6263 42.5672 59.3945 41.878 59.1414 41.2928C58.5148 39.8068 58.4096 37.4215 58.9532 35.707C59.0988 35.2686 59.7287 33.8878 59.4773 33.4701C59.3513 33.0698 58.9325 32.8419 58.703 32.5266C58.4331 32.1302 58.1374 31.6285 57.9493 31.1884C57.4476 30.0176 57.1951 28.7202 56.6547 27.55C56.4022 27.0046 55.9638 26.4402 55.6088 25.938C55.2101 25.3736 54.7717 24.976 54.4565 24.3069C54.3523 24.0768 54.2062 23.7005 54.3736 23.4502C54.4145 23.2822 54.4996 23.2195 54.6664 23.1775C54.9374 22.9485 55.7118 23.2397 55.9834 23.3657C56.7589 23.6792 57.4073 23.9721 58.0546 24.4111C58.3474 24.621 58.6615 25.0186 59.0372 25.1233H59.4773C60.1453 25.2689 60.8984 25.1636 61.5272 25.3529C62.6353 25.709 63.6393 26.2314 64.5396 26.7952C67.2793 28.5327 69.5386 31.0014 71.0639 33.95C71.3142 34.4304 71.4206 34.8705 71.649 35.3716C72.0897 36.3974 72.6345 37.4433 73.0718 38.4473C73.5113 39.43 73.9301 40.4333 74.5578 41.2497C74.8708 41.6887 76.1284 41.9188 76.6923 42.149C77.1094 42.3365 77.7589 42.5034 78.1352 42.7335C78.8469 43.1719 79.5557 43.6753 80.2248 44.1574C80.558 44.4083 81.605 44.9312 81.6672 45.3501ZM60.3307 27.1726C60.0419 27.1696 59.754 27.205 59.4745 27.2779V27.3199H59.5148C59.6834 27.6541 59.9762 27.886 60.1851 28.1777C60.3536 28.5131 60.4998 28.8457 60.6649 29.1805L60.7052 29.1391C61.0003 28.9302 61.147 28.5954 61.147 28.0931C61.0199 27.9453 61.0003 27.8008 60.8945 27.6541C60.7713 27.4447 60.4998 27.3406 60.3307 27.1726Z" fill="#111827"/>
<path d="M83.6594 68.4583H84.0928V66.3373H83.4427L82.9125 67.7847L82.3363 66.3373H81.7103V68.4583H82.1196V66.8446H82.1426L82.7462 68.4583H83.0581L83.6594 66.8446V68.4583ZM80.1683 68.4583H80.6269V66.6968H81.2271V66.3368H79.5428V66.6968H80.1672L80.1683 68.4583Z" fill="#111827"/>
</svg>
