<svg width="94" height="94" viewBox="0 0 94 94" fill="none" xmlns="http://www.w3.org/2000/svg">
<rect width="94" height="94" rx="10" fill="#5FC9E1"/>
<path fill-rule="evenodd" clip-rule="evenodd" d="M66.4902 59.9328C65.9478 59.9328 65.6813 60.205 65.6813 60.205C65.6813 60.205 58.8956 65.6971 46.6804 65.6971C34.4653 65.6971 27.6939 60.205 27.6939 60.205C27.6939 60.205 27.1514 59.9352 26.8849 59.9352C26.3377 59.9352 25.7952 60.2074 25.7952 61.0264V61.2962L27.6986 71.6453C28.5076 75.7334 36.6542 79 46.4235 79C56.1928 79 64.3346 75.7334 65.1483 71.6453C65.1483 71.1009 65.9573 67.0176 67.0518 61.2962V61.0264C67.2897 60.4772 67.0518 59.9352 66.5045 59.9352L66.4902 59.9328ZM46.6876 15C31.4602 15 19 19.0785 19 24.253C19 25.6189 22.2548 44.9512 23.6158 52.5781C24.1583 56.1169 33.1162 61.0193 46.6804 61.0193C60.2447 61.0193 68.9314 56.136 69.7451 52.59L74.3514 24.2769C74.0611 19.1024 61.8673 15.0215 46.6614 15.0215L46.6876 15ZM46.6876 54.7582C45.5431 54.7737 44.4071 54.5587 43.3468 54.1261C42.2865 53.6935 41.3234 53.052 40.5142 52.2395C39.7051 51.427 39.0665 50.46 38.636 49.3956C38.2055 48.3312 37.992 47.1911 38.008 46.0425C38.008 41.1306 41.8029 37.3219 46.6852 37.3219C47.8305 37.3058 48.9673 37.5204 50.0285 37.953C51.0897 38.3857 52.0537 39.0275 52.8634 39.8406C53.673 40.6536 54.312 41.6214 54.7425 42.6867C55.173 43.7519 55.3862 44.893 55.3695 46.0425C55.3695 50.6654 51.5698 54.7343 46.6852 54.7343L46.6876 54.7582ZM46.69 41.4243C49.0835 41.4243 51.0345 43.3943 51.0345 45.7846C51.0345 48.1748 49.0835 50.1448 46.69 50.1448C44.2964 50.1448 42.3454 48.1963 42.3454 45.7846C42.3479 44.6289 42.8065 43.5213 43.6207 42.7042C44.4349 41.887 45.5385 41.4268 46.69 41.4243ZM46.6852 26.9776C36.9135 26.9776 29.0453 25.3491 29.0453 23.1689C29.0453 20.9888 36.9112 19.3555 46.6852 19.3555C56.4592 19.3555 64.3013 20.9888 64.3013 23.1618C64.3013 25.3347 56.4497 26.9776 46.6614 26.9776H46.6852Z" fill="#111827"/>
</svg>
