<svg width="94" height="94" viewBox="0 0 94 94" fill="none" xmlns="http://www.w3.org/2000/svg">
<rect width="94" height="94" rx="10" fill="#FF4D61"/>
<path d="M65.9631 36.5226C68.3076 34.8428 70.0537 32.4729 70.9514 29.7525C71.849 27.0321 71.8522 24.1008 70.9603 21.3786C70.0685 18.6563 68.3274 16.2828 65.9865 14.5981C63.6456 12.9134 60.8251 12.0039 57.929 12H35.721C32.8249 12.0039 30.0044 12.9134 27.6635 14.5981C25.3226 16.2828 23.5816 18.6563 22.6897 21.3786C21.7978 24.1008 21.801 27.0321 22.6986 29.7525C23.5963 32.4729 25.3425 34.8428 27.6869 36.5226C25.9268 37.7751 24.4932 39.4229 23.5044 41.3304C22.5157 43.2379 22 45.3502 22 47.4933C22 49.6363 22.5157 51.7487 23.5044 53.6561C24.4932 55.5636 25.9268 57.2115 27.6869 58.4639C25.783 59.8232 24.2643 61.6428 23.2764 63.7484C22.2885 65.8539 21.8644 68.1748 22.0448 70.4887C22.2252 72.8027 23.004 75.0321 24.3066 76.9633C25.6093 78.8945 27.3921 80.4629 29.4842 81.5181C31.5763 82.5733 33.9077 83.0801 36.2549 82.9897C38.6021 82.8994 40.8865 82.215 42.8892 81.0022C44.8919 79.7894 46.5458 78.0888 47.6925 76.0633C48.8391 74.0378 49.44 71.7553 49.4377 69.4346V58.109C50.8615 59.2959 52.515 60.1838 54.2975 60.7186C56.0799 61.2534 57.954 61.4239 59.8053 61.2197C61.6567 61.0154 63.4465 60.4408 65.0657 59.5307C66.6849 58.6207 68.0995 57.3943 69.2232 55.9264C70.3469 54.4585 71.1563 52.7799 71.6018 50.9928C72.0474 49.2058 72.1199 47.3478 71.8148 45.5322C71.5098 43.7165 70.8336 41.9813 69.8275 40.4323C68.8215 38.8834 67.5066 37.5531 65.9631 36.5226ZM66.4203 25.552C66.4117 27.7743 65.5143 29.9033 63.9238 31.4747C62.3332 33.0462 60.1784 33.9328 57.929 33.9413H49.4377V17.1627H57.929C60.1784 17.1712 62.3332 18.0578 63.9238 19.6292C65.5143 21.2007 66.4117 23.3296 66.4203 25.552ZM27.2297 25.552C27.2383 23.3296 28.1357 21.2007 29.7262 19.6292C31.3168 18.0578 33.4716 17.1712 35.721 17.1627H44.2123V33.9413H35.721C33.4716 33.9328 31.3168 33.0462 29.7262 31.4747C28.1357 29.9033 27.2383 27.7743 27.2297 25.552ZM27.2297 47.4933C27.2383 45.2709 28.1357 43.142 29.7262 41.5705C31.3168 39.9991 33.4716 39.1124 35.721 39.104H44.2123V55.8826H35.721C33.4716 55.8741 31.3168 54.9875 29.7262 53.416C28.1357 51.8446 27.2383 49.7156 27.2297 47.4933ZM35.721 77.8239C33.469 77.8239 31.3092 76.94 29.7167 75.3667C28.1243 73.7934 27.2297 71.6595 27.2297 69.4346C27.2297 67.2096 28.1243 65.0757 29.7167 63.5024C31.3092 61.9291 33.469 61.0452 35.721 61.0452H44.2123V69.4346C44.2037 71.6569 43.3063 73.7859 41.7157 75.3573C40.1252 76.9288 37.9704 77.8154 35.721 77.8239ZM57.929 55.8826C55.677 55.8826 53.5172 54.9987 51.9248 53.4254C50.3323 51.8521 49.4377 49.7183 49.4377 47.4933C49.4377 45.2683 50.3323 43.1344 51.9248 41.5611C53.5172 39.9878 55.677 39.104 57.929 39.104C60.181 39.104 62.3408 39.9878 63.9333 41.5611C65.5257 43.1344 66.4203 45.2683 66.4203 47.4933C66.4203 49.7183 65.5257 51.8521 63.9333 53.4254C62.3408 54.9987 60.181 55.8826 57.929 55.8826Z" fill="black"/>
</svg>
