<svg width="94" height="94" viewBox="0 0 94 94" fill="none" xmlns="http://www.w3.org/2000/svg">
<rect width="94" height="94" rx="10" fill="#5FC9E1"/>
<path d="M15 15V79H79V15H15ZM17.666 17.7345H76.332V76.2634H17.666V17.7345ZM30.468 29.9897C30.468 29.8071 30.844 29.6697 31.062 29.6697C33.3527 29.5703 35.6453 29.5238 37.938 29.5302C45.334 29.5302 48.208 33.6863 48.208 39.0077C48.208 45.964 43.292 48.9447 37.27 48.9447C36.25 48.9447 35.906 48.8914 35.198 48.8914V59.4049C35.198 59.6285 35.114 59.7249 34.896 59.7249H30.77C30.552 59.7249 30.468 59.6388 30.468 59.4152V29.9897ZM35.198 44.5219C35.812 44.565 36.302 44.565 37.364 44.565C40.478 44.565 43.416 43.4326 43.416 39.1062C43.416 35.6331 41.312 33.871 37.75 33.871C36.698 33.871 35.688 33.914 35.198 33.9571V44.5219ZM58.156 41.2622C56.042 41.2622 55.334 42.3515 55.334 43.25C55.334 44.2429 55.814 44.9178 58.636 46.4133C62.814 48.4975 64.136 50.473 64.136 53.4107C64.136 57.7802 60.876 60.1311 56.48 60.1311C54.146 60.1311 52.158 59.6285 51.012 58.9556C50.846 58.8695 50.804 58.732 50.804 58.5064V54.4897C50.804 54.223 50.93 54.1266 51.106 54.2661C52.7022 55.3306 54.5661 55.8952 56.47 55.8908C58.584 55.8908 59.46 54.9923 59.46 53.7656C59.46 52.7727 58.846 51.9172 56.168 50.4751C52.376 48.6165 50.792 46.7251 50.792 43.5618C50.792 40.0355 53.48 37.1081 58.136 37.1081C60.428 37.1081 62.042 37.4712 62.928 37.8671C63.146 38.0066 63.188 38.2302 63.188 38.4128V42.1628C63.188 42.3864 63.052 42.5259 62.792 42.4295C61.604 41.7135 59.854 41.254 58.146 41.254L58.156 41.2622Z" fill="black"/>
</svg>
