<svg width="94" height="94" viewBox="0 0 94 94" fill="none" xmlns="http://www.w3.org/2000/svg">
<rect width="94" height="94" rx="10" fill="#5FC9E1"/>
<path d="M25.9467 25.9502C25.9467 25.9502 39.4213 19.2169 46.1573 15.8462C47.3833 15.2418 48.7408 14.9531 50.1067 15.0062C52.1493 15.1315 54.5787 17.1075 54.5787 17.1075L79 41.5315V67.6355H67.632V79.0035H41.104L17.104 55.0035C15.808 53.6702 15 51.7902 15 49.9502C15 49.0995 15.48 47.7689 15.8427 47.0035L25.9467 25.9502ZM27.7573 27.7609V59.1929C27.7627 60.6409 27.8133 61.9235 29.0853 63.2142L42.2107 76.3369H64.9653V64.9689L27.7573 27.7609ZM59.904 25.9529C57.5067 23.5635 55.08 21.2062 52.5973 18.9049C51.792 18.1929 51.0853 17.6569 49.744 17.6729C48.7573 17.7102 47.424 18.1929 47.424 18.1929L31.9093 25.9502L59.904 25.9529Z" fill="#111827"/>
</svg>
