<svg width="94" height="94" viewBox="0 0 94 94" fill="none" xmlns="http://www.w3.org/2000/svg">
<rect width="94" height="94" rx="10" fill="#FFD15C"/>
<path d="M54.027 18.3512C50.8712 14.5979 48.1968 10.8445 47.6084 10.0402C47.555 9.9866 47.448 9.9866 47.3945 10.0402C46.8596 10.8445 44.1317 14.5979 40.976 18.3512C14.0182 52.8284 45.2015 76.0992 45.2015 76.0992L45.4689 76.26C45.6829 79.8525 46.2713 85 46.2713 85H47.448H48.6247C48.6247 85 49.2131 79.8525 49.427 76.26L49.6945 76.0456C49.8014 76.0992 80.9848 52.8284 54.027 18.3512ZM47.5015 75.563C47.5015 75.563 46.1108 74.3834 45.7364 73.7399V73.6863L47.448 36.1528C47.448 36.0456 47.6084 36.0456 47.6084 36.1528L49.32 73.6863V73.7399C48.9456 74.3834 47.5015 75.563 47.5015 75.563Z" fill="#111827"/>
</svg>
