<svg width="94" height="94" viewBox="0 0 94 94" fill="none" xmlns="http://www.w3.org/2000/svg">
<rect width="94" height="94" rx="10" fill="#FF4D61"/>
<path d="M24.8144 40.8252C27.1244 40.8252 28.6639 41.2515 29.4337 42.1044C30.2027 42.9572 30.3859 44.4211 29.9835 46.4955C29.5632 48.6557 28.7537 50.1975 27.5538 51.1213C26.3539 52.0453 24.5279 52.5067 22.0766 52.5067H18.3781L20.6484 40.8252H24.8144ZM10 64.3321H16.0803L17.5224 56.9115H22.7304C25.0284 56.9115 26.9188 56.6705 28.4028 56.1872C29.887 55.7047 31.2357 54.8954 32.4498 53.7591C33.4686 52.8225 34.293 51.7895 34.9243 50.6598C35.555 49.531 36.0031 48.2846 36.2679 46.9218C36.9112 43.6132 36.4258 41.0362 34.8129 39.1899C33.2001 37.3436 30.6343 36.4205 27.1169 36.4205H15.4248L10 64.3321Z" fill="#111827"/>
<path d="M40.7335 29H46.7657L45.3234 36.4206H50.6974C54.0785 36.4206 56.411 37.0108 57.6948 38.1898C58.9783 39.3696 59.3629 41.2808 58.8497 43.923L56.3258 56.9115H50.1978L52.5976 44.5618C52.8706 43.1569 52.7705 42.1986 52.2962 41.6878C51.822 41.1767 50.8129 40.9211 49.2696 40.9211H44.4484L41.3409 56.9114H35.3085L40.7335 29Z" fill="#111827"/>
<path d="M72.2714 40.8252C74.5814 40.8252 76.1209 41.2515 76.8907 42.1044C77.66 42.9572 77.8431 44.4211 77.4406 46.4955C77.0202 48.6557 76.211 50.1975 75.0108 51.1213C73.8109 52.0453 71.9849 52.5067 69.5336 52.5067H65.8353L68.1056 40.8252H72.2714ZM57.4572 64.3321H63.5374L64.9794 56.9115H70.1874C72.4855 56.9115 74.3758 56.6705 75.86 56.1872C77.3441 55.7047 78.6928 54.8954 79.907 53.7591C80.926 52.8225 81.7502 51.7895 82.3815 50.6598C83.012 49.531 83.4602 48.2846 83.725 46.9218C84.3683 43.6132 83.8829 41.0362 82.27 39.1899C80.6572 37.3436 78.0913 36.4205 74.574 36.4205H62.8822L57.4572 64.3321Z" fill="#111827"/>
</svg>
